STARTFONT 2.1
COMMENT
COMMENT Converted from OpenType font "UbuntuMono-Bold.ttf" by "otf2bdf 3.0".
COMMENT
FONT -FreeType-Ubuntu Mono-Bold-R-Normal--33-240-100-100-P-148-ISO10646-1
SIZE 24 100 100
FONTBOUNDINGBOX 35 34 -13 -6
STARTPROPERTIES 19
FOUNDRY "FreeType"
FAMILY_NAME "Ubuntu Mono"
WEIGHT_NAME "Bold"
SLANT "R"
SETWIDTH_NAME "Normal"
ADD_STYLE_NAME ""
PIXEL_SIZE 33
POINT_SIZE 240
RESOLUTION_X 100
RESOLUTION_Y 100
SPACING "P"
AVERAGE_WIDTH 148
CHARSET_REGISTRY "ISO10646"
CHARSET_ENCODING "1"
FONT_ASCENT 27
FONT_DESCENT 5
COPYRIGHT "Copyright 2011 Canonical Ltd.  Licensed under the Ubuntu Font Licence 1.0"
_OTF_FONTFILE "UbuntuMono-Bold.ttf"
_OTF_PSNAME "UbuntuMono-Bold"
ENDPROPERTIES
CHARS 1224
STARTCHAR 0000
ENCODING 0
SWIDTH 510 0
DWIDTH 17 0
BBX 0 0 0 0
BITMAP
ENDCHAR
STARTCHAR 0008
ENCODING 8
SWIDTH 510 0
DWIDTH 17 0
BBX 0 0 0 0
BITMAP
ENDCHAR
STARTCHAR 0009
ENCODING 9
SWIDTH 510 0
DWIDTH 17 0
BBX 0 0 0 0
BITMAP
ENDCHAR
STARTCHAR 000D
ENCODING 13
SWIDTH 510 0
DWIDTH 17 0
BBX 0 0 0 0
BITMAP
ENDCHAR
STARTCHAR 001D
ENCODING 29
SWIDTH 510 0
DWIDTH 17 0
BBX 0 0 0 0
BITMAP
ENDCHAR
STARTCHAR 0020
ENCODING 32
SWIDTH 510 0
DWIDTH 17 0
BBX 0 0 0 0
BITMAP
ENDCHAR
STARTCHAR 0021
ENCODING 33
SWIDTH 510 0
DWIDTH 17 0
BBX 5 20 6 0
BITMAP
F8
F8
F8
F8
F8
F8
F8
F8
F0
F0
F0
F0
70
00
00
70
F8
F8
F8
70
ENDCHAR
STARTCHAR 0022
ENCODING 34
SWIDTH 510 0
DWIDTH 17 0
BBX 11 9 3 14
BITMAP
33E0
F3E0
F3E0
F3E0
F1C0
F1C0
F1C0
71C0
61C0
ENDCHAR
STARTCHAR 0023
ENCODING 35
SWIDTH 510 0
DWIDTH 17 0
BBX 15 20 1 0
BITMAP
0F3C
0F3C
0E38
0E38
0E38
FFFE
FFFE
FFFE
1C70
1C70
3CF0
3CF0
FFFE
FFFE
FFFE
79E0
79E0
71C0
71C0
71C0
ENDCHAR
STARTCHAR 0024
ENCODING 36
SWIDTH 510 0
DWIDTH 17 0
BBX 14 26 1 -3
BITMAP
0780
0780
0780
0FF8
3FFC
3FF8
7C18
7800
7800
7C00
7F00
3FC0
1FF0
07F8
00FC
003C
003C
003C
707C
7FFC
FFF8
3FF0
0780
0780
0780
0780
ENDCHAR
STARTCHAR 0025
ENCODING 37
SWIDTH 510 0
DWIDTH 17 0
BBX 16 20 0 0
BITMAP
3C07
7E0E
7E0E
E71C
E738
E738
E770
7EE0
7EE0
3DC0
039C
03BE
077F
0E77
0E67
1C67
3877
387F
703E
E01C
ENDCHAR
STARTCHAR 0026
ENCODING 38
SWIDTH 510 0
DWIDTH 17 0
BBX 15 20 1 0
BITMAP
0F80
1FC0
3FE0
78E0
78E0
78E0
79E0
3BC0
3FC0
1F10
3F1C
7F9C
F7FC
E3FC
E1F8
E0F8
F0F8
FFFC
7FFC
1F1E
ENDCHAR
STARTCHAR 0027
ENCODING 39
SWIDTH 510 0
DWIDTH 17 0
BBX 4 10 6 13
BITMAP
F0
F0
F0
F0
F0
F0
70
70
70
70
ENDCHAR
STARTCHAR 0028
ENCODING 40
SWIDTH 510 0
DWIDTH 17 0
BBX 10 28 3 -5
BITMAP
0080
03C0
07C0
0FC0
1F80
1E00
3E00
7C00
7800
7800
F000
F000
F000
F000
F000
F000
F000
F000
7000
7800
7800
3C00
3E00
1F00
0F80
07C0
03C0
0080
ENDCHAR
STARTCHAR 0029
ENCODING 41
SWIDTH 510 0
DWIDTH 17 0
BBX 10 28 3 -5
BITMAP
6000
7000
F800
7C00
3E00
1F00
0F80
0780
0780
03C0
03C0
03C0
01C0
01C0
01C0
01C0
01C0
03C0
03C0
03C0
0780
0780
0F00
1E00
3E00
F800
7000
6000
ENDCHAR
STARTCHAR 002A
ENCODING 42
SWIDTH 510 0
DWIDTH 17 0
BBX 13 13 2 7
BITMAP
0F00
0F00
4710
F770
FEF8
FFF8
7FE0
0F80
1FC0
3DE0
7DF0
38E0
1080
ENDCHAR
STARTCHAR 002B
ENCODING 43
SWIDTH 510 0
DWIDTH 17 0
BBX 14 15 1 1
BITMAP
0780
0780
0780
0780
0780
0780
FFFC
FFFC
FFFC
0780
0780
0780
0780
0780
0780
ENDCHAR
STARTCHAR 002C
ENCODING 44
SWIDTH 510 0
DWIDTH 17 0
BBX 7 11 4 -5
BITMAP
1C
3E
3E
3E
3E
1E
0E
1C
FC
F8
60
ENDCHAR
STARTCHAR 002D
ENCODING 45
SWIDTH 510 0
DWIDTH 17 0
BBX 9 4 4 6
BITMAP
FF80
FF80
FF80
FF80
ENDCHAR
STARTCHAR 002E
ENCODING 46
SWIDTH 510 0
DWIDTH 17 0
BBX 6 6 5 0
BITMAP
38
7C
FC
FC
7C
38
ENDCHAR
STARTCHAR 002F
ENCODING 47
SWIDTH 510 0
DWIDTH 17 0
BBX 13 28 2 -5
BITMAP
0078
00F0
00F0
00F0
01F0
01E0
01E0
03E0
03C0
03C0
07C0
0780
0780
0F80
0F00
0F00
1F00
1E00
1E00
3E00
3C00
3C00
7C00
7800
7800
F800
F000
F000
ENDCHAR
STARTCHAR 0030
ENCODING 48
SWIDTH 510 0
DWIDTH 17 0
BBX 14 20 1 0
BITMAP
07C0
1FF0
3FF8
7C78
783C
703C
F03C
F01C
F31C
F79C
F79C
F39C
F01C
F03C
703C
783C
7C78
3FF8
1FF0
07C0
ENDCHAR
STARTCHAR 0031
ENCODING 49
SWIDTH 510 0
DWIDTH 17 0
BBX 13 20 2 0
BITMAP
0380
0780
1F80
7F80
FF80
FF80
F780
0780
0780
0780
0780
0780
0780
0780
0780
0780
0780
7FF8
7FF8
7FF8
ENDCHAR
STARTCHAR 0032
ENCODING 50
SWIDTH 510 0
DWIDTH 17 0
BBX 14 20 1 0
BITMAP
0FC0
3FE0
FFF0
70F8
2078
0078
0078
00F8
00F8
01F0
07E0
0FC0
1F80
1F00
3E00
7C00
7C00
7FFC
7FFC
7FFC
ENDCHAR
STARTCHAR 0033
ENCODING 51
SWIDTH 510 0
DWIDTH 17 0
BBX 14 20 1 0
BITMAP
1FC0
7FE0
7FF0
30F8
0078
0078
0078
00F0
0FE0
0FF0
0FF8
00F8
007C
003C
003C
007C
60F8
7FF8
FFF0
3FC0
ENDCHAR
STARTCHAR 0034
ENCODING 52
SWIDTH 510 0
DWIDTH 17 0
BBX 15 20 1 0
BITMAP
00F0
01F0
01F0
03F0
07F0
0FF0
1EF0
1CF0
3CF0
78F0
78F0
F0F0
FFFE
FFFE
FFFE
00F0
00F0
00F0
00F0
00F0
ENDCHAR
STARTCHAR 0035
ENCODING 53
SWIDTH 510 0
DWIDTH 17 0
BBX 14 20 1 0
BITMAP
1FF8
3FF8
3FF8
3C00
3C00
3C00
3C00
3F80
3FE0
3FF0
01F8
0078
007C
003C
003C
0078
40F8
7FF0
FFE0
3F80
ENDCHAR
STARTCHAR 0036
ENCODING 54
SWIDTH 510 0
DWIDTH 17 0
BBX 13 20 2 0
BITMAP
00F0
07F0
1FF0
3F80
3E00
7800
F800
F780
FFE0
FFF0
F0F0
F078
F078
F078
F078
F078
F8F0
7FF0
3FE0
1F80
ENDCHAR
STARTCHAR 0037
ENCODING 55
SWIDTH 510 0
DWIDTH 17 0
BBX 13 20 2 0
BITMAP
FFF8
FFF8
FFF8
00F8
01F0
01E0
03E0
03C0
07C0
0780
0780
0F00
0F00
0F00
1E00
1E00
1E00
1E00
3E00
3E00
ENDCHAR
STARTCHAR 0038
ENCODING 56
SWIDTH 510 0
DWIDTH 17 0
BBX 14 20 1 0
BITMAP
0FC0
1FF0
3FF8
7C7C
783C
783C
7838
7C78
3FF0
1FE0
3FF0
79F8
787C
F03C
F03C
F03C
787C
7FF8
3FF0
0FC0
ENDCHAR
STARTCHAR 0039
ENCODING 57
SWIDTH 510 0
DWIDTH 17 0
BBX 14 20 1 0
BITMAP
0FC0
1FF0
3FF0
7C78
787C
783C
F03C
783C
783C
7C7C
3FFC
1FFC
0FF8
0078
00F8
01F0
07E0
3FC0
3F80
3C00
ENDCHAR
STARTCHAR 003A
ENCODING 58
SWIDTH 510 0
DWIDTH 17 0
BBX 6 16 5 0
BITMAP
38
7C
FC
FC
7C
38
00
00
00
00
38
7C
FC
FC
7C
38
ENDCHAR
STARTCHAR 003B
ENCODING 59
SWIDTH 510 0
DWIDTH 17 0
BBX 7 21 4 -5
BITMAP
1C
3E
7E
7E
3E
1C
00
00
00
00
1C
3E
7E
7E
3E
1E
0E
3C
F8
F0
C0
ENDCHAR
STARTCHAR 003C
ENCODING 60
SWIDTH 510 0
DWIDTH 17 0
BBX 14 15 1 1
BITMAP
0008
003C
01FC
07FC
1FF0
7FC0
FF00
F800
FF00
7FC0
1FF0
07FC
01FC
003C
0008
ENDCHAR
STARTCHAR 003D
ENCODING 61
SWIDTH 510 0
DWIDTH 17 0
BBX 14 9 1 4
BITMAP
FFFC
FFFC
FFFC
0000
0000
0000
FFFC
FFFC
FFFC
ENDCHAR
STARTCHAR 003E
ENCODING 62
SWIDTH 510 0
DWIDTH 17 0
BBX 14 15 1 1
BITMAP
6000
7800
7E00
FF80
3FF0
07FC
01FC
003C
01FC
07FC
3FF0
FF80
7E00
7800
6000
ENDCHAR
STARTCHAR 003F
ENCODING 63
SWIDTH 510 0
DWIDTH 17 0
BBX 12 20 2 0
BITMAP
3F80
FFE0
7FF0
61F0
00F0
00F0
01F0
03E0
07E0
0FC0
0F80
0F00
1E00
0000
0000
0E00
1F00
1F00
1F00
0E00
ENDCHAR
STARTCHAR 0040
ENCODING 64
SWIDTH 510 0
DWIDTH 17 0
BBX 14 24 1 -4
BITMAP
07E0
1FF0
3FF8
7C3C
701C
701C
E1FC
E3FC
E7FC
E79C
E71C
EF1C
EF1C
E71C
E71C
E79C
E7FC
E3FC
70FC
7800
3E00
1FFC
0FFC
03FC
ENDCHAR
STARTCHAR 0041
ENCODING 65
SWIDTH 510 0
DWIDTH 17 0
BBX 16 20 0 0
BITMAP
03E0
03E0
07E0
07F0
07F0
0F70
0E78
0E78
1E78
1E38
1E3C
1C3C
3FFC
3FFE
3FFE
781E
781E
781F
780F
F80F
ENDCHAR
STARTCHAR 0042
ENCODING 66
SWIDTH 510 0
DWIDTH 17 0
BBX 13 20 2 0
BITMAP
FF80
FFE0
FFF0
F0F0
F0F0
F070
F0F0
F1F0
FFE0
FFE0
FFF0
F0F8
F078
F078
F078
F078
F0F8
FFF0
FFE0
FF80
ENDCHAR
STARTCHAR 0043
ENCODING 67
SWIDTH 510 0
DWIDTH 17 0
BBX 14 20 1 0
BITMAP
03F8
0FFC
1FFC
3E0C
7C00
7800
F000
F000
F000
F000
F000
F000
F000
F000
7800
7800
7E0C
3FFC
1FFC
07F8
ENDCHAR
STARTCHAR 0044
ENCODING 68
SWIDTH 510 0
DWIDTH 17 0
BBX 14 20 2 0
BITMAP
FF00
FFC0
FFE0
F1F0
F0F8
F078
F078
F078
F07C
F07C
F07C
F07C
F078
F078
F078
F0F8
F1F0
FFE0
FFC0
FF00
ENDCHAR
STARTCHAR 0045
ENCODING 69
SWIDTH 510 0
DWIDTH 17 0
BBX 13 20 2 0
BITMAP
FFF0
FFF0
FFF0
F000
F000
F000
F000
F000
FFE0
FFE0
FFE0
F000
F000
F000
F000
F000
F000
FFF8
FFF8
FFF8
ENDCHAR
STARTCHAR 0046
ENCODING 70
SWIDTH 510 0
DWIDTH 17 0
BBX 13 20 2 0
BITMAP
FFF8
FFF8
FFF8
F000
F000
F000
F000
F000
FFF0
FFF0
FFF0
F000
F000
F000
F000
F000
F000
F000
F000
F000
ENDCHAR
STARTCHAR 0047
ENCODING 71
SWIDTH 510 0
DWIDTH 17 0
BBX 14 20 1 0
BITMAP
03FC
0FFC
1FFC
3E08
7C00
7800
F000
F000
F000
F03C
F03C
F03C
F03C
F03C
783C
783C
7C3C
3FFC
1FFC
07FC
ENDCHAR
STARTCHAR 0048
ENCODING 72
SWIDTH 510 0
DWIDTH 17 0
BBX 14 20 1 0
BITMAP
F83C
F83C
F83C
F83C
F83C
F83C
F83C
F83C
FFFC
FFFC
FFFC
F83C
F83C
F83C
F83C
F83C
F83C
F83C
F83C
F83C
ENDCHAR
STARTCHAR 0049
ENCODING 73
SWIDTH 510 0
DWIDTH 17 0
BBX 13 20 2 0
BITMAP
FFF8
FFF8
FFF8
0F00
0F00
0F00
0F00
0F00
0F00
0F00
0F00
0F00
0F00
0F00
0F00
0F00
0F00
FFF8
FFF8
FFF8
ENDCHAR
STARTCHAR 004A
ENCODING 74
SWIDTH 510 0
DWIDTH 17 0
BBX 12 20 2 0
BITMAP
3FF0
3FF0
3FF0
00F0
00F0
00F0
00F0
00F0
00F0
00F0
00F0
00F0
00F0
00F0
00F0
40F0
E1F0
FFE0
FFC0
3F00
ENDCHAR
STARTCHAR 004B
ENCODING 75
SWIDTH 510 0
DWIDTH 17 0
BBX 15 20 1 0
BITMAP
F83C
F87C
F878
F8F0
F9F0
F9E0
FBC0
FFC0
FF80
FF00
FF80
FFC0
FBE0
F9F0
F8F0
F8F8
F87C
F87C
F83E
F83E
ENDCHAR
STARTCHAR 004C
ENCODING 76
SWIDTH 510 0
DWIDTH 17 0
BBX 13 20 2 0
BITMAP
F000
F000
F000
F000
F000
F000
F000
F000
F000
F000
F000
F000
F000
F000
F000
F000
F000
FFF8
FFF8
FFF8
ENDCHAR
STARTCHAR 004D
ENCODING 77
SWIDTH 510 0
DWIDTH 17 0
BBX 15 20 1 0
BITMAP
703C
783C
787C
787C
7C7C
ECFC
ECFC
EEDC
EFDC
E7DC
E79C
E79C
E39C
E01C
E01E
E01E
E01E
E01E
E01E
E01E
ENDCHAR
STARTCHAR 004E
ENCODING 78
SWIDTH 510 0
DWIDTH 17 0
BBX 13 20 2 0
BITMAP
E078
F078
F078
F878
F878
FC78
FC78
EE78
EE78
E778
E778
E3F8
E3F8
E1F8
E1F8
E0F8
E0F8
E078
E078
E078
ENDCHAR
STARTCHAR 004F
ENCODING 79
SWIDTH 510 0
DWIDTH 17 0
BBX 15 20 1 0
BITMAP
0FC0
1FF0
3FF8
7C78
783C
F83C
F03C
F03C
F03E
F03E
F03E
F03E
F03C
F03C
F83C
783C
7C78
3FF8
1FF0
07C0
ENDCHAR
STARTCHAR 0050
ENCODING 80
SWIDTH 510 0
DWIDTH 17 0
BBX 14 20 2 0
BITMAP
FF80
FFE0
FFF0
F0F8
F078
F07C
F07C
F07C
F078
F0F8
FFF0
FFE0
FF80
F000
F000
F000
F000
F000
F000
F000
ENDCHAR
STARTCHAR 0051
ENCODING 81
SWIDTH 510 0
DWIDTH 17 0
BBX 15 25 1 -5
BITMAP
0FC0
1FF0
3FF8
7C78
783C
F83C
F03C
F03C
F03E
F03E
F03E
F03E
F03C
F03C
F03C
783C
7C78
3FF8
1FF0
0FC0
0380
03F0
01FC
00FC
001C
ENDCHAR
STARTCHAR 0052
ENCODING 82
SWIDTH 510 0
DWIDTH 17 0
BBX 14 20 2 0
BITMAP
FF80
FFE0
FFF0
F1F0
F0F8
F078
F078
F0F8
F1F0
FFF0
FFE0
FFC0
F3E0
F1E0
F1F0
F0F0
F0F8
F078
F07C
F03C
ENDCHAR
STARTCHAR 0053
ENCODING 83
SWIDTH 510 0
DWIDTH 17 0
BBX 14 20 1 0
BITMAP
0FE0
3FF8
3FF8
7C10
7800
7800
7800
7C00
7F80
3FE0
0FF8
01F8
007C
003C
003C
003C
607C
7FF8
FFF0
3FE0
ENDCHAR
STARTCHAR 0054
ENCODING 84
SWIDTH 510 0
DWIDTH 17 0
BBX 15 20 1 0
BITMAP
FFFE
FFFE
FFFE
0780
0780
0780
0780
0780
0780
0780
0780
0780
0780
0780
0780
0780
0780
0780
0780
0780
ENDCHAR
STARTCHAR 0055
ENCODING 85
SWIDTH 510 0
DWIDTH 17 0
BBX 14 20 1 0
BITMAP
F03C
F03C
F03C
F03C
F03C
F03C
F03C
F03C
F03C
F03C
F03C
F03C
F03C
F03C
F03C
783C
787C
7FF8
3FF0
0FE0
ENDCHAR
STARTCHAR 0056
ENCODING 86
SWIDTH 510 0
DWIDTH 17 0
BBX 15 20 1 0
BITMAP
F01E
F01E
F03E
F03C
F03C
783C
783C
7878
3878
3C78
3C70
3CF0
1CF0
1EF0
1EE0
0FE0
0FE0
0FC0
07C0
07C0
ENDCHAR
STARTCHAR 0057
ENCODING 87
SWIDTH 510 0
DWIDTH 17 0
BBX 15 20 1 0
BITMAP
F01E
E01E
E01E
E01E
E01E
E01E
E01C
E39C
E79C
E79C
E7DC
EFDC
EEDC
EEFC
ECFC
7C7C
787C
787C
783C
783C
ENDCHAR
STARTCHAR 0058
ENCODING 88
SWIDTH 510 0
DWIDTH 17 0
BBX 15 20 1 0
BITMAP
F03E
783C
7878
3C78
3CF0
1EF0
1FE0
0FE0
0FC0
07C0
0FC0
0FE0
1FE0
1EF0
3CF8
3C78
787C
783C
F03E
F01E
ENDCHAR
STARTCHAR 0059
ENCODING 89
SWIDTH 510 0
DWIDTH 17 0
BBX 15 20 1 0
BITMAP
F01E
F03E
F83C
783C
7878
3C78
3C70
1EF0
1EE0
0FE0
0FC0
07C0
0780
0780
0780
0780
0780
0780
0780
0780
ENDCHAR
STARTCHAR 005A
ENCODING 90
SWIDTH 510 0
DWIDTH 17 0
BBX 13 20 2 0
BITMAP
FFF8
FFF8
FFF8
01F0
01F0
03E0
03C0
07C0
0780
0F80
1F00
1E00
3E00
3C00
7C00
7800
F000
FFF8
FFF8
FFF8
ENDCHAR
STARTCHAR 005B
ENCODING 91
SWIDTH 510 0
DWIDTH 17 0
BBX 9 28 4 -5
BITMAP
FF80
FF80
FF80
F000
F000
F000
F000
F000
F000
F000
F000
F000
F000
F000
F000
F000
F000
F000
F000
F000
F000
F000
F000
F000
F000
FF80
FF80
FF80
ENDCHAR
STARTCHAR 005C
ENCODING 92
SWIDTH 510 0
DWIDTH 17 0
BBX 13 28 2 -5
BITMAP
F000
F000
F800
7800
7800
7C00
3C00
3C00
3E00
1E00
1E00
1F00
0F00
0F00
0F80
0780
0780
07C0
03C0
03C0
03E0
01E0
01E0
01F0
00F0
00F0
00F8
0078
ENDCHAR
STARTCHAR 005D
ENCODING 93
SWIDTH 510 0
DWIDTH 17 0
BBX 9 28 4 -5
BITMAP
FF80
FF80
FF80
0780
0780
0780
0780
0780
0780
0780
0780
0780
0780
0780
0780
0780
0780
0780
0780
0780
0780
0780
0780
0780
0780
FF80
FF80
FF80
ENDCHAR
STARTCHAR 005E
ENCODING 94
SWIDTH 510 0
DWIDTH 17 0
BBX 15 10 1 10
BITMAP
0780
07C0
0FE0
1EF0
3CF0
3C78
787C
F83C
F01E
3018
ENDCHAR
STARTCHAR 005F
ENCODING 95
SWIDTH 510 0
DWIDTH 17 0
BBX 16 3 0 -5
BITMAP
FFFF
FFFF
FFFF
ENDCHAR
STARTCHAR 0060
ENCODING 96
SWIDTH 510 0
DWIDTH 17 0
BBX 7 6 5 17
BITMAP
20
70
FC
7E
1E
04
ENDCHAR
STARTCHAR 0061
ENCODING 97
SWIDTH 510 0
DWIDTH 17 0
BBX 14 16 1 0
BITMAP
3FC0
3FF0
3FF8
2078
0078
003C
0FFC
3FFC
7FFC
783C
F03C
F03C
783C
7FFC
3FFC
0FF0
ENDCHAR
STARTCHAR 0062
ENCODING 98
SWIDTH 510 0
DWIDTH 17 0
BBX 14 23 2 0
BITMAP
F000
F000
F000
F000
F000
F000
F000
F7C0
FFE0
FFF0
F8F8
F078
F078
F078
F078
F07C
F078
F078
F078
F0F0
FFF0
FFE0
7F80
ENDCHAR
STARTCHAR 0063
ENCODING 99
SWIDTH 510 0
DWIDTH 17 0
BBX 14 16 1 0
BITMAP
03F8
0FFC
3FFC
3E00
7C00
7800
7800
F800
F800
7800
7800
7C00
3E04
3FFC
0FFC
03FC
ENDCHAR
STARTCHAR 0064
ENCODING 100
SWIDTH 510 0
DWIDTH 17 0
BBX 13 23 1 0
BITMAP
0078
0078
0078
0078
0078
0078
0078
0F78
3FF8
7FF8
78F8
F878
F078
F078
F078
F078
F078
F078
F878
7C78
7FF8
3FF8
0FF0
ENDCHAR
STARTCHAR 0065
ENCODING 101
SWIDTH 510 0
DWIDTH 17 0
BBX 14 16 1 0
BITMAP
07C0
1FF0
3FF8
7C78
783C
F83C
F03C
FFFC
FFFC
FFFC
F000
7800
7C08
3FF8
1FF8
07F0
ENDCHAR
STARTCHAR 0066
ENCODING 102
SWIDTH 510 0
DWIDTH 17 0
BBX 15 23 1 0
BITMAP
01FC
07FE
07FE
0F86
0F00
0F00
0F00
FFFC
FFFC
FFFC
0F00
0F00
0F00
0F00
0F00
0F00
0F00
0F00
0F00
0F00
0F00
0F00
0F00
ENDCHAR
STARTCHAR 0067
ENCODING 103
SWIDTH 510 0
DWIDTH 17 0
BBX 13 21 1 -5
BITMAP
07F0
1FF8
3FF8
7C78
7878
F078
F078
F078
F078
F078
F878
7878
7FF8
3FF8
0FF8
0078
0078
60F8
7FF0
7FE0
3F80
ENDCHAR
STARTCHAR 0068
ENCODING 104
SWIDTH 510 0
DWIDTH 17 0
BBX 13 23 2 0
BITMAP
F000
F000
F000
F000
F000
F000
F000
FF80
FFE0
FFF0
F0F0
F0F0
F0F0
F0F8
F0F8
F0F8
F0F8
F0F8
F0F8
F0F8
F0F8
F0F8
F0F8
ENDCHAR
STARTCHAR 0069
ENCODING 105
SWIDTH 510 0
DWIDTH 17 0
BBX 14 23 1 0
BITMAP
0E00
1F00
1F00
1F00
0E00
0000
0000
FF80
FF80
FF80
0F80
0F80
0F80
0F80
0F80
0F80
0F80
0780
0780
0784
07FC
03FC
01F8
ENDCHAR
STARTCHAR 006A
ENCODING 106
SWIDTH 510 0
DWIDTH 17 0
BBX 11 28 2 -5
BITMAP
01C0
03E0
03E0
03E0
01C0
0000
0000
7FE0
7FE0
7FE0
01E0
01E0
01E0
01E0
01E0
01E0
01E0
01E0
01E0
01E0
01E0
01E0
01E0
01E0
43E0
FFC0
FFC0
3F00
ENDCHAR
STARTCHAR 006B
ENCODING 107
SWIDTH 510 0
DWIDTH 17 0
BBX 14 23 2 0
BITMAP
F000
F000
F000
F000
F000
F000
F000
F0F8
F0F0
F1E0
F3E0
F3C0
F780
FF00
FF00
FF80
F7C0
F3E0
F1E0
F1F0
F0F8
F078
F07C
ENDCHAR
STARTCHAR 006C
ENCODING 108
SWIDTH 510 0
DWIDTH 17 0
BBX 14 23 1 0
BITMAP
FF80
FF80
FF80
0F80
0F80
0F80
0F80
0F80
0F80
0F80
0F80
0F80
0F80
0F80
0F80
0F80
0F80
0780
0780
0784
07FC
03FC
01F8
ENDCHAR
STARTCHAR 006D
ENCODING 109
SWIDTH 510 0
DWIDTH 17 0
BBX 15 16 1 0
BITMAP
7EF8
FFFC
FFFC
E79C
E79C
E39E
E39E
E39E
E39E
E39E
E01E
E01E
E01E
E01E
E01E
E01E
ENDCHAR
STARTCHAR 006E
ENCODING 110
SWIDTH 510 0
DWIDTH 17 0
BBX 13 16 2 0
BITMAP
3F80
FFE0
FFF0
F0F0
F0F0
F0F0
F0F8
F0F8
F0F8
F0F8
F0F8
F0F8
F0F8
F0F8
F0F8
F0F8
ENDCHAR
STARTCHAR 006F
ENCODING 111
SWIDTH 510 0
DWIDTH 17 0
BBX 15 16 1 0
BITMAP
07C0
1FF0
3FF8
7C7C
783C
F03C
F03C
F03E
F03E
F03C
F03C
783C
7C78
3FF8
1FF0
07C0
ENDCHAR
STARTCHAR 0070
ENCODING 112
SWIDTH 510 0
DWIDTH 17 0
BBX 13 21 2 -5
BITMAP
7F80
FFE0
FFF0
F0F0
F078
F078
F078
F078
F078
F078
F078
F078
F0F8
FFF0
FFE0
F7C0
F000
F000
F000
F000
F000
ENDCHAR
STARTCHAR 0071
ENCODING 113
SWIDTH 510 0
DWIDTH 17 0
BBX 13 21 1 -5
BITMAP
07F0
1FF8
3FF8
7C78
7878
F878
F078
F078
F078
F078
F078
F878
7C78
7FF8
3FF8
0F78
0078
0078
0078
0078
0078
ENDCHAR
STARTCHAR 0072
ENCODING 114
SWIDTH 510 0
DWIDTH 17 0
BBX 12 16 3 0
BITMAP
1FF0
FFF0
FFF0
F000
F000
F000
F000
F000
F000
F000
F000
F000
F000
F000
F000
F000
ENDCHAR
STARTCHAR 0073
ENCODING 115
SWIDTH 510 0
DWIDTH 17 0
BBX 13 16 2 0
BITMAP
1FE0
3FF0
7FF0
F820
F000
F800
FF00
7FC0
3FE0
07F0
00F8
0078
E0F0
FFF0
FFE0
3F80
ENDCHAR
STARTCHAR 0074
ENCODING 116
SWIDTH 510 0
DWIDTH 17 0
BBX 14 21 1 0
BITMAP
0300
0F00
0F00
0F00
0F00
FFFC
FFFC
FFFC
0F00
0F00
0F00
0F00
0F00
0F00
0F00
0F00
0F00
0F04
0FFC
07FC
03FC
ENDCHAR
STARTCHAR 0075
ENCODING 117
SWIDTH 510 0
DWIDTH 17 0
BBX 12 16 2 0
BITMAP
F0F0
F0F0
F0F0
F0F0
F0F0
F0F0
F0F0
F0F0
F0F0
F0F0
F0F0
F0F0
F8F0
7FF0
3FF0
1FE0
ENDCHAR
STARTCHAR 0076
ENCODING 118
SWIDTH 510 0
DWIDTH 17 0
BBX 15 16 1 0
BITMAP
F01E
F03E
F03C
783C
787C
7878
3C78
3CF8
3CF0
1EF0
1FE0
1FE0
0FC0
0FC0
07C0
0780
ENDCHAR
STARTCHAR 0077
ENCODING 119
SWIDTH 510 0
DWIDTH 17 0
BBX 16 16 0 0
BITMAP
F007
F007
7007
71C7
73CF
73CF
73EE
73EE
73EE
77EE
3F7E
3E7E
3E7C
3E3C
3C3C
1C3C
ENDCHAR
STARTCHAR 0078
ENCODING 120
SWIDTH 510 0
DWIDTH 17 0
BBX 15 16 1 0
BITMAP
F03C
783C
7C78
3CF0
1EF0
0FE0
0FC0
07C0
07C0
0FE0
1FF0
3EF0
3C78
787C
F83C
F03E
ENDCHAR
STARTCHAR 0079
ENCODING 121
SWIDTH 510 0
DWIDTH 17 0
BBX 14 21 1 -5
BITMAP
F83C
783C
783C
783C
7C78
3C78
3C78
3E70
1EF0
1EF0
0FE0
0FE0
0FE0
07C0
07C0
0380
0780
8F80
FF00
FE00
FC00
ENDCHAR
STARTCHAR 007A
ENCODING 122
SWIDTH 510 0
DWIDTH 17 0
BBX 12 16 2 0
BITMAP
7FF0
7FF0
7FF0
01F0
03E0
07C0
0780
0F80
1F00
1E00
3E00
7C00
7800
FFF0
FFF0
FFF0
ENDCHAR
STARTCHAR 007B
ENCODING 123
SWIDTH 510 0
DWIDTH 17 0
BBX 12 28 2 -5
BITMAP
03F0
07F0
0FF0
0F00
0F00
0F00
0F00
0F00
0F00
0F00
0E00
0E00
1E00
FC00
F000
FC00
1E00
0E00
0E00
0F00
0F00
0F00
0F00
0F00
0F00
0FF0
07F0
03F0
ENDCHAR
STARTCHAR 007C
ENCODING 124
SWIDTH 510 0
DWIDTH 17 0
BBX 4 28 6 -5
BITMAP
F0
F0
F0
F0
F0
F0
F0
F0
F0
F0
F0
F0
F0
F0
F0
F0
F0
F0
F0
F0
F0
F0
F0
F0
F0
F0
F0
F0
ENDCHAR
STARTCHAR 007D
ENCODING 125
SWIDTH 510 0
DWIDTH 17 0
BBX 12 28 2 -5
BITMAP
FC00
FF00
FF00
0F80
0780
0780
0780
0780
0780
0780
0780
0780
0780
03F0
00F0
03F0
0780
0780
0780
0780
0780
0780
0780
0780
0F80
FF00
FF00
FC00
ENDCHAR
STARTCHAR 007E
ENCODING 126
SWIDTH 510 0
DWIDTH 17 0
BBX 15 6 1 6
BITMAP
3C0C
7F9E
7FFE
FFFC
E3FC
60F0
ENDCHAR
STARTCHAR 00A0
ENCODING 160
SWIDTH 510 0
DWIDTH 17 0
BBX 0 0 0 0
BITMAP
ENDCHAR
STARTCHAR 00A1
ENCODING 161
SWIDTH 510 0
DWIDTH 17 0
BBX 5 20 6 -5
BITMAP
70
F8
F8
F8
70
00
00
F0
F0
F0
F0
F0
F8
F8
F8
F8
F8
F8
F8
F8
ENDCHAR
STARTCHAR 00A2
ENCODING 162
SWIDTH 510 0
DWIDTH 17 0
BBX 13 23 2 -3
BITMAP
03C0
03C0
03C0
03C0
0FF8
3FF8
7FF0
FC10
F000
F000
F000
F000
F000
F000
F800
FC00
7FF8
3FF8
0FF8
03C0
03C0
03C0
03C0
ENDCHAR
STARTCHAR 00A3
ENCODING 163
SWIDTH 510 0
DWIDTH 17 0
BBX 14 20 1 0
BITMAP
03F8
07FC
0FF8
1F08
1E00
1E00
1E00
1E00
1E00
FFF0
FFF0
FFF0
1E00
1E00
1E00
1E00
3C00
3FFC
3FFC
3FFC
ENDCHAR
STARTCHAR 00A4
ENCODING 164
SWIDTH 510 0
DWIDTH 17 0
BBX 15 15 1 2
BITMAP
2008
701C
FFFE
FFFC
7FF8
7C78
7838
7838
7838
7C78
7FF8
FFFC
FFFE
701C
2008
ENDCHAR
STARTCHAR 00A5
ENCODING 165
SWIDTH 510 0
DWIDTH 17 0
BBX 15 20 1 0
BITMAP
F01E
F03C
F83C
783C
3878
3C78
1CF0
1EF0
0FE0
7FFC
7FFC
7FFC
0780
0780
7FFC
7FFC
7FFC
0780
0780
0780
ENDCHAR
STARTCHAR 00A6
ENCODING 166
SWIDTH 510 0
DWIDTH 17 0
BBX 4 28 6 -5
BITMAP
F0
F0
F0
F0
F0
F0
F0
F0
F0
F0
F0
F0
00
00
00
00
F0
F0
F0
F0
F0
F0
F0
F0
F0
F0
F0
F0
ENDCHAR
STARTCHAR 00A7
ENCODING 167
SWIDTH 510 0
DWIDTH 17 0
BBX 13 23 2 -3
BITMAP
0FE0
3FF0
7FF0
7830
7800
7C00
7F80
3FE0
7FF0
F3F0
F0F8
E078
F078
FCF0
7FE0
3FE0
0FF0
01F0
00F0
C0F0
FFF0
FFE0
3FC0
ENDCHAR
STARTCHAR 00A8
ENCODING 168
SWIDTH 510 0
DWIDTH 17 0
BBX 11 4 3 19
BITMAP
F1C0
F3E0
F3E0
F1C0
ENDCHAR
STARTCHAR 00A9
ENCODING 169
SWIDTH 510 0
DWIDTH 17 0
BBX 15 16 1 0
BITMAP
0FC0
1FF0
3878
701C
E3CC
CF8C
CC0E
CC0E
CC0E
CC0E
CF8C
E7CC
701C
3878
1FF0
0FC0
ENDCHAR
STARTCHAR 00AA
ENCODING 170
SWIDTH 510 0
DWIDTH 17 0
BBX 10 11 3 9
BITMAP
3F00
3FC0
3FC0
01C0
3FC0
7FC0
F1C0
F1C0
7FC0
7FC0
3FC0
ENDCHAR
STARTCHAR 00AB
ENCODING 171
SWIDTH 510 0
DWIDTH 17 0
BBX 13 14 2 2
BITMAP
0830
1C38
1C70
38F0
78E0
71E0
E1C0
E1C0
71E0
78E0
3870
1C70
1C38
0830
ENDCHAR
STARTCHAR 00AC
ENCODING 172
SWIDTH 510 0
DWIDTH 17 0
BBX 14 10 1 2
BITMAP
FFFC
FFFC
FFFC
003C
003C
003C
003C
003C
003C
003C
ENDCHAR
STARTCHAR 00AD
ENCODING 173
SWIDTH 510 0
DWIDTH 17 0
BBX 9 4 4 6
BITMAP
FF80
FF80
FF80
FF80
ENDCHAR
STARTCHAR 00AE
ENCODING 174
SWIDTH 510 0
DWIDTH 17 0
BBX 15 16 1 0
BITMAP
0FC0
1FF0
3878
701C
EF8C
CFCC
CCCE
CCCE
CFCE
CF8E
CCCC
EC4C
701C
3878
1FF0
0FC0
ENDCHAR
STARTCHAR 00AF
ENCODING 175
SWIDTH 510 0
DWIDTH 17 0
BBX 9 3 4 18
BITMAP
FF80
FF80
FF80
ENDCHAR
STARTCHAR 00B0
ENCODING 176
SWIDTH 510 0
DWIDTH 17 0
BBX 9 10 4 13
BITMAP
3E00
7F00
FF80
E380
E380
E380
E380
FF80
7F00
3E00
ENDCHAR
STARTCHAR 00B1
ENCODING 177
SWIDTH 510 0
DWIDTH 17 0
BBX 14 17 1 0
BITMAP
0780
0780
0780
0780
0780
FFFC
FFFC
FFFC
0780
0780
0780
0780
0780
0000
FFFC
FFFC
FFFC
ENDCHAR
STARTCHAR 00B2
ENCODING 178
SWIDTH 510 0
DWIDTH 17 0
BBX 9 12 4 9
BITMAP
3E00
FF00
FF00
4700
0700
0F00
1E00
3C00
7800
7F80
FF80
FF80
ENDCHAR
STARTCHAR 00B3
ENCODING 179
SWIDTH 510 0
DWIDTH 17 0
BBX 9 13 4 8
BITMAP
3E00
FF00
FF00
4700
0700
3E00
3F00
3F00
0780
8780
FF00
FF00
7C00
ENDCHAR
STARTCHAR 00B4
ENCODING 180
SWIDTH 510 0
DWIDTH 17 0
BBX 7 6 5 17
BITMAP
04
1C
3E
FE
78
60
ENDCHAR
STARTCHAR 00B5
ENCODING 181
SWIDTH 510 0
DWIDTH 17 0
BBX 12 21 2 -5
BITMAP
F0F0
F0F0
F0F0
F0F0
F0F0
F0F0
F0F0
F0F0
F0F0
F0F0
F0F0
F0F0
F8F0
FFF0
FFF0
FFE0
F000
F000
F000
F000
F000
ENDCHAR
STARTCHAR 00B6
ENCODING 182
SWIDTH 510 0
DWIDTH 17 0
BBX 14 25 1 -5
BITMAP
0FF8
3FFC
7FFC
FF1C
FF1C
FF1C
FF1C
FF1C
FF1C
FF1C
7F1C
1F1C
071C
071C
071C
071C
071C
071C
071C
071C
071C
071C
071C
071C
071C
ENDCHAR
STARTCHAR 00B7
ENCODING 183
SWIDTH 510 0
DWIDTH 17 0
BBX 6 6 5 6
BITMAP
38
7C
FC
FC
7C
38
ENDCHAR
STARTCHAR 00B8
ENCODING 184
SWIDTH 510 0
DWIDTH 17 0
BBX 7 5 5 -5
BITMAP
18
3C
0E
7E
FC
ENDCHAR
STARTCHAR 00B9
ENCODING 185
SWIDTH 510 0
DWIDTH 17 0
BBX 10 12 4 8
BITMAP
0E00
3E00
FE00
7E00
4E00
0E00
0E00
0E00
0E00
7FC0
7FC0
7FC0
ENDCHAR
STARTCHAR 00BA
ENCODING 186
SWIDTH 510 0
DWIDTH 17 0
BBX 12 12 2 9
BITMAP
0F80
3FC0
7FE0
78F0
70F0
F070
F070
70F0
78F0
7FE0
3FC0
0F80
ENDCHAR
STARTCHAR 00BB
ENCODING 187
SWIDTH 510 0
DWIDTH 17 0
BBX 13 14 2 2
BITMAP
4080
E380
E1C0
71E0
78E0
3870
3C78
3C78
3870
78E0
71E0
E1C0
E380
4080
ENDCHAR
STARTCHAR 00BC
ENCODING 188
SWIDTH 510 0
DWIDTH 17 0
BBX 16 20 0 0
BITMAP
1C1E
7C1C
FC38
5C38
1C70
1C70
1CE0
1CE0
01C0
01C0
0380
0780
071E
0F1E
0E3E
1E7E
1C6E
3CFF
38FF
780E
ENDCHAR
STARTCHAR 00BD
ENCODING 189
SWIDTH 510 0
DWIDTH 17 0
BBX 16 20 0 0
BITMAP
1C1E
7C1C
FC38
DC38
1C70
1C70
1CE0
1CE0
01C0
01C0
0380
07BE
077F
0F27
0E07
1E0F
1C1E
3C38
387F
787F
ENDCHAR
STARTCHAR 00BE
ENCODING 190
SWIDTH 510 0
DWIDTH 17 0
BBX 15 20 1 0
BITMAP
F81C
FC3C
9C38
7C78
7C70
0EF0
FEE0
FDC0
01C0
0380
0380
0700
073C
0E3C
1E7C
1CFC
3CDC
39FE
79FE
701C
ENDCHAR
STARTCHAR 00BF
ENCODING 191
SWIDTH 510 0
DWIDTH 17 0
BBX 12 21 2 -5
BITMAP
0780
0FC0
0FC0
0FC0
0780
0000
0000
0780
0780
0F80
1F00
3F00
7E00
7C00
F800
F800
F800
7820
7FF0
3FF0
0FC0
ENDCHAR
STARTCHAR 00C0
ENCODING 192
SWIDTH 510 0
DWIDTH 17 0
BBX 16 28 0 0
BITMAP
0200
0380
07C0
07E0
01E0
0060
0000
0000
03E0
03E0
07E0
07F0
07F0
0F70
0E78
0E78
1E78
1E38
1E3C
1C3C
3FFC
3FFE
3FFE
781E
781E
781F
780F
F80F
ENDCHAR
STARTCHAR 00C1
ENCODING 193
SWIDTH 510 0
DWIDTH 17 0
BBX 16 28 0 0
BITMAP
0040
00E0
03E0
07E0
0780
0200
0000
0000
03E0
03E0
07E0
07F0
07F0
0F70
0E78
0E78
1E78
1E38
1E3C
1C3C
3FFC
3FFE
3FFE
781E
781E
781F
780F
F80F
ENDCHAR
STARTCHAR 00C2
ENCODING 194
SWIDTH 510 0
DWIDTH 17 0
BBX 16 28 0 0
BITMAP
0080
01C0
07E0
0F70
0E38
0410
0000
0000
03E0
03E0
07E0
07F0
07F0
0F70
0E78
0E78
1E78
1E38
1E3C
1C3C
3FFC
3FFE
3FFE
781E
781E
781F
780F
F80F
ENDCHAR
STARTCHAR 00C3
ENCODING 195
SWIDTH 510 0
DWIDTH 17 0
BBX 16 27 0 0
BITMAP
0718
0FF8
1FF8
08F0
0000
0000
0000
03E0
03E0
07E0
07F0
07F0
0F70
0E78
0E78
1E78
1E38
1E3C
1C3C
3FFC
3FFE
3FFE
781E
781E
781F
780F
F80F
ENDCHAR
STARTCHAR 00C4
ENCODING 196
SWIDTH 510 0
DWIDTH 17 0
BBX 16 28 0 0
BITMAP
1E38
1E7C
1E7C
1E38
0000
0000
0000
0000
03E0
03E0
07E0
07F0
07F0
0F70
0E78
0E78
1E78
1E38
1E3C
1C3C
3FFC
3FFE
3FFE
781E
781E
781F
780F
F80F
ENDCHAR
STARTCHAR 00C5
ENCODING 197
SWIDTH 510 0
DWIDTH 17 0
BBX 16 26 0 0
BITMAP
03C0
07E0
0670
0630
0670
07E0
03E0
07E0
07E0
07F0
07F0
0F70
0F78
0E78
1E78
1E3C
1E3C
3C3C
3FFC
3FFE
3FFE
781E
781E
781F
780F
F80F
ENDCHAR
STARTCHAR 00C6
ENCODING 198
SWIDTH 510 0
DWIDTH 17 0
BBX 16 20 0 0
BITMAP
03FF
03FF
03FF
07F0
07F0
07F0
0EF0
0EF0
0EFE
1EFE
1CFE
1CF0
3FF0
3FF0
3FF0
78F0
78F0
78FF
78FF
F8FF
ENDCHAR
STARTCHAR 00C7
ENCODING 199
SWIDTH 510 0
DWIDTH 17 0
BBX 14 26 1 -6
BITMAP
03F8
0FFC
1FFC
3E0C
7C00
7800
F000
F000
F000
F000
F000
F000
F000
F000
F800
7800
7E0C
3FFC
1FFC
07F8
0380
03C0
00E0
00E0
0FC0
0F80
ENDCHAR
STARTCHAR 00C8
ENCODING 200
SWIDTH 510 0
DWIDTH 17 0
BBX 13 28 2 0
BITMAP
0800
0E00
1F00
1F80
0780
0180
0000
0000
FFF0
FFF0
FFF0
F000
F000
F000
F000
F000
FFE0
FFE0
FFE0
F000
F000
F000
F000
F000
F000
FFF8
FFF8
FFF8
ENDCHAR
STARTCHAR 00C9
ENCODING 201
SWIDTH 510 0
DWIDTH 17 0
BBX 13 28 2 0
BITMAP
0100
0380
0F80
1F80
1E00
0800
0000
0000
FFF0
FFF0
FFF0
F000
F000
F000
F000
F000
FFE0
FFE0
FFE0
F000
F000
F000
F000
F000
F000
FFF8
FFF8
FFF8
ENDCHAR
STARTCHAR 00CA
ENCODING 202
SWIDTH 510 0
DWIDTH 17 0
BBX 13 28 2 0
BITMAP
0200
0700
1F80
3DC0
38E0
1040
0000
0000
FFF0
FFF0
FFF0
F000
F000
F000
F000
F000
FFE0
FFE0
FFE0
F000
F000
F000
F000
F000
F000
FFF8
FFF8
FFF8
ENDCHAR
STARTCHAR 00CB
ENCODING 203
SWIDTH 510 0
DWIDTH 17 0
BBX 13 28 2 0
BITMAP
78E0
79F0
79F0
78E0
0000
0000
0000
0000
FFF0
FFF0
FFF0
F000
F000
F000
F000
F000
FFE0
FFE0
FFE0
F000
F000
F000
F000
F000
F000
FFF8
FFF8
FFF8
ENDCHAR
STARTCHAR 00CC
ENCODING 204
SWIDTH 510 0
DWIDTH 17 0
BBX 13 28 2 0
BITMAP
0800
0E00
1F00
1F80
0780
0180
0000
0000
FFF8
FFF8
FFF8
0F00
0F00
0F00
0F00
0F00
0F00
0F00
0F00
0F00
0F00
0F00
0F00
0F00
0F00
FFF8
FFF8
FFF8
ENDCHAR
STARTCHAR 00CD
ENCODING 205
SWIDTH 510 0
DWIDTH 17 0
BBX 13 28 2 0
BITMAP
0100
0380
0F80
1F80
1E00
0800
0000
0000
FFF8
FFF8
FFF8
0F00
0F00
0F00
0F00
0F00
0F00
0F00
0F00
0F00
0F00
0F00
0F00
0F00
0F00
FFF8
FFF8
FFF8
ENDCHAR
STARTCHAR 00CE
ENCODING 206
SWIDTH 510 0
DWIDTH 17 0
BBX 13 28 2 0
BITMAP
0200
0700
1F80
3DC0
38E0
1040
0000
0000
FFF8
FFF8
FFF8
0F00
0F00
0F00
0F00
0F00
0F00
0F00
0F00
0F00
0F00
0F00
0F00
0F00
0F00
FFF8
FFF8
FFF8
ENDCHAR
STARTCHAR 00CF
ENCODING 207
SWIDTH 510 0
DWIDTH 17 0
BBX 13 28 2 0
BITMAP
78E0
79F0
79F0
78E0
0000
0000
0000
0000
FFF8
FFF8
FFF8
0F00
0F00
0F00
0F00
0F00
0F00
0F00
0F00
0F00
0F00
0F00
0F00
0F00
0F00
FFF8
FFF8
FFF8
ENDCHAR
STARTCHAR 00D0
ENCODING 208
SWIDTH 510 0
DWIDTH 17 0
BBX 15 20 1 0
BITMAP
7F80
7FE0
7FF0
78F8
787C
783C
783C
783C
FF3E
FF3E
FF3E
783E
783C
783C
783C
787C
78F8
7FF0
7FE0
7F80
ENDCHAR
STARTCHAR 00D1
ENCODING 209
SWIDTH 510 0
DWIDTH 17 0
BBX 13 27 2 0
BITMAP
1C60
3FE0
7FE0
23C0
0000
0000
0000
E078
F078
F078
F878
F878
FC78
FC78
EE78
EE78
E778
E778
E3F8
E3F8
E1F8
E1F8
E0F8
E0F8
E078
E078
E078
ENDCHAR
STARTCHAR 00D2
ENCODING 210
SWIDTH 510 0
DWIDTH 17 0
BBX 15 28 1 0
BITMAP
0400
0700
0F80
0FC0
03C0
00C0
0000
0000
0FC0
1FF0
3FF8
7C78
783C
F83C
F03C
F03C
F03E
F03E
F03E
F03E
F03C
F03C
F83C
783C
7C78
3FF8
1FF0
07C0
ENDCHAR
STARTCHAR 00D3
ENCODING 211
SWIDTH 510 0
DWIDTH 17 0
BBX 15 28 1 0
BITMAP
0080
01C0
07C0
0FC0
0F00
0400
0000
0000
0FC0
1FF0
3FF8
7C78
783C
F83C
F03C
F03C
F03E
F03E
F03E
F03E
F03C
F03C
F83C
783C
7C78
3FF8
1FF0
07C0
ENDCHAR
STARTCHAR 00D4
ENCODING 212
SWIDTH 510 0
DWIDTH 17 0
BBX 15 28 1 0
BITMAP
0100
0380
0FC0
1EE0
1C70
0820
0000
0000
0FC0
1FF0
3FF8
7C78
783C
F83C
F03C
F03C
F03E
F03E
F03E
F03E
F03C
F03C
F83C
783C
7C78
3FF8
1FF0
07C0
ENDCHAR
STARTCHAR 00D5
ENCODING 213
SWIDTH 510 0
DWIDTH 17 0
BBX 15 27 1 0
BITMAP
0E30
1FF0
3FF0
11E0
0000
0000
0000
0FC0
1FF0
3FF8
7C78
783C
F83C
F03C
F03C
F03E
F03E
F03E
F03E
F03C
F03C
F83C
783C
7C78
3FF8
1FF0
07C0
ENDCHAR
STARTCHAR 00D6
ENCODING 214
SWIDTH 510 0
DWIDTH 17 0
BBX 15 28 1 0
BITMAP
3C70
3CF8
3CF8
3C70
0000
0000
0000
0000
0FC0
1FF0
3FF8
7C78
783C
F83C
F03C
F03C
F03E
F03E
F03E
F03E
F03C
F03C
F83C
783C
7C78
3FF8
1FF0
07C0
ENDCHAR
STARTCHAR 00D7
ENCODING 215
SWIDTH 510 0
DWIDTH 17 0
BBX 13 13 2 2
BITMAP
2020
7070
F8F8
7DF0
3FE0
1FC0
0F80
1FC0
3FE0
79F0
F0F8
6070
0020
ENDCHAR
STARTCHAR 00D8
ENCODING 216
SWIDTH 510 0
DWIDTH 17 0
BBX 15 23 1 -1
BITMAP
0010
0018
07F8
1FF8
3FF8
7CF8
78FC
F8FC
F1FC
F1FC
F3FE
F3BE
F7BE
F73E
FF3C
FE3C
FE3C
7C3C
7C78
3FF8
7FF0
7FC0
2000
ENDCHAR
STARTCHAR 00D9
ENCODING 217
SWIDTH 510 0
DWIDTH 17 0
BBX 14 28 1 0
BITMAP
0400
0E00
0F80
0FC0
03C0
0080
0000
0000
F03C
F03C
F03C
F03C
F03C
F03C
F03C
F03C
F03C
F03C
F03C
F03C
F03C
F03C
F03C
783C
787C
7FF8
3FF0
0FE0
ENDCHAR
STARTCHAR 00DA
ENCODING 218
SWIDTH 510 0
DWIDTH 17 0
BBX 14 28 1 0
BITMAP
0040
01C0
03E0
0FE0
0780
0600
0000
0000
F03C
F03C
F03C
F03C
F03C
F03C
F03C
F03C
F03C
F03C
F03C
F03C
F03C
F03C
F03C
783C
787C
7FF8
3FF0
0FE0
ENDCHAR
STARTCHAR 00DB
ENCODING 219
SWIDTH 510 0
DWIDTH 17 0
BBX 14 28 1 0
BITMAP
0100
0380
0FC0
1EE0
1C70
0820
0000
0000
F03C
F03C
F03C
F03C
F03C
F03C
F03C
F03C
F03C
F03C
F03C
F03C
F03C
F03C
F03C
783C
787C
7FF8
3FF0
0FE0
ENDCHAR
STARTCHAR 00DC
ENCODING 220
SWIDTH 510 0
DWIDTH 17 0
BBX 14 28 1 0
BITMAP
3C70
3CF8
3CF8
3C70
0000
0000
0000
0000
F03C
F03C
F03C
F03C
F03C
F03C
F03C
F03C
F03C
F03C
F03C
F03C
F03C
F03C
F03C
783C
787C
7FF8
3FF0
0FE0
ENDCHAR
STARTCHAR 00DD
ENCODING 221
SWIDTH 510 0
DWIDTH 17 0
BBX 15 28 1 0
BITMAP
0040
01C0
03E0
0FE0
0780
0600
0000
0000
F01E
F03E
F83C
783C
7878
3C78
3C70
1EF0
1EE0
0FE0
0FC0
07C0
0780
0780
0780
0780
0780
0780
0780
0780
ENDCHAR
STARTCHAR 00DE
ENCODING 222
SWIDTH 510 0
DWIDTH 17 0
BBX 14 20 2 0
BITMAP
F000
F000
F000
FF80
FFE0
FFF0
F0F8
F078
F07C
F07C
F07C
F078
F0F8
FFF0
FFE0
FF80
F000
F000
F000
F000
ENDCHAR
STARTCHAR 00DF
ENCODING 223
SWIDTH 510 0
DWIDTH 17 0
BBX 15 23 1 0
BITMAP
0FC0
3FE0
7FF0
78F0
F070
F070
F0F0
F0F0
F1E0
F1E0
F3C0
F3C0
F3E0
F1F0
F1FC
F0FE
F03E
F01E
F01E
F21E
F3FE
F3FC
F3F8
ENDCHAR
STARTCHAR 00E0
ENCODING 224
SWIDTH 510 0
DWIDTH 17 0
BBX 14 23 1 0
BITMAP
0400
0F00
0F80
0FC0
03C0
00C0
0000
3FC0
3FF0
3FF8
2078
0078
003C
0FFC
3FFC
7FFC
783C
F03C
F03C
783C
7FFC
3FFC
0FF0
ENDCHAR
STARTCHAR 00E1
ENCODING 225
SWIDTH 510 0
DWIDTH 17 0
BBX 14 23 1 0
BITMAP
0040
01C0
03E0
0FE0
0780
0600
0000
3FC0
3FF0
3FF8
2078
0078
003C
0FFC
3FFC
7FFC
783C
F03C
F03C
783C
7FFC
3FFC
0FF0
ENDCHAR
STARTCHAR 00E2
ENCODING 226
SWIDTH 510 0
DWIDTH 17 0
BBX 14 23 1 0
BITMAP
0100
0380
0FC0
1EE0
1C70
0820
0000
3FC0
3FF0
3FF8
2078
0078
003C
0FFC
3FFC
7FFC
783C
F03C
F03C
783C
7FFC
3FFC
0FF0
ENDCHAR
STARTCHAR 00E3
ENCODING 227
SWIDTH 510 0
DWIDTH 17 0
BBX 14 22 1 0
BITMAP
0E30
1FF8
3FF0
11E0
0000
0000
3FC0
3FF0
3FF8
2078
0078
003C
0FFC
3FFC
7FFC
783C
F03C
F03C
783C
7FFC
3FFC
0FF0
ENDCHAR
STARTCHAR 00E4
ENCODING 228
SWIDTH 510 0
DWIDTH 17 0
BBX 14 23 1 0
BITMAP
3C70
3CF8
3CF8
3C70
0000
0000
0000
3FC0
3FF0
3FF8
2078
0078
003C
0FFC
3FFC
7FFC
783C
F03C
F03C
783C
7FFC
3FFC
0FF0
ENDCHAR
STARTCHAR 00E5
ENCODING 229
SWIDTH 510 0
DWIDTH 17 0
BBX 14 24 1 0
BITMAP
0780
0FC0
0CE0
0C60
0CE0
0FC0
0780
0000
3FC0
3FF0
3FF8
2078
0078
003C
0FFC
3FFC
7FFC
783C
F03C
F03C
783C
7FFC
3FFC
0FF0
ENDCHAR
STARTCHAR 00E6
ENCODING 230
SWIDTH 510 0
DWIDTH 17 0
BBX 15 16 1 0
BITMAP
3C78
7FFC
7FFC
47DE
038E
038E
3F8E
7FFE
FFFE
E380
E380
E3C0
E3C0
FFFC
7FFC
3E7C
ENDCHAR
STARTCHAR 00E7
ENCODING 231
SWIDTH 510 0
DWIDTH 17 0
BBX 14 22 1 -6
BITMAP
03F8
0FFC
3FFC
3E08
7C00
7800
7800
F800
F800
7800
7800
7C00
7E04
3FFC
1FFC
07FC
0380
03C0
00E0
00E0
07C0
0F80
ENDCHAR
STARTCHAR 00E8
ENCODING 232
SWIDTH 510 0
DWIDTH 17 0
BBX 14 23 1 0
BITMAP
0400
0F00
0F80
0FC0
03C0
00C0
0000
07C0
1FF0
3FF8
7C78
783C
F83C
F03C
FFFC
FFFC
FFFC
F000
7800
7C08
3FF8
1FF8
07F0
ENDCHAR
STARTCHAR 00E9
ENCODING 233
SWIDTH 510 0
DWIDTH 17 0
BBX 14 23 1 0
BITMAP
0040
01C0
03E0
07E0
0780
0600
0000
07C0
1FF0
3FF8
7C78
783C
F83C
F03C
FFFC
FFFC
FFFC
F000
7800
7C08
3FF8
1FF8
07F0
ENDCHAR
STARTCHAR 00EA
ENCODING 234
SWIDTH 510 0
DWIDTH 17 0
BBX 14 23 1 0
BITMAP
0100
0380
07C0
1EE0
1C70
0820
0000
07C0
1FF0
3FF8
7C78
783C
F83C
F03C
FFFC
FFFC
FFFC
F000
7800
7C08
3FF8
1FF8
07F0
ENDCHAR
STARTCHAR 00EB
ENCODING 235
SWIDTH 510 0
DWIDTH 17 0
BBX 14 23 1 0
BITMAP
3C70
3CF8
3CF8
3C70
0000
0000
0000
07C0
1FF0
3FF8
7C78
783C
F83C
F03C
FFFC
FFFC
FFFC
F000
7800
7C08
3FF8
1FF8
07F0
ENDCHAR
STARTCHAR 00EC
ENCODING 236
SWIDTH 510 0
DWIDTH 17 0
BBX 14 23 1 0
BITMAP
0400
0E00
1F00
1FC0
03C0
0080
0000
FF80
FF80
FF80
0F80
0F80
0F80
0F80
0F80
0F80
0F80
0780
0780
0784
07FC
03FC
01F8
ENDCHAR
STARTCHAR 00ED
ENCODING 237
SWIDTH 510 0
DWIDTH 17 0
BBX 14 23 1 0
BITMAP
0080
01C0
07C0
0FC0
0F00
0400
0000
FF80
FF80
FF80
0F80
0F80
0F80
0F80
0F80
0F80
0F80
0780
0780
0784
07FC
03FC
01F8
ENDCHAR
STARTCHAR 00EE
ENCODING 238
SWIDTH 510 0
DWIDTH 17 0
BBX 14 23 1 0
BITMAP
0200
0700
0FC0
1DE0
18E0
1040
0000
FF80
FF80
FF80
0F80
0F80
0F80
0F80
0F80
0F80
0F80
0780
0780
0784
07FC
03FC
01F8
ENDCHAR
STARTCHAR 00EF
ENCODING 239
SWIDTH 510 0
DWIDTH 17 0
BBX 14 23 1 0
BITMAP
38F0
7CF0
7CF0
38F0
0000
0000
0000
FF80
FF80
FF80
0F80
0F80
0F80
0F80
0F80
0F80
0F80
0780
0780
0784
07FC
03FC
01F8
ENDCHAR
STARTCHAR 00F0
ENCODING 240
SWIDTH 510 0
DWIDTH 17 0
BBX 15 23 1 0
BITMAP
0100
0380
07C4
07FC
03FE
0FF8
07F0
07F8
0078
0278
1FFC
3FFC
7FFC
783C
F83C
F83C
F03C
F87C
7878
7CF8
3FF0
1FF0
0FC0
ENDCHAR
STARTCHAR 00F1
ENCODING 241
SWIDTH 510 0
DWIDTH 17 0
BBX 13 22 2 0
BITMAP
1C60
3FF0
7FE0
23C0
0000
0000
3F80
FFE0
FFF0
F0F0
F0F0
F0F0
F0F8
F0F8
F0F8
F0F8
F0F8
F0F8
F0F8
F0F8
F0F8
F0F8
ENDCHAR
STARTCHAR 00F2
ENCODING 242
SWIDTH 510 0
DWIDTH 17 0
BBX 15 23 1 0
BITMAP
0400
0F00
0F80
0FC0
03C0
00C0
0000
07C0
1FF0
3FF8
7C7C
783C
F03C
F03C
F03E
F03E
F03C
F03C
783C
7C78
3FF8
1FF0
07C0
ENDCHAR
STARTCHAR 00F3
ENCODING 243
SWIDTH 510 0
DWIDTH 17 0
BBX 15 23 1 0
BITMAP
0080
01C0
07E0
0FC0
0F00
0400
0000
07C0
1FF0
3FF8
7C7C
783C
F03C
F03C
F03E
F03E
F03C
F03C
783C
7C78
3FF8
1FF0
07C0
ENDCHAR
STARTCHAR 00F4
ENCODING 244
SWIDTH 510 0
DWIDTH 17 0
BBX 15 23 1 0
BITMAP
0100
0380
0FC0
1EE0
1C70
0820
0000
07C0
1FF0
3FF8
7C7C
783C
F03C
F03C
F03E
F03E
F03C
F03C
783C
7C78
3FF8
1FF0
07C0
ENDCHAR
STARTCHAR 00F5
ENCODING 245
SWIDTH 510 0
DWIDTH 17 0
BBX 15 22 1 0
BITMAP
0E30
1FF8
3FF0
11E0
0000
0000
07C0
1FF0
3FF8
7C7C
783C
F03C
F03C
F03E
F03E
F03C
F03C
783C
7C78
3FF8
1FF0
07C0
ENDCHAR
STARTCHAR 00F6
ENCODING 246
SWIDTH 510 0
DWIDTH 17 0
BBX 15 23 1 0
BITMAP
3C70
3CF8
3CF8
3C70
0000
0000
0000
07C0
1FF0
3FF8
7C7C
783C
F03C
F03C
F03E
F03E
F03C
F03C
783C
7C78
3FF8
1FF0
07C0
ENDCHAR
STARTCHAR 00F7
ENCODING 247
SWIDTH 510 0
DWIDTH 17 0
BBX 14 17 1 0
BITMAP
0380
0780
07C0
0780
0380
0000
0000
FFFC
FFFC
FFFC
0000
0000
0380
0780
07C0
0780
0380
ENDCHAR
STARTCHAR 00F8
ENCODING 248
SWIDTH 510 0
DWIDTH 17 0
BBX 15 17 1 -1
BITMAP
0008
07DC
1FFC
3FF8
7C78
78FC
F1FC
F3FC
F3FE
F7BE
FF3C
FE3C
7E3C
7C78
3FF8
7FF0
6FC0
ENDCHAR
STARTCHAR 00F9
ENCODING 249
SWIDTH 510 0
DWIDTH 17 0
BBX 12 23 2 0
BITMAP
0800
1E00
1F00
1F80
0780
0180
0000
F0F0
F0F0
F0F0
F0F0
F0F0
F0F0
F0F0
F0F0
F0F0
F0F0
F0F0
F0F0
F8F0
7FF0
3FF0
1FE0
ENDCHAR
STARTCHAR 00FA
ENCODING 250
SWIDTH 510 0
DWIDTH 17 0
BBX 12 23 2 0
BITMAP
0100
0380
0F80
1F80
1E00
0800
0000
F0F0
F0F0
F0F0
F0F0
F0F0
F0F0
F0F0
F0F0
F0F0
F0F0
F0F0
F0F0
F8F0
7FF0
3FF0
1FE0
ENDCHAR
STARTCHAR 00FB
ENCODING 251
SWIDTH 510 0
DWIDTH 17 0
BBX 12 23 2 0
BITMAP
0200
0700
1F80
3DC0
38E0
1040
0000
F0F0
F0F0
F0F0
F0F0
F0F0
F0F0
F0F0
F0F0
F0F0
F0F0
F0F0
F0F0
F8F0
7FF0
3FF0
1FE0
ENDCHAR
STARTCHAR 00FC
ENCODING 252
SWIDTH 510 0
DWIDTH 17 0
BBX 12 23 2 0
BITMAP
78E0
79F0
79F0
78E0
0000
0000
0000
F0F0
F0F0
F0F0
F0F0
F0F0
F0F0
F0F0
F0F0
F0F0
F0F0
F0F0
F0F0
F8F0
7FF0
3FF0
1FE0
ENDCHAR
STARTCHAR 00FD
ENCODING 253
SWIDTH 510 0
DWIDTH 17 0
BBX 14 28 1 -5
BITMAP
0080
01C0
07C0
0FC0
0F00
0400
0000
F83C
783C
783C
783C
7C78
3C78
3C78
3E70
1EF0
1EF0
0FE0
0FE0
0FE0
07C0
07C0
0380
0780
8F80
FF00
FE00
FC00
ENDCHAR
STARTCHAR 00FE
ENCODING 254
SWIDTH 510 0
DWIDTH 17 0
BBX 13 28 2 -5
BITMAP
F000
F000
F000
F000
F000
F000
F000
FF80
FFE0
FFF0
F0F0
F078
F078
F078
F078
F078
F078
F078
F078
F0F8
FFF0
FFE0
F7C0
F000
F000
F000
F000
F000
ENDCHAR
STARTCHAR 00FF
ENCODING 255
SWIDTH 510 0
DWIDTH 17 0
BBX 14 28 1 -5
BITMAP
3C70
3CF8
3CF8
3C70
0000
0000
0000
F83C
783C
783C
783C
7C78
3C78
3C78
3E70
1EF0
1EF0
0FE0
0FE0
0FE0
07C0
07C0
0380
0780
8F80
FF00
FE00
FC00
ENDCHAR
STARTCHAR 0100
ENCODING 256
SWIDTH 510 0
DWIDTH 17 0
BBX 16 26 0 0
BITMAP
0FF8
0FF8
0FF8
0000
0000
0000
03E0
03E0
07E0
07F0
07F0
0F70
0E78
0E78
1E78
1E38
1E3C
1C3C
3FFC
3FFE
3FFE
781E
781E
781F
780F
F80F
ENDCHAR
STARTCHAR 0101
ENCODING 257
SWIDTH 510 0
DWIDTH 17 0
BBX 14 21 1 0
BITMAP
1FF0
1FF0
1FF0
0000
0000
3FC0
3FF0
3FF8
2078
0078
003C
0FFC
3FFC
7FFC
783C
F03C
F03C
783C
7FFC
3FFC
0FF0
ENDCHAR
STARTCHAR 0102
ENCODING 258
SWIDTH 510 0
DWIDTH 17 0
BBX 16 27 0 0
BITMAP
1E38
0E38
0FF8
07F0
03E0
0000
0000
03E0
03E0
07E0
07F0
07F0
0F70
0E78
0E78
1E78
1E38
1E3C
1C3C
3FFC
3FFE
3FFE
781E
781E
781F
780F
F80F
ENDCHAR
STARTCHAR 0103
ENCODING 259
SWIDTH 510 0
DWIDTH 17 0
BBX 14 22 1 0
BITMAP
3C70
1C70
1FF0
0FE0
07C0
0000
3FC0
3FF0
3FF8
2078
0078
003C
0FFC
3FFC
7FFC
783C
F03C
F03C
783C
7FFC
3FFC
0FF0
ENDCHAR
STARTCHAR 0104
ENCODING 260
SWIDTH 510 0
DWIDTH 17 0
BBX 17 26 0 -6
BITMAP
03E000
03E000
07E000
07F000
07F000
0F7000
0E7800
0E7800
1E7800
1E3800
1E3C00
1C3C00
3FFC00
3FFE00
3FFE00
781E00
781E00
781F00
780F00
F80F00
000F00
001E00
001C00
001C00
001F80
000F80
ENDCHAR
STARTCHAR 0105
ENCODING 261
SWIDTH 510 0
DWIDTH 17 0
BBX 14 21 1 -5
BITMAP
3FC0
3FF0
3FF8
2078
0078
003C
0FFC
3FFC
7FFC
783C
F03C
F03C
783C
7FFC
3FFC
0FF8
0070
00E0
01E0
00F8
00F8
ENDCHAR
STARTCHAR 0106
ENCODING 262
SWIDTH 510 0
DWIDTH 17 0
BBX 14 28 1 0
BITMAP
0020
00E0
01F0
03F0
03C0
0300
0000
0000
03F8
0FFC
1FFC
3E0C
7C00
7800
F000
F000
F000
F000
F000
F000
F000
F000
7800
7800
7E0C
3FFC
1FFC
07F8
ENDCHAR
STARTCHAR 0107
ENCODING 263
SWIDTH 510 0
DWIDTH 17 0
BBX 14 23 1 0
BITMAP
0040
00E0
01F0
07E0
0780
0200
0000
03F8
0FFC
3FFC
3E00
7C00
7800
7800
F800
F800
7800
7800
7C00
3E04
3FFC
0FFC
03FC
ENDCHAR
STARTCHAR 0108
ENCODING 264
SWIDTH 510 0
DWIDTH 17 0
BBX 14 28 1 0
BITMAP
0040
01E0
03F0
07B8
0718
0210
0000
0000
03F8
0FFC
1FFC
3E0C
7C00
7800
F000
F000
F000
F000
F000
F000
F000
F000
7800
7800
7E0C
3FFC
1FFC
07F8
ENDCHAR
STARTCHAR 0109
ENCODING 265
SWIDTH 510 0
DWIDTH 17 0
BBX 14 23 1 0
BITMAP
0080
01E0
03F0
0778
0638
0410
0000
03F8
0FFC
3FFC
3E00
7C00
7800
7800
F800
F800
7800
7800
7C00
3E04
3FFC
0FFC
03FC
ENDCHAR
STARTCHAR 010A
ENCODING 266
SWIDTH 510 0
DWIDTH 17 0
BBX 14 27 1 0
BITMAP
00C0
01E0
01E0
01E0
00C0
0000
0000
03F8
0FFC
1FFC
3E0C
7C00
7800
F000
F000
F000
F000
F000
F000
F000
F000
7800
7800
7E0C
3FFC
1FFC
07F8
ENDCHAR
STARTCHAR 010B
ENCODING 267
SWIDTH 510 0
DWIDTH 17 0
BBX 14 22 1 0
BITMAP
00C0
01E0
01E0
01E0
00C0
0000
03F8
0FFC
3FFC
3E00
7C00
7800
7800
F800
F800
7800
7800
7C00
3E04
3FFC
0FFC
03FC
ENDCHAR
STARTCHAR 010C
ENCODING 268
SWIDTH 510 0
DWIDTH 17 0
BBX 14 28 1 0
BITMAP
0210
0738
07B8
03F0
01E0
00C0
0000
0000
03F8
0FFC
1FFC
3E0C
7C00
7800
F000
F000
F000
F000
F000
F000
F000
F000
7800
7800
7E0C
3FFC
1FFC
07F8
ENDCHAR
STARTCHAR 010D
ENCODING 269
SWIDTH 510 0
DWIDTH 17 0
BBX 14 23 1 0
BITMAP
0210
0738
07B8
03F0
01E0
00C0
0000
03F8
0FFC
3FFC
3E00
7C00
7800
7800
F800
F800
7800
7800
7C00
3E04
3FFC
0FFC
03FC
ENDCHAR
STARTCHAR 010E
ENCODING 270
SWIDTH 510 0
DWIDTH 17 0
BBX 14 28 2 0
BITMAP
2100
7180
7B80
3F00
1E00
0400
0000
0000
FF00
FFC0
FFE0
F1F0
F0F8
F078
F078
F078
F07C
F07C
F07C
F07C
F078
F078
F078
F0F8
F1F0
FFE0
FFC0
FF00
ENDCHAR
STARTCHAR 010F
ENCODING 271
SWIDTH 510 0
DWIDTH 17 0
BBX 17 23 0 0
BITMAP
00F780
00F780
00F780
00F780
00F780
00F700
00F700
1FF000
3FF000
3FF000
78F000
78F000
78F000
F8F000
F8F000
F8F000
F8F000
78F000
78F000
7CF000
3FF000
1FF000
0FE000
ENDCHAR
STARTCHAR 0110
ENCODING 272
SWIDTH 510 0
DWIDTH 17 0
BBX 15 20 1 0
BITMAP
7F80
7FE0
7FF0
78F8
787C
783C
783C
783C
FF3E
FF3E
FF3E
783E
783C
783C
783C
787C
78F8
7FF0
7FE0
7F80
ENDCHAR
STARTCHAR 0111
ENCODING 273
SWIDTH 510 0
DWIDTH 17 0
BBX 15 23 1 0
BITMAP
0078
0078
0078
07FE
07FE
07FE
0078
0F78
3FF8
7FF8
78F8
F878
F078
F078
F078
F078
F078
F078
F878
7C78
7FF8
3FF8
0FF0
ENDCHAR
STARTCHAR 0112
ENCODING 274
SWIDTH 510 0
DWIDTH 17 0
BBX 13 26 2 0
BITMAP
3FE0
3FE0
3FE0
0000
0000
0000
FFF0
FFF0
FFF0
F000
F000
F000
F000
F000
FFE0
FFE0
FFE0
F000
F000
F000
F000
F000
F000
FFF8
FFF8
FFF8
ENDCHAR
STARTCHAR 0113
ENCODING 275
SWIDTH 510 0
DWIDTH 17 0
BBX 14 21 1 0
BITMAP
1FF0
1FF0
1FF0
0000
0000
07C0
1FF0
3FF8
7C78
783C
F83C
F03C
FFFC
FFFC
FFFC
F000
7800
7C08
3FF8
1FF8
07F0
ENDCHAR
STARTCHAR 0114
ENCODING 276
SWIDTH 510 0
DWIDTH 17 0
BBX 13 27 2 0
BITMAP
78E0
38E0
3FE0
1FC0
0F80
0000
0000
FFF0
FFF0
FFF0
F000
F000
F000
F000
F000
FFE0
FFE0
FFE0
F000
F000
F000
F000
F000
F000
FFF8
FFF8
FFF8
ENDCHAR
STARTCHAR 0115
ENCODING 277
SWIDTH 510 0
DWIDTH 17 0
BBX 14 22 1 0
BITMAP
3C70
1C70
1FF0
0FE0
07C0
0000
07C0
1FF0
3FF8
7C78
783C
F83C
F03C
FFFC
FFFC
FFFC
F000
7800
7C08
3FF8
1FF8
07F0
ENDCHAR
STARTCHAR 0116
ENCODING 278
SWIDTH 510 0
DWIDTH 17 0
BBX 13 27 2 0
BITMAP
0700
0F00
0F80
0F00
0700
0000
0000
FFF0
FFF0
FFF0
F000
F000
F000
F000
F000
FFE0
FFE0
FFE0
F000
F000
F000
F000
F000
F000
FFF8
FFF8
FFF8
ENDCHAR
STARTCHAR 0117
ENCODING 279
SWIDTH 510 0
DWIDTH 17 0
BBX 14 22 1 0
BITMAP
0380
0780
07C0
0780
0380
0000
07C0
1FF0
3FF8
7C78
783C
F83C
F03C
FFFC
FFFC
FFFC
F000
7800
7C08
3FF8
1FF8
07F0
ENDCHAR
STARTCHAR 0118
ENCODING 280
SWIDTH 510 0
DWIDTH 17 0
BBX 14 26 2 -6
BITMAP
FFF0
FFF0
FFF0
F000
F000
F000
F000
F000
FFE0
FFE0
FFE0
F000
F000
F000
F000
F000
F000
FFF8
FFF8
FFF8
0078
00F0
00E0
00E0
00FC
00FC
ENDCHAR
STARTCHAR 0119
ENCODING 281
SWIDTH 510 0
DWIDTH 17 0
BBX 14 22 1 -6
BITMAP
07C0
1FF0
3FF8
7C78
783C
F83C
F03C
FFFC
FFFC
FFFC
F000
7800
7C08
3FF8
1FF8
07F8
00F0
00E0
01E0
01E0
01F8
00F8
ENDCHAR
STARTCHAR 011A
ENCODING 282
SWIDTH 510 0
DWIDTH 17 0
BBX 13 28 2 0
BITMAP
1040
38C0
3DC0
1F80
0700
0200
0000
0000
FFF0
FFF0
FFF0
F000
F000
F000
F000
F000
FFE0
FFE0
FFE0
F000
F000
F000
F000
F000
F000
FFF8
FFF8
FFF8
ENDCHAR
STARTCHAR 011B
ENCODING 283
SWIDTH 510 0
DWIDTH 17 0
BBX 14 23 1 0
BITMAP
0820
1C60
1EE0
0FC0
0380
0100
0000
07C0
1FF0
3FF8
7C78
783C
F83C
F03C
FFFC
FFFC
FFFC
F000
7800
7C08
3FF8
1FF8
07F0
ENDCHAR
STARTCHAR 011C
ENCODING 284
SWIDTH 510 0
DWIDTH 17 0
BBX 14 28 1 0
BITMAP
0080
01E0
03F0
0778
0638
0410
0000
0000
03FC
0FFC
1FFC
3E08
7C00
7800
F000
F000
F000
F03C
F03C
F03C
F03C
F03C
783C
783C
7C3C
3FFC
1FFC
07FC
ENDCHAR
STARTCHAR 011D
ENCODING 285
SWIDTH 510 0
DWIDTH 17 0
BBX 13 28 1 -5
BITMAP
0100
0380
0FC0
1EE0
1C70
0820
0000
07F0
1FF8
3FF8
7C78
7878
F078
F078
F078
F078
F078
F878
7878
7FF8
3FF8
0FF8
0078
0078
60F8
7FF0
7FE0
3F80
ENDCHAR
STARTCHAR 011E
ENCODING 286
SWIDTH 510 0
DWIDTH 17 0
BBX 14 27 1 0
BITMAP
0E3C
0E38
0FF8
07F0
03E0
0000
0000
03FC
0FFC
1FFC
3E08
7C00
7800
F000
F000
F000
F03C
F03C
F03C
F03C
F03C
783C
783C
7C3C
3FFC
1FFC
07FC
ENDCHAR
STARTCHAR 011F
ENCODING 287
SWIDTH 510 0
DWIDTH 17 0
BBX 13 27 1 -5
BITMAP
3C70
1C70
1FF0
0FE0
07C0
0000
07F0
1FF8
3FF8
7C78
7878
F078
F078
F078
F078
F078
F878
7878
7FF8
3FF8
0FF8
0078
0078
60F8
7FF0
7FE0
3F80
ENDCHAR
STARTCHAR 0120
ENCODING 288
SWIDTH 510 0
DWIDTH 17 0
BBX 14 27 1 0
BITMAP
01C0
01E0
03E0
01E0
01C0
0000
0000
03FC
0FFC
1FFC
3E08
7C00
7800
F000
F000
F000
F03C
F03C
F03C
F03C
F03C
783C
783C
7C3C
3FFC
1FFC
07FC
ENDCHAR
STARTCHAR 0121
ENCODING 289
SWIDTH 510 0
DWIDTH 17 0
BBX 13 27 1 -5
BITMAP
0380
0780
07C0
0780
0380
0000
07F0
1FF8
3FF8
7C78
7878
F078
F078
F078
F078
F078
F878
7878
7FF8
3FF8
0FF8
0078
0078
60F8
7FF0
7FE0
3F80
ENDCHAR
STARTCHAR 0122
ENCODING 290
SWIDTH 510 0
DWIDTH 17 0
BBX 14 26 1 -6
BITMAP
03FC
0FFC
1FFC
3E08
7C00
7800
F000
F000
F000
F03C
F03C
F03C
F03C
F03C
783C
783C
7C3C
3FFC
1FFC
07FC
0000
0000
01C0
03C0
0FC0
0F80
ENDCHAR
STARTCHAR 0123
ENCODING 291
SWIDTH 510 0
DWIDTH 17 0
BBX 13 28 1 -5
BITMAP
00C0
01E0
03E0
03C0
0380
0380
0000
07F0
1FF8
3FF8
7C78
7878
F078
F078
F078
F078
F078
F878
7878
7FF8
3FF8
0FF8
0078
0078
60F8
7FF0
7FE0
3F80
ENDCHAR
STARTCHAR 0124
ENCODING 292
SWIDTH 510 0
DWIDTH 17 0
BBX 14 28 1 0
BITMAP
0100
0380
0FC0
1EE0
1C70
0820
0000
0000
F83C
F83C
F83C
F83C
F83C
F83C
F83C
F83C
FFFC
FFFC
FFFC
F83C
F83C
F83C
F83C
F83C
F83C
F83C
F83C
F83C
ENDCHAR
STARTCHAR 0125
ENCODING 293
SWIDTH 510 0
DWIDTH 17 0
BBX 13 27 2 0
BITMAP
1800
3C00
7F00
E700
4300
7000
F000
F000
F000
F000
F000
FF80
FFE0
FFF0
F0F0
F0F0
F0F0
F0F8
F0F8
F0F8
F0F8
F0F8
F0F8
F0F8
F0F8
F0F8
F0F8
ENDCHAR
STARTCHAR 0126
ENCODING 294
SWIDTH 510 0
DWIDTH 17 0
BBX 15 20 1 0
BITMAP
7878
7878
FFFE
FFFE
FFFE
7878
7878
7878
7FF8
7FF8
7FF8
7878
7878
7878
7878
7878
7878
7878
7878
7878
ENDCHAR
STARTCHAR 0127
ENCODING 295
SWIDTH 510 0
DWIDTH 17 0
BBX 14 23 1 0
BITMAP
3C00
3C00
3C00
FFC0
FFC0
3C00
3C00
3FE0
3FF0
3FF8
3C78
3C78
3C78
3C7C
3C7C
3C7C
3C7C
3C7C
3C7C
3C7C
3C7C
3C7C
3C7C
ENDCHAR
STARTCHAR 0128
ENCODING 296
SWIDTH 510 0
DWIDTH 17 0
BBX 13 27 2 0
BITMAP
1C60
3FE0
7FE0
23C0
0000
0000
0000
FFF8
FFF8
FFF8
0F00
0F00
0F00
0F00
0F00
0F00
0F00
0F00
0F00
0F00
0F00
0F00
0F00
0F00
FFF8
FFF8
FFF8
ENDCHAR
STARTCHAR 0129
ENCODING 297
SWIDTH 510 0
DWIDTH 17 0
BBX 14 22 1 0
BITMAP
1E20
3FF0
7FE0
31C0
0000
0000
FF80
FF80
FF80
0F80
0F80
0F80
0F80
0F80
0F80
0F80
0780
0780
0784
07FC
03FC
01F8
ENDCHAR
STARTCHAR 012A
ENCODING 298
SWIDTH 510 0
DWIDTH 17 0
BBX 13 26 2 0
BITMAP
3FE0
3FE0
3FE0
0000
0000
0000
FFF8
FFF8
FFF8
0F00
0F00
0F00
0F00
0F00
0F00
0F00
0F00
0F00
0F00
0F00
0F00
0F00
0F00
FFF8
FFF8
FFF8
ENDCHAR
STARTCHAR 012B
ENCODING 299
SWIDTH 510 0
DWIDTH 17 0
BBX 14 21 1 0
BITMAP
3FE0
3FE0
3FE0
0000
0000
FF80
FF80
FF80
0F80
0F80
0F80
0F80
0F80
0F80
0F80
0780
0780
0784
07FC
03FC
01F8
ENDCHAR
STARTCHAR 012C
ENCODING 300
SWIDTH 510 0
DWIDTH 17 0
BBX 13 27 2 0
BITMAP
78E0
38E0
3FE0
1FC0
0F80
0000
0000
FFF8
FFF8
FFF8
0F00
0F00
0F00
0F00
0F00
0F00
0F00
0F00
0F00
0F00
0F00
0F00
0F00
0F00
FFF8
FFF8
FFF8
ENDCHAR
STARTCHAR 012D
ENCODING 301
SWIDTH 510 0
DWIDTH 17 0
BBX 14 22 1 0
BITMAP
38E0
38E0
3FE0
1FC0
0F80
0000
FF80
FF80
FF80
0F80
0F80
0F80
0F80
0F80
0F80
0F80
0780
0780
0784
07FC
03FC
01F8
ENDCHAR
STARTCHAR 012E
ENCODING 302
SWIDTH 510 0
DWIDTH 17 0
BBX 13 26 2 -6
BITMAP
FFF8
FFF8
FFF8
0F00
0F00
0F00
0F00
0F00
0F00
0F00
0F00
0F00
0F00
0F00
0F00
0F00
0F00
FFF8
FFF8
FFF8
0F00
0E00
1E00
1C00
1F80
0F80
ENDCHAR
STARTCHAR 012F
ENCODING 303
SWIDTH 510 0
DWIDTH 17 0
BBX 14 29 1 -6
BITMAP
0E00
1F00
1F00
1F00
0E00
0000
0000
FF80
FF80
FF80
0F80
0F80
0F80
0F80
0F80
0F80
0F80
0780
0780
0784
07FC
03FC
01FC
0078
0070
00F0
00F0
00FC
007C
ENDCHAR
STARTCHAR 0130
ENCODING 304
SWIDTH 510 0
DWIDTH 17 0
BBX 13 27 2 0
BITMAP
0700
0F00
0F80
0F00
0700
0000
0000
FFF8
FFF8
FFF8
0F00
0F00
0F00
0F00
0F00
0F00
0F00
0F00
0F00
0F00
0F00
0F00
0F00
0F00
FFF8
FFF8
FFF8
ENDCHAR
STARTCHAR 0131
ENCODING 305
SWIDTH 510 0
DWIDTH 17 0
BBX 14 16 1 0
BITMAP
FF80
FF80
FF80
0F80
0F80
0F80
0F80
0F80
0F80
0F80
0780
0780
0784
07FC
03FC
01F8
ENDCHAR
STARTCHAR 0132
ENCODING 306
SWIDTH 510 0
DWIDTH 17 0
BBX 15 20 1 0
BITMAP
F01E
F01E
F01E
F01E
F01E
F01E
F01E
F01E
F01E
F01E
F01E
F01E
F01E
F01E
F01E
F01E
F23C
F7FC
F7F8
F3F0
ENDCHAR
STARTCHAR 0133
ENCODING 307
SWIDTH 510 0
DWIDTH 17 0
BBX 13 28 2 -5
BITMAP
70F0
F8F0
F9F8
F8F0
70F0
0000
0000
F0F0
F0F0
F0F0
F0F0
F0F0
F0F0
F0F0
F0F0
F0F0
F0F0
F0F0
F0F0
F0F0
F0F0
F0F0
F0F0
00F0
01F0
0FE0
0FE0
0F80
ENDCHAR
STARTCHAR 0134
ENCODING 308
SWIDTH 510 0
DWIDTH 17 0
BBX 12 28 2 0
BITMAP
0080
03C0
07E0
0F70
0E30
0420
0000
0000
3FF0
3FF0
3FF0
00F0
00F0
00F0
00F0
00F0
00F0
00F0
00F0
00F0
00F0
00F0
00F0
40F0
E1F0
FFE0
FFC0
3F00
ENDCHAR
STARTCHAR 0135
ENCODING 309
SWIDTH 510 0
DWIDTH 17 0
BBX 11 28 2 -5
BITMAP
0200
0780
0FC0
1DE0
18E0
0840
0000
7FE0
7FE0
7FE0
01E0
01E0
01E0
01E0
01E0
01E0
01E0
01E0
01E0
01E0
01E0
01E0
01E0
01E0
43E0
FFC0
FFC0
3F00
ENDCHAR
STARTCHAR 0136
ENCODING 310
SWIDTH 510 0
DWIDTH 17 0
BBX 15 26 1 -6
BITMAP
F83C
F87C
F878
F8F0
F9F0
F9E0
FBC0
FFC0
FF80
FF00
FF80
FFC0
FBE0
F9F0
F8F0
F8F8
F87C
F87C
F83E
F83E
0000
0000
0380
0380
0F80
0F00
ENDCHAR
STARTCHAR 0137
ENCODING 311
SWIDTH 510 0
DWIDTH 17 0
BBX 14 29 2 -6
BITMAP
F000
F000
F000
F000
F000
F000
F000
F0F8
F0F0
F1E0
F3E0
F3C0
F780
FF00
FF00
FF80
F7C0
F3E0
F1E0
F1F0
F0F8
F078
F07C
0000
0000
0700
0700
1F00
1E00
ENDCHAR
STARTCHAR 0138
ENCODING 312
SWIDTH 510 0
DWIDTH 17 0
BBX 14 16 2 0
BITMAP
F0F8
F0F0
F1E0
F3E0
F3C0
F780
FF00
FF00
FF80
F7C0
F3C0
F1E0
F1F0
F0F8
F078
F07C
ENDCHAR
STARTCHAR 0139
ENCODING 313
SWIDTH 510 0
DWIDTH 17 0
BBX 13 28 2 0
BITMAP
0200
0E00
1F00
3F00
3C00
3000
0000
0000
F000
F000
F000
F000
F000
F000
F000
F000
F000
F000
F000
F000
F000
F000
F000
F000
F000
FFF8
FFF8
FFF8
ENDCHAR
STARTCHAR 013A
ENCODING 314
SWIDTH 510 0
DWIDTH 17 0
BBX 14 27 1 0
BITMAP
00C0
03C0
0FC0
0F80
0C00
0000
FF80
FF80
FF80
0F80
0F80
0F80
0F80
0F80
0F80
0F80
0F80
0F80
0F80
0F80
0F80
0780
0780
0784
07FC
03FC
01F8
ENDCHAR
STARTCHAR 013B
ENCODING 315
SWIDTH 510 0
DWIDTH 17 0
BBX 13 26 2 -6
BITMAP
F000
F000
F000
F000
F000
F000
F000
F000
F000
F000
F000
F000
F000
F000
F000
F000
F000
FFF8
FFF8
FFF8
0000
0000
0380
0780
1F80
1F00
ENDCHAR
STARTCHAR 013C
ENCODING 316
SWIDTH 510 0
DWIDTH 17 0
BBX 14 29 1 -6
BITMAP
FF80
FF80
FF80
0F80
0F80
0F80
0F80
0F80
0F80
0F80
0F80
0F80
0F80
0F80
0F80
0F80
0F80
0780
0780
0784
07FC
03FC
01F8
0000
0000
00F0
00F0
03E0
03C0
ENDCHAR
STARTCHAR 013D
ENCODING 317
SWIDTH 510 0
DWIDTH 17 0
BBX 13 21 2 0
BITMAP
01E0
F1E0
F1E0
F1E0
F1C0
F1C0
F1C0
F000
F000
F000
F000
F000
F000
F000
F000
F000
F000
F000
FFF8
FFF8
FFF8
ENDCHAR
STARTCHAR 013E
ENCODING 318
SWIDTH 510 0
DWIDTH 17 0
BBX 15 23 1 0
BITMAP
FF9E
FF9E
FF9C
0F9C
0F9C
0F9C
0F9C
0F80
0F80
0F80
0F80
0F80
0F80
0F80
0F80
0F80
0F80
0780
0780
0784
07FC
03FC
01F8
ENDCHAR
STARTCHAR 013F
ENCODING 319
SWIDTH 510 0
DWIDTH 17 0
BBX 13 20 2 0
BITMAP
F000
F000
F000
F000
F000
F000
F070
F0F8
F0F8
F0F8
F070
F000
F000
F000
F000
F000
F000
FFF8
FFF8
FFF8
ENDCHAR
STARTCHAR 0140
ENCODING 320
SWIDTH 510 0
DWIDTH 17 0
BBX 18 23 1 0
BITMAP
FF8000
FF8000
FF8000
0F8000
0F8000
0F8000
0F8000
0F8000
0F8780
0F8FC0
0F8FC0
0F8FC0
0F8780
0F8000
0F8000
0F8000
0F8000
078000
078000
078400
07FC00
03FC00
01F800
ENDCHAR
STARTCHAR 0141
ENCODING 321
SWIDTH 510 0
DWIDTH 17 0
BBX 15 20 0 0
BITMAP
1E00
1E00
1E00
1E00
1E00
1E20
1EE0
1FF0
1FF0
3FC0
7F00
FE00
FE00
5E00
1E00
1E00
1E00
1FFE
1FFE
1FFE
ENDCHAR
STARTCHAR 0142
ENCODING 322
SWIDTH 510 0
DWIDTH 17 0
BBX 14 23 1 0
BITMAP
FF80
FF80
FF80
0F80
0F80
0F80
0FA0
0FE0
0FF0
0FE0
3F80
3F80
3F80
0F80
0F80
0F80
0F80
0780
0780
0784
07FC
03FC
01F8
ENDCHAR
STARTCHAR 0143
ENCODING 323
SWIDTH 510 0
DWIDTH 17 0
BBX 13 28 2 0
BITMAP
0080
0380
07C0
1FC0
0F00
0C00
0000
0000
E078
F078
F078
F878
F878
FC78
FC78
EE78
EE78
E778
E778
E3F8
E3F8
E1F8
E1F8
E0F8
E0F8
E078
E078
E078
ENDCHAR
STARTCHAR 0144
ENCODING 324
SWIDTH 510 0
DWIDTH 17 0
BBX 13 23 2 0
BITMAP
0100
0380
0FC0
1F80
1E00
0800
0000
3F80
FFE0
FFF0
F0F0
F0F0
F0F0
F0F8
F0F8
F0F8
F0F8
F0F8
F0F8
F0F8
F0F8
F0F8
F0F8
ENDCHAR
STARTCHAR 0145
ENCODING 325
SWIDTH 510 0
DWIDTH 17 0
BBX 13 26 2 -6
BITMAP
E078
F078
F078
F878
F878
FC78
FC78
EE78
EE78
E778
E778
E3F8
E3F8
E1F8
E1F8
E0F8
E0F8
E078
E078
E078
0000
0000
0700
0700
1F00
1E00
ENDCHAR
STARTCHAR 0146
ENCODING 326
SWIDTH 510 0
DWIDTH 17 0
BBX 13 22 2 -6
BITMAP
3F80
FFE0
FFF0
F0F0
F0F0
F0F0
F0F8
F0F8
F0F8
F0F8
F0F8
F0F8
F0F8
F0F8
F0F8
F0F8
0000
0000
0700
0700
1F00
1E00
ENDCHAR
STARTCHAR 0147
ENCODING 327
SWIDTH 510 0
DWIDTH 17 0
BBX 13 28 2 0
BITMAP
1040
38C0
3DC0
1F80
0700
0200
0000
0000
E078
F078
F078
F878
F878
FC78
FC78
EE78
EE78
E778
E778
E3F8
E3F8
E1F8
E1F8
E0F8
E0F8
E078
E078
E078
ENDCHAR
STARTCHAR 0148
ENCODING 328
SWIDTH 510 0
DWIDTH 17 0
BBX 13 23 2 0
BITMAP
1040
38C0
3DC0
1F80
0700
0200
0000
3F80
FFE0
FFF0
F0F0
F0F0
F0F0
F0F8
F0F8
F0F8
F0F8
F0F8
F0F8
F0F8
F0F8
F0F8
F0F8
ENDCHAR
STARTCHAR 0149
ENCODING 329
SWIDTH 510 0
DWIDTH 17 0
BBX 16 24 -1 0
BITMAP
7800
7800
7800
7800
7000
F000
6000
0000
07F8
0FFC
0FFE
0F1F
0F0F
0F0F
0F0F
0F0F
0F0F
0F0F
0F0F
0F0F
0F0F
0F0F
0F0F
0F0F
ENDCHAR
STARTCHAR 014A
ENCODING 330
SWIDTH 510 0
DWIDTH 17 0
BBX 13 26 2 -6
BITMAP
E078
F078
F078
F878
F878
FC78
FC78
EE78
EE78
E778
E778
E3F8
E3F8
E1F8
E1F8
E1F8
E0F8
E0F8
E078
E078
0078
0078
0078
03F0
03F0
03E0
ENDCHAR
STARTCHAR 014B
ENCODING 331
SWIDTH 510 0
DWIDTH 17 0
BBX 13 21 2 -5
BITMAP
3F80
FFE0
FFF0
F0F0
F0F0
F0F0
F0F8
F0F8
F0F8
F0F8
F0F8
F0F8
F0F8
F0F8
F0F8
F0F8
00F0
00F0
07F0
07E0
07C0
ENDCHAR
STARTCHAR 014C
ENCODING 332
SWIDTH 510 0
DWIDTH 17 0
BBX 15 26 1 0
BITMAP
1FF0
1FF0
1FF0
0000
0000
0000
0FC0
1FF0
3FF8
7C78
783C
F83C
F03C
F03C
F03E
F03E
F03E
F03E
F03C
F03C
F83C
783C
7C78
3FF8
1FF0
07C0
ENDCHAR
STARTCHAR 014D
ENCODING 333
SWIDTH 510 0
DWIDTH 17 0
BBX 15 21 1 0
BITMAP
1FF0
1FF0
1FF0
0000
0000
07C0
1FF0
3FF8
7C7C
783C
F03C
F03C
F03E
F03E
F03C
F03C
783C
7C78
3FF8
1FF0
07C0
ENDCHAR
STARTCHAR 014E
ENCODING 334
SWIDTH 510 0
DWIDTH 17 0
BBX 15 27 1 0
BITMAP
3C70
1C70
1FF0
0FE0
07C0
0000
0000
0FC0
1FF0
3FF8
7C78
783C
F83C
F03C
F03C
F03E
F03E
F03E
F03E
F03C
F03C
F83C
783C
7C78
3FF8
1FF0
07C0
ENDCHAR
STARTCHAR 014F
ENCODING 335
SWIDTH 510 0
DWIDTH 17 0
BBX 15 22 1 0
BITMAP
3C70
1C70
1FF0
0FE0
07C0
0000
07C0
1FF0
3FF8
7C7C
783C
F03C
F03C
F03E
F03E
F03C
F03C
783C
7C78
3FF8
1FF0
07C0
ENDCHAR
STARTCHAR 0150
ENCODING 336
SWIDTH 510 0
DWIDTH 17 0
BBX 15 28 1 0
BITMAP
0208
071C
0F3C
1F7C
3CF0
1860
0000
0000
0FC0
1FF0
3FF8
7C78
783C
F83C
F03C
F03C
F03E
F03E
F03E
F03E
F03C
F03C
F83C
783C
7C78
3FF8
1FF0
07C0
ENDCHAR
STARTCHAR 0151
ENCODING 337
SWIDTH 510 0
DWIDTH 17 0
BBX 15 23 1 0
BITMAP
0208
071C
0F3C
1F7C
3CF0
1860
0000
07C0
1FF0
3FF8
7C7C
783C
F03C
F03C
F03E
F03E
F03C
F03C
783C
7C78
3FF8
1FF0
07C0
ENDCHAR
STARTCHAR 0152
ENCODING 338
SWIDTH 510 0
DWIDTH 17 0
BBX 15 20 1 0
BITMAP
0FFE
3FFE
7FFE
79E0
F1E0
F1E0
F1E0
F1E0
E1FC
E1FC
E1FC
E1E0
E1E0
F1E0
F1E0
F1E0
79E0
7FFE
3FFE
0FFE
ENDCHAR
STARTCHAR 0153
ENCODING 339
SWIDTH 510 0
DWIDTH 17 0
BBX 15 16 1 0
BITMAP
3C78
7EFC
7FFC
F7DE
E38E
E38E
E38E
E3FE
E3FE
E3FE
E380
E380
F7C4
7FFC
7EFC
3C7C
ENDCHAR
STARTCHAR 0154
ENCODING 340
SWIDTH 510 0
DWIDTH 17 0
BBX 14 28 2 0
BITMAP
0100
0380
0F80
1F80
1E00
0800
0000
0000
FF80
FFE0
FFF0
F1F0
F0F8
F078
F078
F0F8
F1F0
FFF0
FFE0
FFC0
F3E0
F1E0
F1F0
F0F0
F0F8
F078
F07C
F03C
ENDCHAR
STARTCHAR 0155
ENCODING 341
SWIDTH 510 0
DWIDTH 17 0
BBX 12 23 3 0
BITMAP
0100
0380
07C0
1F80
1E00
0800
0000
1FF0
FFF0
FFF0
F000
F000
F000
F000
F000
F000
F000
F000
F000
F000
F000
F000
F000
ENDCHAR
STARTCHAR 0156
ENCODING 342
SWIDTH 510 0
DWIDTH 17 0
BBX 14 26 2 -6
BITMAP
FF80
FFE0
FFF0
F1F0
F0F8
F078
F078
F0F8
F1F0
FFF0
FFE0
FFC0
F3E0
F1E0
F1F0
F0F0
F0F8
F078
F07C
F03C
0000
0000
0700
0700
1F00
1E00
ENDCHAR
STARTCHAR 0157
ENCODING 343
SWIDTH 510 0
DWIDTH 17 0
BBX 14 22 1 -6
BITMAP
07FC
3FFC
3FFC
3C00
3C00
3C00
3C00
3C00
3C00
3C00
3C00
3C00
3C00
3C00
3C00
3C00
0000
0000
1C00
3C00
FC00
F000
ENDCHAR
STARTCHAR 0158
ENCODING 344
SWIDTH 510 0
DWIDTH 17 0
BBX 14 28 2 0
BITMAP
2080
31C0
3BC0
1F80
0E00
0400
0000
0000
FF80
FFE0
FFF0
F1F0
F0F8
F078
F078
F0F8
F1F0
FFF0
FFE0
FFC0
F3E0
F1E0
F1F0
F0F0
F0F8
F078
F07C
F03C
ENDCHAR
STARTCHAR 0159
ENCODING 345
SWIDTH 510 0
DWIDTH 17 0
BBX 12 23 3 0
BITMAP
1040
38E0
1DC0
0F80
0700
0200
0000
1FF0
FFF0
FFF0
F000
F000
F000
F000
F000
F000
F000
F000
F000
F000
F000
F000
F000
ENDCHAR
STARTCHAR 015A
ENCODING 346
SWIDTH 510 0
DWIDTH 17 0
BBX 14 28 1 0
BITMAP
0080
01C0
03E0
0FE0
0F00
0400
0000
0000
0FE0
3FF8
3FF8
7C10
7800
7800
7800
7C00
7F80
3FE0
0FF8
01F8
007C
003C
003C
003C
607C
7FF8
FFF0
3FE0
ENDCHAR
STARTCHAR 015B
ENCODING 347
SWIDTH 510 0
DWIDTH 17 0
BBX 13 23 2 0
BITMAP
0100
0380
07C0
1FC0
1E00
0800
0000
1FE0
3FF0
7FF0
F820
F000
F800
FF00
7FC0
3FE0
07F0
00F8
0078
E0F0
FFF0
FFE0
3F80
ENDCHAR
STARTCHAR 015C
ENCODING 348
SWIDTH 510 0
DWIDTH 17 0
BBX 14 28 1 0
BITMAP
0100
0380
0FC0
1EE0
1C70
0820
0000
0000
0FE0
3FF8
3FF8
7C10
7800
7800
7800
7C00
7F80
3FE0
0FF8
01F8
007C
003C
003C
003C
607C
7FF8
FFF0
3FE0
ENDCHAR
STARTCHAR 015D
ENCODING 349
SWIDTH 510 0
DWIDTH 17 0
BBX 13 23 2 0
BITMAP
0200
0700
1F80
3DC0
38E0
1040
0000
1FE0
3FF0
7FF0
F820
F000
F800
FF00
7FC0
3FE0
07F0
00F8
0078
E0F0
FFF0
FFE0
3F80
ENDCHAR
STARTCHAR 015E
ENCODING 350
SWIDTH 510 0
DWIDTH 17 0
BBX 14 26 1 -6
BITMAP
0FE0
3FF8
3FF8
7C10
7800
7800
7800
7C00
7F80
3FE0
0FF0
01F8
007C
003C
003C
003C
607C
7FFC
FFF8
3FF0
07C0
0700
0380
03C0
1F80
1F00
ENDCHAR
STARTCHAR 015F
ENCODING 351
SWIDTH 510 0
DWIDTH 17 0
BBX 13 21 2 -5
BITMAP
1FE0
3FF0
7FF0
F820
F000
F800
7E00
7FC0
1FE0
07F0
00F8
0078
C0F0
FFF0
FFE0
7F80
0E00
0780
0380
3F80
3F00
ENDCHAR
STARTCHAR 0160
ENCODING 352
SWIDTH 510 0
DWIDTH 17 0
BBX 14 28 1 0
BITMAP
0820
1C60
1EE0
0FC0
0380
0100
0000
0000
0FE0
3FF8
3FF8
7C10
7800
7800
7800
7C00
7F80
3FE0
0FF8
01F8
007C
003C
003C
003C
607C
7FF8
FFF0
3FE0
ENDCHAR
STARTCHAR 0161
ENCODING 353
SWIDTH 510 0
DWIDTH 17 0
BBX 13 23 2 0
BITMAP
1040
38C0
3DC0
1F80
0700
0200
0000
1FE0
3FF0
7FF0
F820
F000
F800
FF00
7FC0
3FE0
07F0
00F8
0078
E0F0
FFF0
FFE0
3F80
ENDCHAR
STARTCHAR 0162
ENCODING 354
SWIDTH 510 0
DWIDTH 17 0
BBX 15 25 1 -5
BITMAP
FFFE
FFFE
FFFE
0780
0780
0780
0780
0780
0780
0780
0780
0780
0780
0780
0780
0780
0780
0780
0780
0780
0700
0380
01C0
0FC0
1F80
ENDCHAR
STARTCHAR 0163
ENCODING 355
SWIDTH 510 0
DWIDTH 17 0
BBX 14 25 1 -5
BITMAP
0700
0F00
0F00
0F00
FFFC
FFFC
FFFC
0F00
0F00
0F00
0F00
0F00
0F00
0F00
0F00
0F00
0F04
0FFC
07FC
03FC
00E0
0070
0070
03F0
03E0
ENDCHAR
STARTCHAR 0164
ENCODING 356
SWIDTH 510 0
DWIDTH 17 0
BBX 15 28 1 0
BITMAP
0820
1C60
1EE0
0FC0
0380
0100
0000
0000
FFFE
FFFE
FFFE
0780
0780
0780
0780
0780
0780
0780
0780
0780
0780
0780
0780
0780
0780
0780
0780
0780
ENDCHAR
STARTCHAR 0165
ENCODING 357
SWIDTH 510 0
DWIDTH 17 0
BBX 14 23 1 0
BITMAP
0038
0038
0338
0F38
0F38
0F30
0F00
FFFC
FFFC
FFFC
0F00
0F00
0F00
0F00
0F00
0F00
0F00
0F00
0F00
0F04
0FFC
07FC
03FC
ENDCHAR
STARTCHAR 0166
ENCODING 358
SWIDTH 510 0
DWIDTH 17 0
BBX 15 20 1 0
BITMAP
FFFE
FFFE
FFFE
0780
0780
0780
0780
0780
0780
7FF8
7FF8
7FF8
0780
0780
0780
0780
0780
0780
0780
0780
ENDCHAR
STARTCHAR 0167
ENCODING 359
SWIDTH 510 0
DWIDTH 17 0
BBX 14 20 1 0
BITMAP
0700
0F00
0F00
0F00
0F00
FFFC
FFFC
FFFC
0F00
0F00
0F00
FFFC
FFFC
FFFC
0F00
0F00
0F04
0FFC
07FC
03FC
ENDCHAR
STARTCHAR 0168
ENCODING 360
SWIDTH 510 0
DWIDTH 17 0
BBX 14 27 1 0
BITMAP
0E30
1FF8
3FF0
11E0
0000
0000
0000
F03C
F03C
F03C
F03C
F03C
F03C
F03C
F03C
F03C
F03C
F03C
F03C
F03C
F03C
F03C
783C
787C
7FF8
3FF0
0FE0
ENDCHAR
STARTCHAR 0169
ENCODING 361
SWIDTH 510 0
DWIDTH 17 0
BBX 12 22 2 0
BITMAP
1C60
3FF0
7FE0
23C0
0000
0000
F0F0
F0F0
F0F0
F0F0
F0F0
F0F0
F0F0
F0F0
F0F0
F0F0
F0F0
F0F0
F8F0
7FF0
3FF0
1FE0
ENDCHAR
STARTCHAR 016A
ENCODING 362
SWIDTH 510 0
DWIDTH 17 0
BBX 14 26 1 0
BITMAP
1FF0
1FF0
1FF0
0000
0000
0000
F03C
F03C
F03C
F03C
F03C
F03C
F03C
F03C
F03C
F03C
F03C
F03C
F03C
F03C
F03C
783C
787C
7FF8
3FF0
0FE0
ENDCHAR
STARTCHAR 016B
ENCODING 363
SWIDTH 510 0
DWIDTH 17 0
BBX 12 21 2 0
BITMAP
3FE0
3FE0
3FE0
0000
0000
F0F0
F0F0
F0F0
F0F0
F0F0
F0F0
F0F0
F0F0
F0F0
F0F0
F0F0
F0F0
F8F0
7FF0
3FF0
1FE0
ENDCHAR
STARTCHAR 016C
ENCODING 364
SWIDTH 510 0
DWIDTH 17 0
BBX 14 27 1 0
BITMAP
3C70
1C70
1FF0
0FE0
07C0
0000
0000
F03C
F03C
F03C
F03C
F03C
F03C
F03C
F03C
F03C
F03C
F03C
F03C
F03C
F03C
F03C
783C
787C
7FF8
3FF0
0FE0
ENDCHAR
STARTCHAR 016D
ENCODING 365
SWIDTH 510 0
DWIDTH 17 0
BBX 12 22 2 0
BITMAP
78E0
38E0
3FE0
1FC0
0F80
0000
F0F0
F0F0
F0F0
F0F0
F0F0
F0F0
F0F0
F0F0
F0F0
F0F0
F0F0
F0F0
F8F0
7FF0
3FF0
1FE0
ENDCHAR
STARTCHAR 016E
ENCODING 366
SWIDTH 510 0
DWIDTH 17 0
BBX 14 27 1 0
BITMAP
0780
0FC0
0CE0
0C60
0CE0
0FC0
0780
F03C
F03C
F03C
F03C
F03C
F03C
F03C
F03C
F03C
F03C
F03C
F03C
F03C
F03C
F03C
783C
787C
7FF8
3FF0
0FC0
ENDCHAR
STARTCHAR 016F
ENCODING 367
SWIDTH 510 0
DWIDTH 17 0
BBX 12 23 2 0
BITMAP
0F00
1F80
19C0
18C0
19C0
1F80
0F00
F0F0
F0F0
F0F0
F0F0
F0F0
F0F0
F0F0
F0F0
F0F0
F0F0
F0F0
F0F0
F8F0
7FF0
3FF0
1FE0
ENDCHAR
STARTCHAR 0170
ENCODING 368
SWIDTH 510 0
DWIDTH 17 0
BBX 14 28 1 0
BITMAP
0208
071C
0F3C
1F7C
3CF0
1860
0000
0000
F03C
F03C
F03C
F03C
F03C
F03C
F03C
F03C
F03C
F03C
F03C
F03C
F03C
F03C
F03C
783C
787C
7FF8
3FF0
0FE0
ENDCHAR
STARTCHAR 0171
ENCODING 369
SWIDTH 510 0
DWIDTH 17 0
BBX 13 23 2 0
BITMAP
0410
0C30
1E78
3EF8
79E0
2080
0000
F0F0
F0F0
F0F0
F0F0
F0F0
F0F0
F0F0
F0F0
F0F0
F0F0
F0F0
F0F0
F8F0
7FF0
3FF0
1FE0
ENDCHAR
STARTCHAR 0172
ENCODING 370
SWIDTH 510 0
DWIDTH 17 0
BBX 14 26 1 -6
BITMAP
F03C
F03C
F03C
F03C
F03C
F03C
F03C
F03C
F03C
F03C
F03C
F03C
F03C
F03C
F03C
783C
787C
7FF8
3FF8
0FF0
01E0
03C0
0380
0380
03E0
03F0
ENDCHAR
STARTCHAR 0173
ENCODING 371
SWIDTH 510 0
DWIDTH 17 0
BBX 12 21 2 -5
BITMAP
F0F0
F0F0
F0F0
F0F0
F0F0
F0F0
F0F0
F0F0
F0F0
F0F0
F0F0
F0F0
F8F0
7FF0
3FF0
1FF0
01E0
01C0
03C0
03F0
01F0
ENDCHAR
STARTCHAR 0174
ENCODING 372
SWIDTH 510 0
DWIDTH 17 0
BBX 15 28 1 0
BITMAP
0100
0380
0FC0
1EE0
1C70
0820
0000
0000
F01E
E01E
E01E
E01E
E01E
E01E
E01C
E39C
E79C
E79C
E7DC
EFDC
EEDC
EEFC
ECFC
7C7C
787C
787C
783C
783C
ENDCHAR
STARTCHAR 0175
ENCODING 373
SWIDTH 510 0
DWIDTH 17 0
BBX 16 23 0 0
BITMAP
0080
01C0
07E0
0F70
0E38
0410
0000
F007
F007
7007
71C7
73CF
73CF
73EE
73EE
73EE
77EE
3F7E
3E7E
3E7C
3E3C
3C3C
1C3C
ENDCHAR
STARTCHAR 0176
ENCODING 374
SWIDTH 510 0
DWIDTH 17 0
BBX 15 28 1 0
BITMAP
0100
0380
0FC0
1EE0
1C70
0820
0000
0000
F01E
F03E
F83C
783C
7878
3C78
3C70
1EF0
1EE0
0FE0
0FC0
07C0
0780
0780
0780
0780
0780
0780
0780
0780
ENDCHAR
STARTCHAR 0177
ENCODING 375
SWIDTH 510 0
DWIDTH 17 0
BBX 14 28 1 -5
BITMAP
0100
0380
0FC0
1EE0
1C70
0820
0000
F83C
783C
783C
783C
7C78
3C78
3C78
3E70
1EF0
1EF0
0FE0
0FE0
0FE0
07C0
07C0
0380
0780
8F80
FF00
FE00
FC00
ENDCHAR
STARTCHAR 0178
ENCODING 376
SWIDTH 510 0
DWIDTH 17 0
BBX 15 28 1 0
BITMAP
3C70
3CF8
3CF8
3C70
0000
0000
0000
0000
F01E
F03E
F83C
783C
7878
3C78
3C70
1EF0
1EE0
0FE0
0FC0
07C0
0780
0780
0780
0780
0780
0780
0780
0780
ENDCHAR
STARTCHAR 0179
ENCODING 377
SWIDTH 510 0
DWIDTH 17 0
BBX 13 28 2 0
BITMAP
0080
0380
07C0
1FC0
0F00
0C00
0000
0000
FFF8
FFF8
FFF8
01F0
01F0
03E0
03C0
07C0
0780
0F80
1F00
1E00
3E00
3C00
7C00
7800
F000
FFF8
FFF8
FFF8
ENDCHAR
STARTCHAR 017A
ENCODING 378
SWIDTH 510 0
DWIDTH 17 0
BBX 12 23 2 0
BITMAP
0080
0380
07C0
1FC0
0F00
0C00
0000
7FF0
7FF0
7FF0
01F0
03E0
07C0
0780
0F80
1F00
1E00
3E00
7C00
7800
FFF0
FFF0
FFF0
ENDCHAR
STARTCHAR 017B
ENCODING 379
SWIDTH 510 0
DWIDTH 17 0
BBX 13 27 2 0
BITMAP
0700
0F00
0F80
0F00
0700
0000
0000
FFF8
FFF8
FFF8
01F0
01F0
03E0
03C0
07C0
0780
0F80
1F00
1E00
3E00
3C00
7C00
7800
F000
FFF8
FFF8
FFF8
ENDCHAR
STARTCHAR 017C
ENCODING 380
SWIDTH 510 0
DWIDTH 17 0
BBX 12 22 2 0
BITMAP
0700
0F00
0F80
0F00
0700
0000
7FF0
7FF0
7FF0
01F0
03E0
07C0
0780
0F80
1F00
1E00
3E00
7C00
7800
FFF0
FFF0
FFF0
ENDCHAR
STARTCHAR 017D
ENCODING 381
SWIDTH 510 0
DWIDTH 17 0
BBX 13 28 2 0
BITMAP
1040
38C0
3DC0
1F80
0700
0200
0000
0000
FFF8
FFF8
FFF8
01F0
01F0
03E0
03C0
07C0
0780
0F80
1F00
1E00
3E00
3C00
7C00
7800
F000
FFF8
FFF8
FFF8
ENDCHAR
STARTCHAR 017E
ENCODING 382
SWIDTH 510 0
DWIDTH 17 0
BBX 12 23 2 0
BITMAP
1040
38C0
3DC0
1F80
0700
0200
0000
7FF0
7FF0
7FF0
01F0
03E0
07C0
0780
0F80
1F00
1E00
3E00
7C00
7800
FFF0
FFF0
FFF0
ENDCHAR
STARTCHAR 017F
ENCODING 383
SWIDTH 510 0
DWIDTH 17 0
BBX 11 23 5 0
BITMAP
1FC0
7FE0
7FE0
F820
F000
F000
F000
F000
F000
F000
F000
F000
F000
F000
F000
F000
F000
F000
F000
F000
F000
F000
F000
ENDCHAR
STARTCHAR 0180
ENCODING 384
SWIDTH 510 0
DWIDTH 17 0
BBX 15 23 1 0
BITMAP
7800
7800
7800
FFC0
FFC0
FFC0
7800
7BE0
7FF0
7FF8
7C7C
783C
783C
783C
783C
783E
783C
783C
783C
787C
7FF8
7FF0
1FC0
ENDCHAR
STARTCHAR 0181
ENCODING 385
SWIDTH 510 0
DWIDTH 17 0
BBX 16 20 0 0
BITMAP
1FF0
7FFC
FFFE
E71E
E70E
E70E
C70E
071E
07FC
07F8
07FE
070E
070F
0707
0707
070F
078F
07FE
07FC
07F8
ENDCHAR
STARTCHAR 0182
ENCODING 386
SWIDTH 510 0
DWIDTH 17 0
BBX 13 20 2 0
BITMAP
FFE0
FFE0
FFE0
F000
F000
F000
F000
FF80
FFE0
FFF0
F0F8
F078
F078
F078
F078
F078
F0F8
FFF0
FFE0
FF80
ENDCHAR
STARTCHAR 0183
ENCODING 387
SWIDTH 510 0
DWIDTH 17 0
BBX 14 23 2 0
BITMAP
FFF0
FFF0
FFF0
F000
F000
F000
F000
F7C0
FFE0
FFF0
F8F8
F078
F078
F078
F07C
F07C
F078
F078
F078
F0F8
FFF0
FFE0
7F80
ENDCHAR
STARTCHAR 0184
ENCODING 388
SWIDTH 510 0
DWIDTH 17 0
BBX 16 23 0 0
BITMAP
0400
3C00
FC00
FC00
7C00
3C00
3C00
3DF0
3FF8
3FFC
3E3E
3C1E
3C1E
3C1E
3C1E
3C1F
3C1E
3C1E
3C1E
3C3C
3FFC
3FF8
1FE0
ENDCHAR
STARTCHAR 0185
ENCODING 389
SWIDTH 510 0
DWIDTH 17 0
BBX 15 21 0 0
BITMAP
0400
1C00
7C00
FC00
7C00
3C00
3C00
3C00
3FE0
3FFC
3FFC
3C3E
3C1E
3C1E
3C1E
3C1E
3C1E
3C3E
3FFC
3FF8
1FE0
ENDCHAR
STARTCHAR 0186
ENCODING 390
SWIDTH 510 0
DWIDTH 17 0
BBX 14 20 1 0
BITMAP
3F80
FFE0
FFF0
41F8
0078
007C
003C
003C
003C
003C
003C
003C
003C
003C
003C
0078
40F8
FFF0
FFE0
3F80
ENDCHAR
STARTCHAR 0187
ENCODING 391
SWIDTH 510 0
DWIDTH 17 0
BBX 16 23 1 0
BITMAP
000F
001F
001F
07F8
1FF8
3FF0
3E10
7800
7800
F000
F000
F000
F000
F000
F000
F000
F000
7800
7800
7C10
3FF8
1FF8
07F0
ENDCHAR
STARTCHAR 0188
ENCODING 392
SWIDTH 510 0
DWIDTH 17 0
BBX 16 18 1 0
BITMAP
001F
003F
07FF
1FF8
3FF0
3E10
7C00
7800
F800
F000
F000
F800
7800
7800
7E00
3FF8
1FF8
07F0
ENDCHAR
STARTCHAR 0189
ENCODING 393
SWIDTH 510 0
DWIDTH 17 0
BBX 15 20 1 0
BITMAP
7F80
7FE0
7FF0
78F8
787C
783C
783C
783C
FF3E
FF3E
FF3E
783E
783C
783C
783C
787C
78F8
7FF0
7FE0
7F80
ENDCHAR
STARTCHAR 018A
ENCODING 394
SWIDTH 510 0
DWIDTH 17 0
BBX 16 20 0 0
BITMAP
1FE0
7FF8
FFFC
F71E
E70E
E70E
E70F
070F
070F
070F
070F
070F
070F
070F
070E
070E
071E
07FC
07F8
07E0
ENDCHAR
STARTCHAR 018B
ENCODING 395
SWIDTH 510 0
DWIDTH 17 0
BBX 14 20 1 0
BITMAP
3FFC
3FFC
3FFC
003C
003C
003C
003C
0FFC
3FFC
7FFC
FC3C
F83C
F03C
F03C
F03C
F83C
7C3C
7FFC
3FFC
0FFC
ENDCHAR
STARTCHAR 018C
ENCODING 396
SWIDTH 510 0
DWIDTH 17 0
BBX 13 23 1 0
BITMAP
7FF8
7FF8
7FF8
0078
0078
0078
0078
0FF8
3FF8
7FF8
7878
F878
F078
F078
F078
F078
F078
F078
F878
7C78
7FF8
3FF8
0FF0
ENDCHAR
STARTCHAR 018D
ENCODING 397
SWIDTH 510 0
DWIDTH 17 0
BBX 15 21 1 -5
BITMAP
0FC0
3FF0
7FF8
787C
F83C
F03C
F03E
F03C
F83C
FC7C
7EF8
7FF0
3FE0
0FE0
07F0
01F0
00F0
30F0
3FF0
3FE0
3F80
ENDCHAR
STARTCHAR 018E
ENCODING 398
SWIDTH 510 0
DWIDTH 17 0
BBX 13 20 2 0
BITMAP
7FF8
7FF8
7FF8
0078
0078
0078
0078
0078
3FF8
3FF8
3FF8
0078
0078
0078
0078
0078
0078
FFF8
FFF8
FFF8
ENDCHAR
STARTCHAR 018F
ENCODING 399
SWIDTH 510 0
DWIDTH 17 0
BBX 14 20 1 0
BITMAP
3F80
7FE0
7FF0
40F8
0078
003C
003C
001C
001C
FFFC
FFFC
FFFC
F01C
F03C
F03C
703C
7878
3FF0
1FE0
0FC0
ENDCHAR
STARTCHAR 0190
ENCODING 400
SWIDTH 510 0
DWIDTH 17 0
BBX 15 20 1 0
BITMAP
07F0
1FFC
3FFC
7C18
7800
7800
7800
7C00
3FF0
1FF0
3FF0
7C00
F800
F000
F000
F800
FC0C
7FFE
3FFE
0FF0
ENDCHAR
STARTCHAR 0191
ENCODING 401
SWIDTH 510 0
DWIDTH 17 0
BBX 17 25 -2 -5
BITMAP
0FFF80
0FFF80
0FFF80
0F0000
0F0000
0F0000
0F0000
0F0000
0FFF00
0FFF00
0FFF00
0F0000
0F0000
0F0000
0F0000
0F0000
0F0000
0F0000
0F0000
0F0000
0F0000
0F0000
7F0000
7E0000
FC0000
ENDCHAR
STARTCHAR 0192
ENCODING 402
SWIDTH 510 0
DWIDTH 17 0
BBX 16 28 0 -5
BITMAP
00FE
03FF
03FF
07C3
0780
0780
0780
7FFE
7FFE
7FFE
0780
0780
0780
0780
0780
0780
0780
0780
0780
0780
0780
0780
0780
0F00
0F00
7F00
FE00
F800
ENDCHAR
STARTCHAR 0193
ENCODING 403
SWIDTH 510 0
DWIDTH 17 0
BBX 16 23 1 0
BITMAP
000F
001F
001F
07F8
1FF8
3FF0
3E10
7800
7800
F000
F000
F000
F03C
F03C
F03C
F03C
F03C
783C
783C
7C3C
3FFC
1FFC
07F8
ENDCHAR
STARTCHAR 0194
ENCODING 404
SWIDTH 510 0
DWIDTH 17 0
BBX 15 25 1 -5
BITMAP
F01E
F01E
F03C
783C
7878
3C78
3C70
1CF0
1EE0
0FE0
0FE0
07C0
07C0
07C0
0FC0
0FE0
1EE0
1CF0
3CF0
3C70
3C70
3CF0
1FF0
1FE0
07C0
ENDCHAR
STARTCHAR 0195
ENCODING 405
SWIDTH 510 0
DWIDTH 17 0
BBX 15 23 1 0
BITMAP
E000
E000
E000
E000
E000
E000
E000
FE0E
FF0E
FF8E
E78E
E38E
E38E
E38E
E38E
E38E
E38E
E38E
E38E
E39E
E3FC
E1FC
E0F8
ENDCHAR
STARTCHAR 0196
ENCODING 406
SWIDTH 510 0
DWIDTH 17 0
BBX 14 20 1 0
BITMAP
FFF0
FFF0
FFF0
0F00
0F00
0F00
0F00
0F00
0F00
0F00
0F00
0F00
0F00
0F00
0F00
0F00
0F8C
07FC
07FC
01F8
ENDCHAR
STARTCHAR 0197
ENCODING 407
SWIDTH 510 0
DWIDTH 17 0
BBX 13 20 2 0
BITMAP
FFF8
FFF8
FFF8
0F00
0F00
0F00
0F00
0F00
7FE0
7FE0
7FE0
0F00
0F00
0F00
0F00
0F00
0F00
FFF8
FFF8
FFF8
ENDCHAR
STARTCHAR 0198
ENCODING 408
SWIDTH 510 0
DWIDTH 17 0
BBX 16 20 1 0
BITMAP
F81E
F83F
F87F
F8FE
F9F2
FBE0
FBC0
FF80
FF80
FF80
FFC0
FFC0
FBE0
F9F0
F8F8
F8F8
F87C
F87C
F83E
F83E
ENDCHAR
STARTCHAR 0199
ENCODING 409
SWIDTH 510 0
DWIDTH 17 0
BBX 14 23 2 0
BITMAP
1F00
7E00
7E00
F800
F000
F000
F000
F0F8
F0F0
F1E0
F3E0
F7C0
F780
FF00
FF00
F780
F7C0
F3C0
F1E0
F1F0
F0F8
F078
F07C
ENDCHAR
STARTCHAR 019A
ENCODING 410
SWIDTH 510 0
DWIDTH 17 0
BBX 14 23 2 0
BITMAP
FF00
FF00
FF00
0F00
0F00
0F00
0F00
0F00
0F00
FFF8
FFF8
FFF8
0F00
0F00
0F00
0F00
0F00
0F00
0F80
0784
07FC
03FC
01F8
ENDCHAR
STARTCHAR 019B
ENCODING 411
SWIDTH 510 0
DWIDTH 17 0
BBX 15 23 1 0
BITMAP
F800
FE00
FF70
1FF0
1FE0
7F80
7F80
23C0
07C0
07E0
0FE0
0FE0
1FF0
1EF0
1EF0
3CF8
3CF8
7C78
787C
787C
F87C
F03C
F03E
ENDCHAR
STARTCHAR 019C
ENCODING 412
SWIDTH 510 0
DWIDTH 17 0
BBX 15 20 1 0
BITMAP
E00E
E00E
E00E
E00E
E00E
E00E
E00E
E38E
E38E
E38E
E38E
E38E
E38E
E38E
E38E
E38E
E38E
FFFE
7FFE
3CFC
ENDCHAR
STARTCHAR 019D
ENCODING 413
SWIDTH 510 0
DWIDTH 17 0
BBX 17 26 -2 -6
BITMAP
0E0780
0F0780
0F0780
0F8780
0F8780
0FC780
0FE780
0FE780
0EF780
0E7780
0E7F80
0E3F80
0E3F80
0E1F80
0E1F80
0E0F80
0E0F80
0E0780
0E0780
0E0780
0E0000
1E0000
1E0000
FE0000
FC0000
F80000
ENDCHAR
STARTCHAR 019E
ENCODING 414
SWIDTH 510 0
DWIDTH 17 0
BBX 13 21 2 -5
BITMAP
3F80
FFE0
FFF0
F0F0
F0F0
F0F0
F0F8
F0F8
F0F8
F0F8
F0F8
F0F8
F0F8
F0F8
F0F8
F0F8
00F8
00F8
00F8
00F8
00F8
ENDCHAR
STARTCHAR 019F
ENCODING 415
SWIDTH 510 0
DWIDTH 17 0
BBX 15 20 1 0
BITMAP
0FC0
1FF0
3FF8
7C78
783C
F03C
F03C
F03C
FFFE
FFFE
FFFE
F03E
F03C
F03C
F03C
783C
7C78
3FF8
1FF0
07C0
ENDCHAR
STARTCHAR 01A0
ENCODING 416
SWIDTH 510 0
DWIDTH 17 0
BBX 15 23 1 0
BITMAP
000E
000E
000E
0FCE
1FFE
3FFC
7C78
783C
F83C
F03C
F03C
F03E
F03E
F03E
F03E
F03C
F03C
F83C
783C
7C78
3FF8
1FF0
07C0
ENDCHAR
STARTCHAR 01A1
ENCODING 417
SWIDTH 510 0
DWIDTH 17 0
BBX 15 19 1 0
BITMAP
000E
000E
000E
0FDE
1FFE
3FFC
7C7C
783C
F03C
F03C
F03E
F03E
F03C
F03C
783C
7C78
3FF8
1FF0
07C0
ENDCHAR
STARTCHAR 01A2
ENCODING 418
SWIDTH 510 0
DWIDTH 17 0
BBX 15 20 1 0
BITMAP
3EF8
7FFC
7FFC
739C
E39E
E39E
E39E
E39E
E39E
E39E
E39E
E39E
E39E
E39E
E39E
E39E
739E
7F1E
7F1E
3E1E
ENDCHAR
STARTCHAR 01A3
ENCODING 419
SWIDTH 510 0
DWIDTH 17 0
BBX 15 22 1 -6
BITMAP
1EF8
7FFC
7FFC
FF9E
E3CE
E3CE
E1CE
E1CE
E1CE
E1CE
E3CE
E3CE
F38E
7F8E
7F0E
3E0E
000E
000E
000E
000E
000E
000E
ENDCHAR
STARTCHAR 01A4
ENCODING 420
SWIDTH 510 0
DWIDTH 17 0
BBX 16 20 0 0
BITMAP
1FF0
7FFC
FFFE
E71E
E70E
E70F
E70F
070F
070E
071E
07FE
07FC
07F0
0700
0700
0700
0700
0700
0700
0700
ENDCHAR
STARTCHAR 01A5
ENCODING 421
SWIDTH 510 0
DWIDTH 17 0
BBX 13 29 2 -6
BITMAP
1F00
7E00
7E00
F800
F000
F000
F000
FF80
FFE0
FFF0
F0F0
F078
F078
F078
F078
F078
F078
F078
F078
F0F8
FFF0
FFE0
F7C0
F000
F000
F000
F000
F000
F000
ENDCHAR
STARTCHAR 01A6
ENCODING 422
SWIDTH 510 0
DWIDTH 17 0
BBX 15 26 2 -3
BITMAP
F000
F000
F000
FF80
FFE0
FFF0
F1F0
F0F8
F078
F078
F078
F0F8
F1F0
FFE0
FFC0
FFC0
F3E0
F1E0
F1F0
F0F0
F0F8
F078
F07C
003C
003E
001E
ENDCHAR
STARTCHAR 01A7
ENCODING 423
SWIDTH 510 0
DWIDTH 17 0
BBX 14 20 1 0
BITMAP
1FC0
7FF0
3FF8
307C
003C
003C
007C
00FC
07F8
1FF0
3FC0
7E00
7C00
F800
F000
F800
7808
7FFC
3FFC
0FF0
ENDCHAR
STARTCHAR 01A8
ENCODING 424
SWIDTH 510 0
DWIDTH 17 0
BBX 12 16 2 0
BITMAP
7F80
7FE0
7FE0
60F0
00F0
00F0
03F0
0FE0
7FC0
FF00
F800
F000
F030
FFF0
7FF0
1FE0
ENDCHAR
STARTCHAR 01A9
ENCODING 425
SWIDTH 510 0
DWIDTH 17 0
BBX 15 20 1 0
BITMAP
FFFC
FFFC
7FFC
3C00
3E00
1F00
0F00
0780
03C0
03E0
03E0
07C0
0F80
1F00
3E00
7C00
F800
FFFE
FFFE
FFFE
ENDCHAR
STARTCHAR 01AA
ENCODING 426
SWIDTH 510 0
DWIDTH 17 0
BBX 15 29 0 -6
BITMAP
1F00
3FC0
7FC0
F3E0
F1E0
F1E0
F1E0
7FE0
7FE0
1FE0
01E0
01E0
01E0
01E0
01E0
01E0
01E0
01E0
01E0
01E0
01E0
01E0
01E0
01E0
01E0
01F0
00FE
00FE
003E
ENDCHAR
STARTCHAR 01AB
ENCODING 427
SWIDTH 510 0
DWIDTH 17 0
BBX 15 26 1 -6
BITMAP
0F00
0F00
0F00
0F00
FFFC
FFFC
FFFC
0F00
0F00
0F00
0F00
0F00
0F00
0F00
0F00
0F00
0F04
0FFE
07FE
01FE
001E
001E
001E
01FC
01FC
01F0
ENDCHAR
STARTCHAR 01AC
ENCODING 428
SWIDTH 510 0
DWIDTH 17 0
BBX 16 20 0 0
BITMAP
1FFF
7FFF
7FFF
F1E0
F1E0
F1E0
71E0
01E0
01E0
01E0
01E0
01E0
01E0
01E0
01E0
01E0
01E0
01E0
01E0
01E0
ENDCHAR
STARTCHAR 01AD
ENCODING 429
SWIDTH 510 0
DWIDTH 17 0
BBX 15 23 1 0
BITMAP
01FC
07FC
07FC
0F84
0F00
0F00
0F00
FFFC
FFFC
FFFC
0F00
0F00
0F00
0F00
0F00
0F00
0F00
0F00
0F00
0F04
0FFE
07FE
01FC
ENDCHAR
STARTCHAR 01AE
ENCODING 430
SWIDTH 510 0
DWIDTH 17 0
BBX 15 26 1 -6
BITMAP
FFFE
FFFE
FFFE
0780
0780
0780
0780
0780
0780
0780
0780
0780
0780
0780
0780
0780
0780
0780
0780
0780
0780
0780
07C0
03F8
03F8
00F8
ENDCHAR
STARTCHAR 01AF
ENCODING 431
SWIDTH 510 0
DWIDTH 17 0
BBX 16 23 1 0
BITMAP
000F
000F
000F
F07E
F07C
F070
F070
F070
F070
F070
F070
F070
F070
F070
F070
F070
F070
F070
70F0
78F0
7FE0
3FE0
1F80
ENDCHAR
STARTCHAR 01B0
ENCODING 432
SWIDTH 510 0
DWIDTH 17 0
BBX 15 18 1 0
BITMAP
000E
001E
F0FE
F0FE
F0F8
F0F0
F0F0
F0F0
F0F0
F0F0
F0F0
F0F0
F0F0
70F0
78F0
7FF0
3FF0
1FC0
ENDCHAR
STARTCHAR 01B1
ENCODING 433
SWIDTH 510 0
DWIDTH 17 0
BBX 16 20 0 0
BITMAP
FE7F
FE7F
FE7F
1E3C
3C3C
7C1E
781E
780F
780F
F80F
F80F
F80F
F80F
780F
781F
7C1E
3C3E
3FFC
1FF8
07E0
ENDCHAR
STARTCHAR 01B2
ENCODING 434
SWIDTH 510 0
DWIDTH 17 0
BBX 15 20 1 0
BITMAP
F3E0
F3F8
F3F8
F07C
F03C
F03C
F03C
F03C
F03E
F03E
F03E
F03E
F03E
F03C
F83C
783C
7878
7FF8
3FF0
0FC0
ENDCHAR
STARTCHAR 01B3
ENCODING 435
SWIDTH 510 0
DWIDTH 17 0
BBX 16 20 1 0
BITMAP
F01F
F03F
F87E
7870
7870
38E0
3CE0
3DE0
1FC0
1FC0
0F80
0F80
0780
0780
0780
0780
0780
0780
0780
0780
ENDCHAR
STARTCHAR 01B4
ENCODING 436
SWIDTH 510 0
DWIDTH 17 0
BBX 15 21 1 -5
BITMAP
F01E
F03E
F87E
787E
7870
7CF0
3CF0
3CF0
3CE0
1FE0
1FE0
0FC0
0FC0
0FC0
0780
0780
0780
8F00
FF00
FE00
F800
ENDCHAR
STARTCHAR 01B5
ENCODING 437
SWIDTH 510 0
DWIDTH 17 0
BBX 13 20 2 0
BITMAP
FFF8
FFF8
FFF8
00F0
01F0
01E0
03E0
03C0
0780
FFF8
FFF8
FFF8
1E00
3C00
7C00
7800
F800
FFF8
FFF8
FFF8
ENDCHAR
STARTCHAR 01B6
ENCODING 438
SWIDTH 510 0
DWIDTH 17 0
BBX 12 16 2 0
BITMAP
7FF0
7FF0
7FF0
01E0
03E0
07C0
7FF0
7FF0
7FF0
1E00
3C00
7C00
7800
FFF0
FFF0
FFF0
ENDCHAR
STARTCHAR 01B7
ENCODING 439
SWIDTH 510 0
DWIDTH 17 0
BBX 15 20 1 0
BITMAP
7FFC
7FFC
7FFC
0078
00F0
01E0
03C0
0780
07E0
07F8
07FC
007E
003E
001E
001E
003E
607C
FFFC
FFF8
3FC0
ENDCHAR
STARTCHAR 01B8
ENCODING 440
SWIDTH 510 0
DWIDTH 17 0
BBX 15 20 1 0
BITMAP
7FFC
7FFC
7FFC
3C00
1E00
0F00
0700
0380
0FC0
3FE0
7FE0
7C00
F800
F800
F800
7800
7C04
7FFE
1FFE
07F8
ENDCHAR
STARTCHAR 01B9
ENCODING 441
SWIDTH 510 0
DWIDTH 17 0
BBX 13 22 2 -6
BITMAP
FFF8
FFF8
FFF8
7C00
3C00
3E00
1F00
0F80
0780
0FC0
3FC0
7FC0
FC00
F000
F000
F000
F000
F000
FC18
7FF8
3FF8
0FF0
ENDCHAR
STARTCHAR 01BA
ENCODING 442
SWIDTH 510 0
DWIDTH 17 0
BBX 14 22 1 -6
BITMAP
7FF8
7FF8
7FF8
00F8
01F0
03E0
07C0
0FE0
0FF0
0FF8
00FC
003C
003C
007C
01F8
1FF0
3FE0
7F00
7800
F000
7000
7000
ENDCHAR
STARTCHAR 01BB
ENCODING 443
SWIDTH 510 0
DWIDTH 17 0
BBX 14 20 1 0
BITMAP
1FC0
7FF0
FFF8
70F8
2078
0078
0078
00F8
01F0
7FFC
7FFC
7FFC
1F00
3E00
3C00
7C00
7800
FFFC
FFFC
FFFC
ENDCHAR
STARTCHAR 01BC
ENCODING 444
SWIDTH 510 0
DWIDTH 17 0
BBX 14 20 1 0
BITMAP
FFFC
FFFC
FFFC
1C00
1C00
3C00
3C00
3F00
3FE0
3FF8
03F8
007C
003C
003C
003C
003C
607C
7FF8
7FF0
3FC0
ENDCHAR
STARTCHAR 01BD
ENCODING 445
SWIDTH 510 0
DWIDTH 17 0
BBX 14 16 1 0
BITMAP
FFFC
FFFC
FFFC
3C00
3C00
3C00
3FE0
3FF8
3FF8
007C
003C
003C
207C
7FF8
7FF0
3FC0
ENDCHAR
STARTCHAR 01BE
ENCODING 446
SWIDTH 510 0
DWIDTH 17 0
BBX 14 20 2 0
BITMAP
1C00
3C00
3C00
3C00
FFF0
FFF0
FFF0
3C00
3C00
3E00
1F00
0FC0
07F0
01F8
0078
003C
6078
7FF8
7FF0
1FC0
ENDCHAR
STARTCHAR 01BF
ENCODING 447
SWIDTH 510 0
DWIDTH 17 0
BBX 13 21 2 -5
BITMAP
3F80
FFE0
FFF0
F0F8
F078
F078
F078
F078
F078
F078
F0F8
F1F0
F7F0
FFE0
FF80
FF00
FC00
F000
F000
F000
F000
ENDCHAR
STARTCHAR 01C0
ENCODING 448
SWIDTH 510 0
DWIDTH 17 0
BBX 4 28 6 -5
BITMAP
F0
F0
F0
F0
F0
F0
F0
F0
F0
F0
F0
F0
F0
F0
F0
F0
F0
F0
F0
F0
F0
F0
F0
F0
F0
F0
F0
F0
ENDCHAR
STARTCHAR 01C1
ENCODING 449
SWIDTH 510 0
DWIDTH 17 0
BBX 11 28 3 -5
BITMAP
F3E0
F3E0
F3E0
F3E0
F3E0
F3E0
F3E0
F3E0
F3E0
F3E0
F3E0
F3E0
F3E0
F3E0
F3E0
F3E0
F3E0
F3E0
F3E0
F3E0
F3E0
F3E0
F3E0
F3E0
F3E0
F3E0
F3E0
F3E0
ENDCHAR
STARTCHAR 01C2
ENCODING 450
SWIDTH 510 0
DWIDTH 17 0
BBX 15 28 1 -5
BITMAP
0780
0780
0780
0780
0780
0780
0780
0780
0780
FFFE
FFFE
FFFE
0780
0780
0780
FFFE
FFFE
FFFE
0780
0780
0780
0780
0780
0780
0780
0780
0780
0780
ENDCHAR
STARTCHAR 01C3
ENCODING 451
SWIDTH 510 0
DWIDTH 17 0
BBX 5 20 6 0
BITMAP
F8
F8
F8
F8
F8
F8
F8
F8
F0
F0
F0
F0
70
00
00
70
F8
F8
F8
70
ENDCHAR
STARTCHAR 01C4
ENCODING 452
SWIDTH 510 0
DWIDTH 17 0
BBX 16 27 1 0
BITMAP
0042
00F7
007E
001C
0008
0000
0000
F87E
FC7E
FE7E
CE0E
C70E
C70C
C71C
C71C
C71C
C718
C738
C738
C738
C730
C770
C770
CE70
FEFE
FCFE
F8FE
ENDCHAR
STARTCHAR 01C5
ENCODING 453
SWIDTH 510 0
DWIDTH 17 0
BBX 16 23 1 0
BITMAP
0042
00E7
007E
F81C
FC08
FE00
CE00
C77E
C77E
C77E
C70E
C70E
C71C
C71C
C71C
C738
C738
C738
C770
CE70
FE7E
FC7E
F87E
ENDCHAR
STARTCHAR 01C6
ENCODING 454
SWIDTH 510 0
DWIDTH 17 0
BBX 17 23 0 0
BITMAP
03A100
03F380
03BF00
038E00
038400
038000
038000
1FBF00
3FBF00
7FBF00
738700
738700
E38E00
E38E00
E38E00
E39C00
E39C00
E39C00
63B800
73B800
7FBF00
3FBF00
1F3F00
ENDCHAR
STARTCHAR 01C7
ENCODING 455
SWIDTH 510 0
DWIDTH 17 0
BBX 15 20 1 0
BITMAP
C00E
C00E
C00E
C00E
C00E
C00E
C00E
C00E
C00E
C00E
C00E
C00E
C00E
C00E
C00E
C00E
C01E
FE7C
FE7C
FE70
ENDCHAR
STARTCHAR 01C8
ENCODING 456
SWIDTH 510 0
DWIDTH 17 0
BBX 15 28 1 -6
BITMAP
001C
001E
E01E
E01C
E000
E000
E01C
E01C
E01C
E01C
E01C
E01C
E01C
E01C
E01C
E01C
E01C
E01C
E01C
FF9C
FF9C
FF9C
001C
001C
001C
01FC
01F8
01F0
ENDCHAR
STARTCHAR 01C9
ENCODING 457
SWIDTH 510 0
DWIDTH 17 0
BBX 13 29 2 -6
BITMAP
E000
E038
E078
E078
E038
E000
E000
E038
E038
E038
E038
E038
E038
E038
E038
E038
E038
E038
E038
F038
FC38
7C38
1C38
0038
0038
0070
07F0
07E0
07C0
ENDCHAR
STARTCHAR 01CA
ENCODING 458
SWIDTH 510 0
DWIDTH 17 0
BBX 15 20 1 0
BITMAP
C70E
C70E
E70E
E70E
E70E
E70E
F70E
D70E
D70E
DF0E
DF0E
DF0E
CF0E
CF0E
CF0E
CF0E
C71E
C77C
C77C
C770
ENDCHAR
STARTCHAR 01CB
ENCODING 459
SWIDTH 510 0
DWIDTH 17 0
BBX 14 28 1 -6
BITMAP
001C
003C
C73C
C71C
E700
E700
E71C
E71C
F71C
D71C
D71C
DF1C
DF1C
DF1C
CF1C
CF1C
CF1C
CF1C
C71C
C71C
C71C
C71C
001C
001C
0038
03F8
03F0
03E0
ENDCHAR
STARTCHAR 01CC
ENCODING 460
SWIDTH 510 0
DWIDTH 17 0
BBX 15 27 1 -6
BITMAP
001C
001E
001E
001C
0000
7E1C
FF1C
FF9C
C39C
C39C
C39C
C39C
C39C
C39C
C39C
C39C
C39C
C39C
C39C
C39C
C39C
001C
001C
001C
01FC
01F8
01F0
ENDCHAR
STARTCHAR 01CD
ENCODING 461
SWIDTH 510 0
DWIDTH 17 0
BBX 16 28 0 0
BITMAP
0410
0E30
0F70
07E0
01C0
0080
0000
0000
03E0
03E0
07E0
07F0
07F0
0F70
0E78
0E78
1E78
1E38
1E3C
1C3C
3FFC
3FFE
3FFE
781E
781E
781F
780F
F80F
ENDCHAR
STARTCHAR 01CE
ENCODING 462
SWIDTH 510 0
DWIDTH 17 0
BBX 14 23 1 0
BITMAP
0820
1C60
1EE0
0FC0
0380
0100
0000
3FC0
3FF0
3FF8
2078
0078
003C
0FFC
3FFC
7FFC
783C
F03C
F03C
783C
7FFC
3FFC
0FF0
ENDCHAR
STARTCHAR 01CF
ENCODING 463
SWIDTH 510 0
DWIDTH 17 0
BBX 13 28 2 0
BITMAP
1040
38C0
3DC0
1F80
0700
0200
0000
0000
FFF8
FFF8
FFF8
0F00
0F00
0F00
0F00
0F00
0F00
0F00
0F00
0F00
0F00
0F00
0F00
0F00
0F00
FFF8
FFF8
FFF8
ENDCHAR
STARTCHAR 01D0
ENCODING 464
SWIDTH 510 0
DWIDTH 17 0
BBX 14 23 1 0
BITMAP
1040
18E0
1DE0
0FC0
0700
0200
0000
FF80
FF80
FF80
0F80
0F80
0F80
0F80
0F80
0F80
0F80
0780
0780
0784
07FC
03FC
01F8
ENDCHAR
STARTCHAR 01D1
ENCODING 465
SWIDTH 510 0
DWIDTH 17 0
BBX 15 28 1 0
BITMAP
0820
1C60
1EE0
0FC0
0380
0100
0000
0000
0FC0
1FF0
3FF8
7C78
783C
F83C
F03C
F03C
F03E
F03E
F03E
F03E
F03C
F03C
F83C
783C
7C78
3FF8
1FF0
07C0
ENDCHAR
STARTCHAR 01D2
ENCODING 466
SWIDTH 510 0
DWIDTH 17 0
BBX 15 23 1 0
BITMAP
0820
1C60
1EE0
0FC0
0380
0100
0000
07C0
1FF0
3FF8
7C7C
783C
F03C
F03C
F03E
F03E
F03C
F03C
783C
7C78
3FF8
1FF0
07C0
ENDCHAR
STARTCHAR 01D3
ENCODING 467
SWIDTH 510 0
DWIDTH 17 0
BBX 14 28 1 0
BITMAP
0820
1C60
1EE0
0FC0
0380
0100
0000
0000
F03C
F03C
F03C
F03C
F03C
F03C
F03C
F03C
F03C
F03C
F03C
F03C
F03C
F03C
F03C
783C
787C
7FF8
3FF0
0FE0
ENDCHAR
STARTCHAR 01D4
ENCODING 468
SWIDTH 510 0
DWIDTH 17 0
BBX 12 23 2 0
BITMAP
1040
38C0
3DC0
1F80
0700
0200
0000
F0F0
F0F0
F0F0
F0F0
F0F0
F0F0
F0F0
F0F0
F0F0
F0F0
F0F0
F0F0
F8F0
7FF0
3FF0
1FE0
ENDCHAR
STARTCHAR 01D5
ENCODING 469
SWIDTH 510 0
DWIDTH 17 0
BBX 14 27 1 0
BITMAP
1FE0
1FE0
0000
1C60
1CF0
1CF0
1C60
0000
F03C
F03C
F03C
F03C
F03C
F03C
F03C
F03C
F03C
F03C
F03C
F03C
F03C
F03C
783C
787C
7FF8
3FF0
0FC0
ENDCHAR
STARTCHAR 01D6
ENCODING 470
SWIDTH 510 0
DWIDTH 17 0
BBX 12 24 2 0
BITMAP
3FC0
3FC0
0000
38C0
39E0
38C0
0000
0000
F0F0
F0F0
F0F0
F0F0
F0F0
F0F0
F0F0
F0F0
F0F0
F0F0
F0F0
F0F0
F8F0
7FF0
3FF0
1FE0
ENDCHAR
STARTCHAR 01D7
ENCODING 471
SWIDTH 510 0
DWIDTH 17 0
BBX 14 27 1 0
BITMAP
0180
0380
3FB0
3B78
3878
3830
0000
0000
F03C
F03C
F03C
F03C
F03C
F03C
F03C
F03C
F03C
F03C
F03C
F03C
F03C
F03C
783C
787C
7FF8
3FF0
0FE0
ENDCHAR
STARTCHAR 01D8
ENCODING 472
SWIDTH 510 0
DWIDTH 17 0
BBX 12 26 2 0
BITMAP
0080
01C0
03C0
0780
0700
7270
F0F0
7070
0000
0000
F0F0
F0F0
F0F0
F0F0
F0F0
F0F0
F0F0
F0F0
F0F0
F0F0
F0F0
F0F0
F8F0
7FF0
3FF0
1FE0
ENDCHAR
STARTCHAR 01D9
ENCODING 473
SWIDTH 510 0
DWIDTH 17 0
BBX 14 27 1 0
BITMAP
0480
0FC0
3BB0
3978
3878
3830
0000
0000
F03C
F03C
F03C
F03C
F03C
F03C
F03C
F03C
F03C
F03C
F03C
F03C
F03C
F03C
783C
787C
7FF8
3FF0
0FE0
ENDCHAR
STARTCHAR 01DA
ENCODING 474
SWIDTH 510 0
DWIDTH 17 0
BBX 12 25 2 0
BITMAP
10C0
39E0
1F80
0F00
7270
F0F0
7070
0000
0000
F0F0
F0F0
F0F0
F0F0
F0F0
F0F0
F0F0
F0F0
F0F0
F0F0
F0F0
F0F0
F8F0
7FF0
3FF0
1FE0
ENDCHAR
STARTCHAR 01DB
ENCODING 475
SWIDTH 510 0
DWIDTH 17 0
BBX 14 27 1 0
BITMAP
0200
0700
3FB0
3978
3878
3830
0000
0000
F03C
F03C
F03C
F03C
F03C
F03C
F03C
F03C
F03C
F03C
F03C
F03C
F03C
F03C
783C
787C
7FF8
3FF0
0FE0
ENDCHAR
STARTCHAR 01DC
ENCODING 476
SWIDTH 510 0
DWIDTH 17 0
BBX 12 26 2 0
BITMAP
0800
1C00
1C00
0E00
0700
7270
F0F0
7070
0000
0000
F0F0
F0F0
F0F0
F0F0
F0F0
F0F0
F0F0
F0F0
F0F0
F0F0
F0F0
F0F0
F8F0
7FF0
3FF0
1FE0
ENDCHAR
STARTCHAR 01DD
ENCODING 477
SWIDTH 510 0
DWIDTH 17 0
BBX 14 16 1 0
BITMAP
3F80
7FE0
7FF8
40F8
007C
003C
003C
FFFC
FFFC
F03C
F03C
F07C
7878
7FF8
3FE0
0FC0
ENDCHAR
STARTCHAR 01DE
ENCODING 478
SWIDTH 510 0
DWIDTH 17 0
BBX 16 27 0 0
BITMAP
0FF0
0FF0
0000
0E30
0E78
0E78
0E30
0000
03E0
03E0
07E0
07F0
07F0
0F70
0F78
0E78
1E78
1E3C
1C3C
3C3C
3FFE
3FFE
7FFE
781E
781F
781F
F80F
ENDCHAR
STARTCHAR 01DF
ENCODING 479
SWIDTH 510 0
DWIDTH 17 0
BBX 14 24 1 0
BITMAP
1FE0
1FE0
0000
1C60
1CF0
1C60
0000
0000
3FC0
3FF0
3FF8
2078
0078
003C
0FFC
3FFC
7FFC
783C
F03C
F03C
783C
7FFC
3FFC
0FF0
ENDCHAR
STARTCHAR 01E0
ENCODING 480
SWIDTH 510 0
DWIDTH 17 0
BBX 16 27 0 0
BITMAP
0FF0
0FF0
0000
0180
03C0
03C0
01C0
0000
03E0
03E0
07E0
07F0
07F0
0F70
0F78
0E78
1E78
1E3C
1C3C
3C3C
3FFE
3FFE
7FFE
781E
781F
781F
F80F
ENDCHAR
STARTCHAR 01E1
ENCODING 481
SWIDTH 510 0
DWIDTH 17 0
BBX 14 24 1 0
BITMAP
1FE0
1FE0
0000
0380
0780
0380
0000
0000
3FC0
3FF0
3FF8
2078
0078
003C
0FFC
3FFC
7FFC
783C
F03C
F03C
783C
7FFC
3FFC
0FF0
ENDCHAR
STARTCHAR 01E2
ENCODING 482
SWIDTH 510 0
DWIDTH 17 0
BBX 16 26 0 0
BITMAP
03FE
03FE
03FE
0000
0000
0000
03FF
03FF
03FF
07F0
07F0
07F0
0EF0
0EF0
0EFE
1EFE
1CFE
1CF0
3FF0
3FF0
3FF0
78F0
78F0
78FF
78FF
F8FF
ENDCHAR
STARTCHAR 01E3
ENCODING 483
SWIDTH 510 0
DWIDTH 17 0
BBX 15 21 1 0
BITMAP
1FF0
1FF0
1FF0
0000
0000
3C78
7FFC
7FFC
47DE
038E
038E
3F8E
7FFE
FFFE
E380
E380
E3C0
E3C0
FFFC
7FFC
3E7C
ENDCHAR
STARTCHAR 01E4
ENCODING 484
SWIDTH 510 0
DWIDTH 17 0
BBX 15 20 1 0
BITMAP
07F0
1FF8
3FF8
3E18
7800
7800
F000
F000
F000
F078
F078
F1FE
F1FE
F1FE
F878
7878
7C78
3FF8
1FF8
07F0
ENDCHAR
STARTCHAR 01E5
ENCODING 485
SWIDTH 510 0
DWIDTH 17 0
BBX 15 21 1 -5
BITMAP
0FF0
1FF8
3FF8
7C78
7878
F3FE
F3FE
F3FE
F078
F078
F878
78F8
7FF8
3FF8
1F78
0078
00F8
40F0
7FF0
7FE0
3F80
ENDCHAR
STARTCHAR 01E6
ENCODING 486
SWIDTH 510 0
DWIDTH 17 0
BBX 14 28 1 0
BITMAP
0410
0E38
0770
03E0
01C0
0080
0000
0000
03FC
0FFC
1FFC
3E08
7C00
7800
F000
F000
F000
F03C
F03C
F03C
F03C
F03C
783C
783C
7C3C
3FFC
1FFC
07FC
ENDCHAR
STARTCHAR 01E7
ENCODING 487
SWIDTH 510 0
DWIDTH 17 0
BBX 13 28 1 -5
BITMAP
0820
1C70
0EF0
07C0
0380
0100
0000
07F0
1FF8
3FF8
7C78
7878
F078
F078
F078
F078
F078
F878
7878
7FF8
3FF8
0FF8
0078
0078
60F8
7FF0
7FE0
3F80
ENDCHAR
STARTCHAR 01E8
ENCODING 488
SWIDTH 510 0
DWIDTH 17 0
BBX 15 28 1 0
BITMAP
0820
1C60
1EE0
0FC0
0380
0100
0000
0000
F83C
F87C
F878
F8F0
F9F0
F9E0
FBC0
FFC0
FF80
FF00
FF80
FFC0
FBE0
F9F0
F8F0
F8F8
F87C
F87C
F83E
F83E
ENDCHAR
STARTCHAR 01E9
ENCODING 489
SWIDTH 510 0
DWIDTH 17 0
BBX 14 27 2 0
BITMAP
4300
E700
7F00
3C00
1800
0000
0000
F000
F000
F000
F000
F0F8
F0F0
F1F0
F1E0
F3C0
F780
F700
FE00
FF00
F780
F3C0
F3E0
F1F0
F0F8
F078
F07C
ENDCHAR
STARTCHAR 01EA
ENCODING 490
SWIDTH 510 0
DWIDTH 17 0
BBX 15 26 1 -6
BITMAP
0FC0
1FF0
3FF8
7C78
783C
F83C
F03C
F03C
F03E
F03E
F03E
F03E
F03E
F03C
F83C
783C
7C7C
3FF8
1FF0
0FE0
03C0
0780
0700
0F00
07C0
07C0
ENDCHAR
STARTCHAR 01EB
ENCODING 491
SWIDTH 510 0
DWIDTH 17 0
BBX 15 22 1 -6
BITMAP
07C0
1FF0
3FF8
7C78
783C
F03C
F03C
F03E
F03E
F03E
F03C
783C
7C7C
3FF8
1FF0
0FE0
03C0
0780
0700
0700
07E0
03E0
ENDCHAR
STARTCHAR 01EC
ENCODING 492
SWIDTH 510 0
DWIDTH 17 0
BBX 15 32 1 -6
BITMAP
1FF0
1FF0
1FF0
0000
0000
0000
0FC0
1FF0
3FF8
7C78
783C
F83C
F03C
F03C
F03E
F03E
F03E
F03E
F03E
F03C
F83C
783C
7C7C
3FF8
1FF0
0FE0
03C0
0780
0700
0F00
07C0
07C0
ENDCHAR
STARTCHAR 01ED
ENCODING 493
SWIDTH 510 0
DWIDTH 17 0
BBX 15 27 1 -6
BITMAP
1FF0
1FF0
1FF0
0000
0000
07C0
1FF0
3FF8
7C78
783C
F03C
F03C
F03E
F03E
F03E
F03C
783C
7C7C
3FF8
1FF0
0FE0
03C0
0780
0700
0700
07E0
03E0
ENDCHAR
STARTCHAR 01EE
ENCODING 494
SWIDTH 510 0
DWIDTH 17 0
BBX 15 28 1 0
BITMAP
0820
1C60
1EE0
0FC0
0380
0100
0000
0000
7FFC
7FFC
7FFC
0078
00F0
01E0
03C0
0780
07E0
07F8
07FC
007E
003E
001E
001E
003E
607C
FFFC
FFF8
3FC0
ENDCHAR
STARTCHAR 01EF
ENCODING 495
SWIDTH 510 0
DWIDTH 17 0
BBX 14 28 1 -5
BITMAP
0820
1C60
1EE0
0FC0
0380
0100
0000
7FF8
7FF8
7FF8
00F8
01F0
01E0
03C0
07C0
0F80
0FC0
0FF0
00F8
0078
0078
007C
007C
0078
40F8
FFF0
FFE0
3FC0
ENDCHAR
STARTCHAR 01F0
ENCODING 496
SWIDTH 510 0
DWIDTH 17 0
BBX 11 28 2 -5
BITMAP
1040
38C0
3DC0
1F80
0700
0200
0000
7FE0
7FE0
7FE0
01E0
01E0
01E0
01E0
01E0
01E0
01E0
01E0
01E0
01E0
01E0
01E0
01E0
01E0
43E0
FFC0
FFC0
3F00
ENDCHAR
STARTCHAR 01F1
ENCODING 497
SWIDTH 510 0
DWIDTH 17 0
BBX 15 20 1 0
BITMAP
F87E
FC7E
FE7E
CE0E
C70E
C70C
C71C
C71C
C71C
C718
C738
C738
C738
C730
C770
C770
CE70
FEFE
FCFE
F8FE
ENDCHAR
STARTCHAR 01F2
ENCODING 498
SWIDTH 510 0
DWIDTH 17 0
BBX 15 20 1 0
BITMAP
F800
FC00
FE00
CE00
C77E
C77E
C77E
C70E
C70E
C71C
C71C
C71C
C738
C738
C738
C770
CE70
FE7E
FC7E
F87E
ENDCHAR
STARTCHAR 01F3
ENCODING 499
SWIDTH 510 0
DWIDTH 17 0
BBX 16 23 0 0
BITMAP
0180
0380
0380
0380
0380
0380
0380
1FBF
3FBF
7FBF
7387
7387
E38E
E38E
E38E
E39C
E39C
E39C
63B8
73B8
7FBF
3FBF
1F3F
ENDCHAR
STARTCHAR 01F4
ENCODING 500
SWIDTH 510 0
DWIDTH 17 0
BBX 14 28 1 0
BITMAP
0040
01C0
03E0
07E0
0780
0600
0000
0000
03FC
0FFC
1FFC
3E08
7C00
7800
F000
F000
F000
F03C
F03C
F03C
F03C
F03C
783C
783C
7C3C
3FFC
1FFC
07FC
ENDCHAR
STARTCHAR 01F5
ENCODING 501
SWIDTH 510 0
DWIDTH 17 0
BBX 13 28 1 -5
BITMAP
0040
01C0
03E0
0FE0
0780
0600
0000
07F0
1FF8
3FF8
7C78
7878
F078
F078
F078
F078
F078
F878
7878
7FF8
3FF8
0FF8
0078
0078
60F8
7FF0
7FE0
3F80
ENDCHAR
STARTCHAR 01F6
ENCODING 502
SWIDTH 510 0
DWIDTH 17 0
BBX 15 20 1 0
BITMAP
E380
E380
E380
E380
E38E
E38E
E38E
E38E
FF8E
FF8E
FF8E
E38E
E38E
E38E
E38E
E39E
E39C
E3FC
E1FC
E0F8
ENDCHAR
STARTCHAR 01F7
ENCODING 503
SWIDTH 510 0
DWIDTH 17 0
BBX 14 25 2 -5
BITMAP
3FC0
FFE0
FFF0
F0F8
F078
F07C
F03C
F03C
F07C
F078
F078
F078
F0F0
F1F0
F3E0
F7C0
FF80
FE00
F800
F000
F000
F000
F000
F000
F000
ENDCHAR
STARTCHAR 01F8
ENCODING 504
SWIDTH 510 0
DWIDTH 17 0
BBX 13 28 2 0
BITMAP
0800
1E00
1F00
1F80
0780
0180
0000
0000
E078
F078
F078
F878
F878
FC78
FC78
EE78
EE78
E778
E778
E3F8
E3F8
E1F8
E1F8
E0F8
E0F8
E078
E078
E078
ENDCHAR
STARTCHAR 01F9
ENCODING 505
SWIDTH 510 0
DWIDTH 17 0
BBX 13 23 2 0
BITMAP
0800
1C00
3E00
3F80
0780
0100
0000
3F80
FFE0
FFF0
F0F0
F0F0
F0F0
F0F8
F0F8
F0F8
F0F8
F0F8
F0F8
F0F8
F0F8
F0F8
F0F8
ENDCHAR
STARTCHAR 01FA
ENCODING 506
SWIDTH 510 0
DWIDTH 17 0
BBX 16 27 0 0
BITMAP
0040
01E0
07C0
0200
03C0
03E0
0660
0660
03E0
07E0
07E0
07F0
07F0
0F70
0F78
0E78
1E78
1E3C
1E3C
3C3C
3FFC
3FFE
3FFE
781E
781F
781F
F80F
ENDCHAR
STARTCHAR 01FB
ENCODING 507
SWIDTH 510 0
DWIDTH 17 0
BBX 14 27 1 0
BITMAP
0080
03C0
0F80
0400
0000
0380
07C0
0CC0
0CC0
07C0
0380
3FC0
3FF0
3FF8
2078
0078
003C
0FFC
3FFC
7FFC
783C
F03C
F03C
783C
7FFC
3FFC
0FF0
ENDCHAR
STARTCHAR 01FC
ENCODING 508
SWIDTH 510 0
DWIDTH 17 0
BBX 16 28 0 0
BITMAP
0008
003C
007C
00FC
00F0
0040
0000
0000
03FF
03FF
03FF
07F0
07F0
07F0
0EF0
0EF0
0EFE
1EFE
1CFE
1CF0
3FF0
3FF0
3FF0
78F0
78F0
78FF
78FF
F8FF
ENDCHAR
STARTCHAR 01FD
ENCODING 509
SWIDTH 510 0
DWIDTH 17 0
BBX 15 23 1 0
BITMAP
0040
00E0
03E0
07E0
0780
0200
0000
3C78
7FFC
7FFC
47DE
038E
038E
3F8E
7FFE
FFFE
E380
E380
E3C0
E3C0
FFFC
7FFC
3E7C
ENDCHAR
STARTCHAR 01FE
ENCODING 510
SWIDTH 510 0
DWIDTH 17 0
BBX 15 29 1 -1
BITMAP
0040
01C0
03E0
0FE0
0780
0600
0010
0018
07F8
1FF8
3FF8
7CF8
78FC
F8FC
F1FC
F1FC
F3FE
F3BE
F7BE
F73E
FF3C
FE3C
FE3C
7C3C
7C78
3FF8
7FF0
7FC0
2000
ENDCHAR
STARTCHAR 01FF
ENCODING 511
SWIDTH 510 0
DWIDTH 17 0
BBX 15 23 1 -1
BITMAP
0040
01C0
03E0
0FE0
0780
0600
0008
07DC
1FFC
3FF8
7C78
78FC
F1FC
F3FC
F3FE
F7BE
FF3C
FE3C
7E3C
7C78
3FF8
7FF0
6FC0
ENDCHAR
STARTCHAR 0200
ENCODING 512
SWIDTH 510 0
DWIDTH 17 0
BBX 16 28 0 0
BITMAP
0840
18E0
3CF0
1E78
0F38
0610
0000
0000
03E0
03E0
07E0
07F0
07F0
0F70
0E78
0E78
1E78
1E38
1E3C
1C3C
3FFC
3FFE
3FFE
781E
781E
781F
780F
F80F
ENDCHAR
STARTCHAR 0201
ENCODING 513
SWIDTH 510 0
DWIDTH 17 0
BBX 14 23 1 0
BITMAP
1040
38C0
3DE0
1CF0
0E78
0430
0000
3FC0
3FF0
3FF8
2078
0078
003C
0FFC
3FFC
7FFC
783C
F03C
F03C
783C
7FFC
3FFC
0FF0
ENDCHAR
STARTCHAR 0202
ENCODING 514
SWIDTH 510 0
DWIDTH 17 0
BBX 16 27 0 0
BITMAP
03C0
07F0
0FF8
0E38
1E38
0000
0000
03E0
03E0
07E0
07F0
07F0
0F70
0E78
0E78
1E78
1E38
1E3C
1C3C
3FFC
3FFE
3FFE
781E
781E
781F
780F
F80F
ENDCHAR
STARTCHAR 0203
ENCODING 515
SWIDTH 510 0
DWIDTH 17 0
BBX 14 22 1 0
BITMAP
0780
0FE0
1FF0
1C70
3C70
0000
3FC0
3FF0
3FF8
2078
0078
003C
0FFC
3FFC
7FFC
783C
F03C
F03C
783C
7FFC
3FFC
0FF0
ENDCHAR
STARTCHAR 0204
ENCODING 516
SWIDTH 510 0
DWIDTH 17 0
BBX 13 28 2 0
BITMAP
2100
6380
F3C0
79E0
3CE0
1840
0000
0000
FFF0
FFF0
FFF0
F000
F000
F000
F000
F000
FFE0
FFE0
FFE0
F000
F000
F000
F000
F000
F000
FFF8
FFF8
FFF8
ENDCHAR
STARTCHAR 0205
ENCODING 517
SWIDTH 510 0
DWIDTH 17 0
BBX 14 23 1 0
BITMAP
1040
38C0
3DE0
1CF0
0E78
0430
0000
07C0
1FF0
3FF8
7C78
783C
F83C
F03C
FFFC
FFFC
FFFC
F000
7800
7C08
3FF8
1FF8
07F0
ENDCHAR
STARTCHAR 0206
ENCODING 518
SWIDTH 510 0
DWIDTH 17 0
BBX 13 27 2 0
BITMAP
0F80
1FC0
3FE0
38E0
38E0
0000
0000
FFF0
FFF0
FFF0
F000
F000
F000
F000
F000
FFE0
FFE0
FFE0
F000
F000
F000
F000
F000
F000
FFF8
FFF8
FFF8
ENDCHAR
STARTCHAR 0207
ENCODING 519
SWIDTH 510 0
DWIDTH 17 0
BBX 14 22 1 0
BITMAP
0780
0FE0
1FF0
1C70
3C70
0000
07C0
1FF0
3FF8
7C78
783C
F83C
F03C
FFFC
FFFC
FFFC
F000
7800
7C08
3FF8
1FF8
07F0
ENDCHAR
STARTCHAR 0208
ENCODING 520
SWIDTH 510 0
DWIDTH 17 0
BBX 13 28 2 0
BITMAP
2100
6380
F3C0
79E0
3CE0
1840
0000
0000
FFF8
FFF8
FFF8
0F00
0F00
0F00
0F00
0F00
0F00
0F00
0F00
0F00
0F00
0F00
0F00
0F00
0F00
FFF8
FFF8
FFF8
ENDCHAR
STARTCHAR 0209
ENCODING 521
SWIDTH 510 0
DWIDTH 17 0
BBX 14 23 1 0
BITMAP
2080
7180
7BC0
39E0
1CF0
0860
0000
FF80
FF80
FF80
0F80
0F80
0F80
0F80
0F80
0F80
0F80
0780
0780
0784
07FC
03FC
01F8
ENDCHAR
STARTCHAR 020A
ENCODING 522
SWIDTH 510 0
DWIDTH 17 0
BBX 13 27 2 0
BITMAP
0F00
1FC0
3FE0
38E0
78E0
0000
0000
FFF8
FFF8
FFF8
0F00
0F00
0F00
0F00
0F00
0F00
0F00
0F00
0F00
0F00
0F00
0F00
0F00
0F00
FFF8
FFF8
FFF8
ENDCHAR
STARTCHAR 020B
ENCODING 523
SWIDTH 510 0
DWIDTH 17 0
BBX 14 22 1 0
BITMAP
0F00
3FC0
3FC0
79E0
70E0
0000
FF80
FF80
FF80
0F80
0F80
0F80
0F80
0F80
0F80
0F80
0780
0780
0784
07FC
03FC
01F8
ENDCHAR
STARTCHAR 020C
ENCODING 524
SWIDTH 510 0
DWIDTH 17 0
BBX 15 28 1 0
BITMAP
1080
31C0
79E0
3CF0
1E70
0420
0000
0000
0FC0
1FF0
3FF8
7C78
783C
F83C
F03C
F03C
F03E
F03E
F03E
F03E
F03C
F03C
F83C
783C
7C78
3FF8
1FF0
07C0
ENDCHAR
STARTCHAR 020D
ENCODING 525
SWIDTH 510 0
DWIDTH 17 0
BBX 15 23 1 0
BITMAP
1080
31C0
79E0
3CF0
1E70
0420
0000
07C0
1FF0
3FF8
7C7C
783C
F03C
F03C
F03E
F03E
F03C
F03C
783C
7C78
3FF8
1FF0
07C0
ENDCHAR
STARTCHAR 020E
ENCODING 526
SWIDTH 510 0
DWIDTH 17 0
BBX 15 27 1 0
BITMAP
0780
0FE0
1FF0
1C70
3C70
0000
0000
0FC0
1FF0
3FF8
7C78
783C
F83C
F03C
F03C
F03E
F03E
F03E
F03E
F03C
F03C
F83C
783C
7C78
3FF8
1FF0
07C0
ENDCHAR
STARTCHAR 020F
ENCODING 527
SWIDTH 510 0
DWIDTH 17 0
BBX 15 22 1 0
BITMAP
0780
0FE0
1FF0
1C70
3C70
0000
07C0
1FF0
3FF8
7C7C
783C
F03C
F03C
F03E
F03E
F03C
F03C
783C
7C78
3FF8
1FF0
07C0
ENDCHAR
STARTCHAR 0210
ENCODING 528
SWIDTH 510 0
DWIDTH 17 0
BBX 14 28 2 0
BITMAP
4100
E380
F780
73C0
39E0
1040
0000
0000
FF80
FFE0
FFF0
F1F0
F0F8
F078
F078
F0F8
F1F0
FFF0
FFE0
FFC0
F3E0
F1E0
F1F0
F0F0
F0F8
F078
F07C
F03C
ENDCHAR
STARTCHAR 0211
ENCODING 529
SWIDTH 510 0
DWIDTH 17 0
BBX 12 23 3 0
BITMAP
4100
E380
F380
79C0
38E0
1040
0000
1FF0
FFF0
FFF0
F000
F000
F000
F000
F000
F000
F000
F000
F000
F000
F000
F000
F000
ENDCHAR
STARTCHAR 0212
ENCODING 530
SWIDTH 510 0
DWIDTH 17 0
BBX 14 27 2 0
BITMAP
1F00
3F80
7FC0
71C0
71C0
0000
0000
FF80
FFE0
FFF0
F1F0
F0F8
F078
F078
F0F8
F1F0
FFF0
FFE0
FFC0
F3E0
F1E0
F1F0
F0F0
F0F8
F078
F07C
F03C
ENDCHAR
STARTCHAR 0213
ENCODING 531
SWIDTH 510 0
DWIDTH 17 0
BBX 12 22 3 0
BITMAP
0F00
3FC0
3FC0
79E0
70E0
0000
1FF0
FFF0
FFF0
F000
F000
F000
F000
F000
F000
F000
F000
F000
F000
F000
F000
F000
ENDCHAR
STARTCHAR 0214
ENCODING 532
SWIDTH 510 0
DWIDTH 17 0
BBX 14 28 1 0
BITMAP
1080
31C0
79E0
3CF0
1E70
0420
0000
0000
F03C
F03C
F03C
F03C
F03C
F03C
F03C
F03C
F03C
F03C
F03C
F03C
F03C
F03C
F03C
783C
787C
7FF8
3FF0
0FE0
ENDCHAR
STARTCHAR 0215
ENCODING 533
SWIDTH 510 0
DWIDTH 17 0
BBX 12 23 2 0
BITMAP
2100
6380
F3C0
79E0
3CE0
0840
0000
F0F0
F0F0
F0F0
F0F0
F0F0
F0F0
F0F0
F0F0
F0F0
F0F0
F0F0
F0F0
F8F0
7FF0
3FF0
1FE0
ENDCHAR
STARTCHAR 0216
ENCODING 534
SWIDTH 510 0
DWIDTH 17 0
BBX 14 27 1 0
BITMAP
0780
0FE0
1FF0
1C70
3C70
0000
0000
F03C
F03C
F03C
F03C
F03C
F03C
F03C
F03C
F03C
F03C
F03C
F03C
F03C
F03C
F03C
783C
787C
7FF8
3FF0
0FE0
ENDCHAR
STARTCHAR 0217
ENCODING 535
SWIDTH 510 0
DWIDTH 17 0
BBX 12 22 2 0
BITMAP
0F00
1FC0
3FE0
38E0
78E0
0000
F0F0
F0F0
F0F0
F0F0
F0F0
F0F0
F0F0
F0F0
F0F0
F0F0
F0F0
F0F0
F8F0
7FF0
3FF0
1FE0
ENDCHAR
STARTCHAR 0218
ENCODING 536
SWIDTH 510 0
DWIDTH 17 0
BBX 14 26 1 -6
BITMAP
0FE0
3FF8
3FF8
7C10
7800
7800
7800
7C00
7F80
3FE0
0FF8
01F8
007C
003C
003C
003C
607C
7FF8
FFF0
3FE0
0000
0000
0380
0780
1F80
1F00
ENDCHAR
STARTCHAR 0219
ENCODING 537
SWIDTH 510 0
DWIDTH 17 0
BBX 13 22 2 -6
BITMAP
1FE0
3FF0
7FF0
F820
F000
F800
FF00
7FC0
3FE0
07F0
00F8
0078
E0F0
FFF0
FFE0
3F80
0000
0000
0700
0F00
3F00
3E00
ENDCHAR
STARTCHAR 021A
ENCODING 538
SWIDTH 510 0
DWIDTH 17 0
BBX 15 26 1 -6
BITMAP
FFFE
FFFE
FFFE
0780
0780
0780
0780
0780
0780
0780
0780
0780
0780
0780
0780
0780
0780
0780
0780
0780
0000
0000
0380
0380
0F80
0F00
ENDCHAR
STARTCHAR 021B
ENCODING 539
SWIDTH 510 0
DWIDTH 17 0
BBX 14 27 1 -6
BITMAP
0300
0F00
0F00
0F00
0F00
FFFC
FFFC
FFFC
0F00
0F00
0F00
0F00
0F00
0F00
0F00
0F00
0F00
0F04
0FFC
07FC
03FC
0000
0000
00E0
00E0
03E0
03C0
ENDCHAR
STARTCHAR 021C
ENCODING 540
SWIDTH 510 0
DWIDTH 17 0
BBX 14 25 1 -5
BITMAP
3F80
FFE0
7FF0
60F8
0078
0078
0038
0078
0078
01F0
1FE0
1FE0
1FF8
00F8
007C
003C
003C
003C
003C
003C
0078
01F8
FFF0
FFC0
FE00
ENDCHAR
STARTCHAR 021D
ENCODING 541
SWIDTH 510 0
DWIDTH 17 0
BBX 12 22 3 -6
BITMAP
7F00
FF80
FFC0
C3E0
01E0
01E0
01E0
03C0
07C0
1F00
1FC0
1FE0
03E0
01F0
01F0
01F0
01E0
03E0
0FC0
FF80
FF00
F800
ENDCHAR
STARTCHAR 021E
ENCODING 542
SWIDTH 510 0
DWIDTH 17 0
BBX 14 28 1 0
BITMAP
0820
1C60
1EE0
0FC0
0380
0100
0000
0000
F83C
F83C
F83C
F83C
F83C
F83C
F83C
F83C
FFFC
FFFC
FFFC
F83C
F83C
F83C
F83C
F83C
F83C
F83C
F83C
F83C
ENDCHAR
STARTCHAR 021F
ENCODING 543
SWIDTH 510 0
DWIDTH 17 0
BBX 13 27 2 0
BITMAP
4300
E700
7F00
3C00
1800
0000
0000
F000
F000
F000
F000
FF80
FFE0
FFF0
F0F0
F0F0
F0F0
F0F8
F0F8
F0F8
F0F8
F0F8
F0F8
F0F8
F0F8
F0F8
F0F8
ENDCHAR
STARTCHAR 0220
ENCODING 544
SWIDTH 510 0
DWIDTH 17 0
BBX 14 26 1 -6
BITMAP
3FC0
FFF0
FFF8
F878
F83C
F83C
F83C
F83C
F83C
F83C
F83C
F83C
F83C
F83C
F83C
F83C
F83C
F83C
F83C
F83C
003C
003C
003C
003C
003C
003C
ENDCHAR
STARTCHAR 0221
ENCODING 545
SWIDTH 510 0
DWIDTH 17 0
BBX 16 29 1 -6
BITMAP
0060
00E0
00E0
00E0
00E0
00E0
00E0
1EE0
7FE0
7FE0
F1E0
F0E0
E0E0
E0E0
E0E0
E0E0
E0E0
E0E0
F0E0
F0FC
7FFE
7FFF
1FE7
01E3
03E7
07E7
0F7F
0E7E
043C
ENDCHAR
STARTCHAR 0222
ENCODING 546
SWIDTH 510 0
DWIDTH 17 0
BBX 15 20 1 0
BITMAP
3C78
7878
7878
7878
7878
7878
7878
3CF0
1FE0
3FF0
7FF8
F87C
F03C
F03E
F03E
F03C
F87C
7FFC
3FF8
0FE0
ENDCHAR
STARTCHAR 0223
ENCODING 547
SWIDTH 510 0
DWIDTH 17 0
BBX 15 23 1 0
BITMAP
7878
7878
787C
787C
787C
787C
787C
7878
3CF8
1FE0
3FF0
7FF8
7C7C
F83C
F03C
F03E
F03E
F03C
F83C
7C7C
7FF8
3FF0
0FC0
ENDCHAR
STARTCHAR 0224
ENCODING 548
SWIDTH 510 0
DWIDTH 17 0
BBX 13 26 2 -6
BITMAP
FFF8
FFF8
FFF8
01F0
01F0
03E0
03C0
07C0
0780
0F80
1F00
1E00
3E00
3C00
7C00
7800
F000
FFF8
FFF8
FFF8
0038
0078
0078
03F0
03F0
07E0
ENDCHAR
STARTCHAR 0225
ENCODING 549
SWIDTH 510 0
DWIDTH 17 0
BBX 12 22 2 -6
BITMAP
7FF0
7FF0
7FF0
01F0
03E0
07C0
0780
0F80
1F00
1E00
3E00
7C00
7800
FFF0
FFF0
FFF0
0070
0070
0070
03F0
07E0
07C0
ENDCHAR
STARTCHAR 0226
ENCODING 550
SWIDTH 510 0
DWIDTH 17 0
BBX 16 27 0 0
BITMAP
01C0
03C0
03E0
03C0
01C0
0000
0000
03E0
03E0
07E0
07F0
07F0
0F70
0E78
0E78
1E78
1E38
1E3C
1C3C
3FFC
3FFE
3FFE
781E
781E
781F
780F
F80F
ENDCHAR
STARTCHAR 0227
ENCODING 551
SWIDTH 510 0
DWIDTH 17 0
BBX 14 22 1 0
BITMAP
0380
0780
07C0
0780
0380
0000
3FC0
3FF0
3FF8
2078
0078
003C
0FFC
3FFC
7FFC
783C
F03C
F03C
783C
7FFC
3FFC
0FF0
ENDCHAR
STARTCHAR 0228
ENCODING 552
SWIDTH 510 0
DWIDTH 17 0
BBX 13 26 2 -6
BITMAP
FFF0
FFF0
FFF0
F000
F000
F000
F000
F000
FFE0
FFE0
FFE0
F000
F000
F000
F000
F000
F000
FFF8
FFF8
FFF8
0700
0780
01C0
01C0
1FC0
1F00
ENDCHAR
STARTCHAR 0229
ENCODING 553
SWIDTH 510 0
DWIDTH 17 0
BBX 14 22 1 -6
BITMAP
07C0
1FF0
3FF8
7C7C
783C
F03C
FFFC
FFFC
FFFC
F000
F800
7800
7C08
3FF8
1FF8
0FF8
0380
03C0
00E0
00E0
07C0
0F80
ENDCHAR
STARTCHAR 022A
ENCODING 554
SWIDTH 510 0
DWIDTH 17 0
BBX 15 27 1 0
BITMAP
1FE0
1FE0
0000
1C60
1CF0
1CF0
1C60
07C0
1FF0
3FF8
7C78
783C
F83C
F03C
F03C
F03E
F03E
F03E
F03E
F03C
F03C
F03C
783C
7C78
3FF8
1FF0
0FC0
ENDCHAR
STARTCHAR 022B
ENCODING 555
SWIDTH 510 0
DWIDTH 17 0
BBX 15 24 1 0
BITMAP
1FE0
1FE0
0000
1C60
1CF0
1C60
0000
0000
07C0
1FF0
3FF8
7C7C
783C
F03C
F03C
F03E
F03E
F03C
F03C
783C
7C78
3FF8
1FF0
07C0
ENDCHAR
STARTCHAR 022C
ENCODING 556
SWIDTH 510 0
DWIDTH 17 0
BBX 15 27 1 0
BITMAP
1FE0
1FE0
0000
0E20
1FF0
1FE0
19C0
07C0
1FF0
3FF8
7C78
783C
F83C
F03C
F03C
F03E
F03E
F03E
F03E
F03C
F03C
F03C
783C
7C78
3FF8
1FF0
0FC0
ENDCHAR
STARTCHAR 022D
ENCODING 557
SWIDTH 510 0
DWIDTH 17 0
BBX 15 24 1 0
BITMAP
1FE0
1FE0
0000
0E20
1FF0
1FE0
09C0
0000
07C0
1FF0
3FF8
7C7C
783C
F03C
F03C
F03E
F03E
F03C
F03C
783C
7C78
3FF8
1FF0
07C0
ENDCHAR
STARTCHAR 022E
ENCODING 558
SWIDTH 510 0
DWIDTH 17 0
BBX 15 27 1 0
BITMAP
0380
0780
07C0
0780
0380
0000
0000
0FC0
1FF0
3FF8
7C78
783C
F83C
F03C
F03C
F03E
F03E
F03E
F03E
F03C
F03C
F83C
783C
7C78
3FF8
1FF0
07C0
ENDCHAR
STARTCHAR 022F
ENCODING 559
SWIDTH 510 0
DWIDTH 17 0
BBX 15 22 1 0
BITMAP
0380
0780
07C0
0780
0380
0000
07C0
1FF0
3FF8
7C7C
783C
F03C
F03C
F03E
F03E
F03C
F03C
783C
7C78
3FF8
1FF0
07C0
ENDCHAR
STARTCHAR 0230
ENCODING 560
SWIDTH 510 0
DWIDTH 17 0
BBX 15 27 1 0
BITMAP
1FE0
1FE0
0000
0300
0780
0780
0380
07C0
1FF0
3FF8
7C78
783C
F83C
F03C
F03C
F03E
F03E
F03E
F03E
F03C
F03C
F03C
783C
7C78
3FF8
1FF0
0FC0
ENDCHAR
STARTCHAR 0231
ENCODING 561
SWIDTH 510 0
DWIDTH 17 0
BBX 15 24 1 0
BITMAP
1FE0
1FE0
0000
0380
0780
0380
0000
0000
07C0
1FF0
3FF8
7C7C
783C
F03C
F03C
F03E
F03E
F03C
F03C
783C
7C78
3FF8
1FF0
07C0
ENDCHAR
STARTCHAR 0232
ENCODING 562
SWIDTH 510 0
DWIDTH 17 0
BBX 15 26 1 0
BITMAP
1FF0
1FF0
1FF0
0000
0000
0000
F01E
F03E
F83C
783C
7878
3C78
3C70
1EF0
1EE0
0FE0
0FC0
07C0
0780
0780
0780
0780
0780
0780
0780
0780
ENDCHAR
STARTCHAR 0233
ENCODING 563
SWIDTH 510 0
DWIDTH 17 0
BBX 14 26 1 -5
BITMAP
1FF0
1FF0
1FF0
0000
0000
F83C
783C
783C
783C
7C78
3C78
3C78
3E70
1EF0
1EF0
0FE0
0FE0
0FE0
07C0
07C0
0380
0780
8F80
FF00
FE00
FC00
ENDCHAR
STARTCHAR 0234
ENCODING 564
SWIDTH 510 0
DWIDTH 17 0
BBX 15 29 1 -6
BITMAP
FF80
FF80
FF80
0F80
0F80
0F80
0F80
0F80
0F80
0F80
0F80
0F80
0F80
0F80
0F80
0F80
0F80
0F80
0F80
0FF8
0FFC
0FFE
0F9E
0F8E
1F8E
3F9E
7BFE
31FC
10F0
ENDCHAR
STARTCHAR 0235
ENCODING 565
SWIDTH 510 0
DWIDTH 17 0
BBX 16 22 1 -6
BITMAP
7F00
FFC0
FFC0
E1E0
E1E0
E0E0
E0E0
E0E0
E0E0
E0E0
E0E0
E0E0
E0FC
E0FE
E0FF
E1E7
01E3
03E7
07E7
0F7F
0E7E
043C
ENDCHAR
STARTCHAR 0236
ENCODING 566
SWIDTH 510 0
DWIDTH 17 0
BBX 14 26 1 -6
BITMAP
0300
0F00
0F00
0F00
FFFC
FFFC
FFFC
0F00
0F00
0F00
0F00
0F00
0F00
0F00
0F00
0F00
0FF0
0FF8
0FFC
0F1C
1F1C
3F1C
7F1C
77FC
73F8
21F0
ENDCHAR
STARTCHAR 0237
ENCODING 567
SWIDTH 510 0
DWIDTH 17 0
BBX 11 21 2 -5
BITMAP
7FE0
7FE0
7FE0
01E0
01E0
01E0
01E0
01E0
01E0
01E0
01E0
01E0
01E0
01E0
01E0
01E0
01E0
43E0
FFC0
FFC0
3F00
ENDCHAR
STARTCHAR 0238
ENCODING 568
SWIDTH 510 0
DWIDTH 17 0
BBX 15 23 1 0
BITMAP
0380
0380
0380
0380
0380
0380
0380
3FF0
7FF8
7FFC
F79C
E39C
E39E
E39E
E39E
E39E
E39E
E39C
E39C
F39C
7FFC
3FF8
1EF0
ENDCHAR
STARTCHAR 0239
ENCODING 569
SWIDTH 510 0
DWIDTH 17 0
BBX 15 21 1 -5
BITMAP
1EF0
3FF8
7FFC
F39C
E39C
E39C
E39E
E39E
E39E
E39E
E39E
E39C
F79C
7FFC
7FF8
3FF0
0380
0380
0380
0380
0380
ENDCHAR
STARTCHAR 023A
ENCODING 570
SWIDTH 510 0
DWIDTH 17 0
BBX 16 26 0 -3
BITMAP
0018
0010
0030
03F0
03F0
07F0
07F0
0770
0F70
0E78
0EF8
1EF8
1EF8
1CFC
1DBC
3FFC
3FFE
3FFE
791E
7B1E
7B0F
7B0F
FB0F
0600
0600
0200
ENDCHAR
STARTCHAR 023B
ENCODING 571
SWIDTH 510 0
DWIDTH 17 0
BBX 15 26 1 -3
BITMAP
0018
001C
001C
03FC
0FFE
1FFE
3E76
7C70
7870
F0E0
F0E0
F0E0
F1C0
F1C0
F1C0
F380
FB80
7B80
7F00
7F0C
3FFC
1FFC
0FF8
0E00
1C00
0C00
ENDCHAR
STARTCHAR 023C
ENCODING 572
SWIDTH 510 0
DWIDTH 17 0
BBX 14 21 1 -3
BITMAP
0038
0030
03FC
0FFC
3FFC
3EEC
78E0
78C0
F1C0
F1C0
F1C0
FB80
FB80
7F80
7F04
3FFC
1FFC
0FFC
0600
0E00
0400
ENDCHAR
STARTCHAR 023D
ENCODING 573
SWIDTH 510 0
DWIDTH 17 0
BBX 14 20 1 0
BITMAP
3C00
3C00
3C00
3C00
3C00
3C00
3C00
3C00
FFE0
FFE0
FFE0
3C00
3C00
3C00
3C00
3C00
3C00
3FFC
3FFC
3FFC
ENDCHAR
STARTCHAR 023E
ENCODING 574
SWIDTH 510 0
DWIDTH 17 0
BBX 17 26 0 -3
BITMAP
000100
000380
000380
7FFF00
7FFE00
7FFE00
079C00
07B800
07B800
07F000
07E000
07E000
07C000
07C000
078000
078000
078000
0F8000
1F8000
1F8000
3F8000
3F8000
778000
E00000
E00000
400000
ENDCHAR
STARTCHAR 023F
ENCODING 575
SWIDTH 510 0
DWIDTH 17 0
BBX 14 22 1 -6
BITMAP
0FF0
1FF8
3FF8
7C10
7800
7C00
7F00
3FE0
1FF0
03F8
00F8
003C
607C
7FF8
7FF0
FFE0
7C00
3E00
1F00
0FF0
07F8
01F8
ENDCHAR
STARTCHAR 0240
ENCODING 576
SWIDTH 510 0
DWIDTH 17 0
BBX 14 21 2 -5
BITMAP
7FF0
7FF0
7FF0
01F0
03E0
07C0
0780
0F80
1F00
1E00
3C00
3C00
7800
F800
FC00
FE00
1F00
07C0
03F8
01F8
007C
ENDCHAR
STARTCHAR 0241
ENCODING 577
SWIDTH 510 0
DWIDTH 17 0
BBX 13 20 2 0
BITMAP
3F80
FFE0
FFF0
60F8
0078
0078
0078
00F8
03F0
07E0
0FC0
1F80
1F00
1E00
1E00
1E00
1E00
1E00
1E00
1E00
ENDCHAR
STARTCHAR 0242
ENCODING 578
SWIDTH 510 0
DWIDTH 17 0
BBX 13 16 2 0
BITMAP
3FC0
FFE0
7FF0
60F8
0078
00F8
01F0
03F0
0FE0
0F80
1F00
1E00
1E00
1E00
1E00
1E00
ENDCHAR
STARTCHAR 0243
ENCODING 579
SWIDTH 510 0
DWIDTH 17 0
BBX 14 20 1 0
BITMAP
3FC0
3FF0
3FF8
3C78
3C78
3C3C
3C78
3C78
3FF0
3FE0
3FF8
3C7C
FF3C
FF3C
FF3C
3C3C
3C7C
3FFC
3FF8
3FE0
ENDCHAR
STARTCHAR 0244
ENCODING 580
SWIDTH 510 0
DWIDTH 17 0
BBX 15 20 1 0
BITMAP
7878
7878
7878
7878
7878
7878
7878
FFFE
FFFE
FFFE
7878
7878
7878
7878
7878
7878
3CF8
3FF0
1FF0
0FC0
ENDCHAR
STARTCHAR 0245
ENCODING 581
SWIDTH 510 0
DWIDTH 17 0
BBX 16 20 0 0
BITMAP
03E0
03E0
07E0
07F0
07F0
0F70
0E78
0E78
1E78
1E38
1E3C
1C3C
3C3C
3C3E
3C1E
781E
781E
781F
780F
F80F
ENDCHAR
STARTCHAR 0246
ENCODING 582
SWIDTH 510 0
DWIDTH 17 0
BBX 14 26 2 -3
BITMAP
0008
001C
001C
FFF8
FFF8
FFF8
F070
F070
F070
F0E0
F0E0
FFF0
FFF0
FFF0
F380
F380
F300
F700
F700
F600
FFF8
FFF8
FFF8
1C00
3800
1800
ENDCHAR
STARTCHAR 0247
ENCODING 583
SWIDTH 510 0
DWIDTH 17 0
BBX 15 21 1 -3
BITMAP
0070
0060
07F0
1FF8
3FF8
7DFC
F9FC
F1FC
F19E
FFFE
FFFE
FFFE
F700
F700
FE08
7FF8
3FFC
1FF0
0C00
1C00
0800
ENDCHAR
STARTCHAR 0248
ENCODING 584
SWIDTH 510 0
DWIDTH 17 0
BBX 14 20 2 0
BITMAP
7FF0
7FF0
7FF0
01F0
01F0
01F0
01F0
01F0
0FFC
0FFC
0FFC
01F0
01F0
01F0
01E0
41E0
E3E0
FFC0
FF80
3F00
ENDCHAR
STARTCHAR 0249
ENCODING 585
SWIDTH 510 0
DWIDTH 17 0
BBX 14 29 2 -6
BITMAP
01C0
03E0
03E0
03E0
01C0
0000
0000
7FE0
7FE0
7FE0
01E0
01E0
01E0
7FFC
7FFC
7FFC
01E0
01E0
01E0
01E0
01E0
01E0
01E0
01E0
01E0
43E0
FFC0
FF80
3F00
ENDCHAR
STARTCHAR 024A
ENCODING 586
SWIDTH 510 0
DWIDTH 17 0
BBX 16 26 1 -6
BITMAP
0F80
1FE0
3FF0
78F0
7878
F078
F078
F078
F078
F078
F078
F078
F078
F078
F078
7878
78F8
3FF8
1FF8
0FB8
0038
003C
003C
003F
001F
000F
ENDCHAR
STARTCHAR 024B
ENCODING 587
SWIDTH 510 0
DWIDTH 17 0
BBX 16 22 1 -6
BITMAP
0FF0
1FF8
3FF8
7C78
7878
F078
F078
F078
F078
F078
F078
F878
78F8
7FF8
3FF8
1F78
0078
0078
0078
007E
003F
001F
ENDCHAR
STARTCHAR 024C
ENCODING 588
SWIDTH 510 0
DWIDTH 17 0
BBX 15 20 1 0
BITMAP
3FC0
3FF0
3FF8
3C78
3C7C
3C3C
3C3C
3C7C
3C78
FFF8
FFF0
FFE0
3DE0
3CF0
3CF0
3C78
3C78
3C3C
3C3C
3C3E
ENDCHAR
STARTCHAR 024D
ENCODING 589
SWIDTH 510 0
DWIDTH 17 0
BBX 14 16 1 0
BITMAP
0FFC
3FFC
3FFC
3FFC
3C00
3C00
3C00
FFE0
FFE0
FFE0
3C00
3C00
3C00
3C00
3C00
3C00
ENDCHAR
STARTCHAR 024E
ENCODING 590
SWIDTH 510 0
DWIDTH 17 0
BBX 16 20 0 0
BITMAP
781F
7C1E
3C1E
FFFF
FFFF
FFFF
1E78
0F78
0F70
07F0
07E0
03E0
03C0
03C0
03C0
03C0
03C0
03C0
03C0
03C0
ENDCHAR
STARTCHAR 024F
ENCODING 591
SWIDTH 510 0
DWIDTH 17 0
BBX 16 21 0 -5
BITMAP
7C1E
3C1E
3C1E
3C3C
3E3C
FFFF
FFFF
FFFF
0F38
0F78
0FF8
07F0
07F0
03E0
03E0
01E0
03C0
47C0
7F80
7F00
7E00
ENDCHAR
STARTCHAR 0292
ENCODING 658
SWIDTH 510 0
DWIDTH 17 0
BBX 14 21 1 -5
BITMAP
7FF8
7FF8
7FF8
00F8
01F0
01E0
03C0
07C0
0F80
0FC0
0FF0
00F8
0078
0078
007C
007C
0078
40F8
FFF0
FFE0
3FC0
ENDCHAR
STARTCHAR 02BC
ENCODING 700
SWIDTH 510 0
DWIDTH 17 0
BBX 5 7 6 16
BITMAP
78
78
70
70
F0
F0
60
ENDCHAR
STARTCHAR 02C6
ENCODING 710
SWIDTH 510 0
DWIDTH 17 0
BBX 9 6 4 17
BITMAP
0800
1C00
7E00
F700
E380
4100
ENDCHAR
STARTCHAR 02C7
ENCODING 711
SWIDTH 510 0
DWIDTH 17 0
BBX 8 6 4 17
BITMAP
41
E3
F7
7E
1C
08
ENDCHAR
STARTCHAR 02C9
ENCODING 713
SWIDTH 510 0
DWIDTH 17 0
BBX 10 3 3 18
BITMAP
FFC0
FFC0
FFC0
ENDCHAR
STARTCHAR 02D8
ENCODING 728
SWIDTH 510 0
DWIDTH 17 0
BBX 10 5 3 17
BITMAP
F1C0
71C0
7FC0
3F80
1F00
ENDCHAR
STARTCHAR 02D9
ENCODING 729
SWIDTH 510 0
DWIDTH 17 0
BBX 5 5 6 17
BITMAP
70
F0
F8
F0
70
ENDCHAR
STARTCHAR 02DA
ENCODING 730
SWIDTH 510 0
DWIDTH 17 0
BBX 7 7 5 16
BITMAP
78
FC
CE
C6
CE
FC
78
ENDCHAR
STARTCHAR 02DB
ENCODING 731
SWIDTH 510 0
DWIDTH 17 0
BBX 6 6 5 -6
BITMAP
3C
78
70
F0
FC
7C
ENDCHAR
STARTCHAR 02DC
ENCODING 732
SWIDTH 510 0
DWIDTH 17 0
BBX 11 4 3 18
BITMAP
38C0
7FE0
FFC0
4780
ENDCHAR
STARTCHAR 02DD
ENCODING 733
SWIDTH 510 0
DWIDTH 17 0
BBX 12 6 2 17
BITMAP
0820
1860
3CF0
7DF0
F3C0
6180
ENDCHAR
STARTCHAR 0311
ENCODING 785
SWIDTH 510 0
DWIDTH 17 0
BBX 10 5 3 17
BITMAP
1E00
3F80
7FC0
71C0
F1C0
ENDCHAR
STARTCHAR 0384
ENCODING 900
SWIDTH 510 0
DWIDTH 17 0
BBX 6 7 5 17
BITMAP
10
1C
3C
78
70
F0
20
ENDCHAR
STARTCHAR 0385
ENCODING 901
SWIDTH 510 0
DWIDTH 17 0
BBX 14 7 1 17
BITMAP
0180
01C0
7398
F3BC
FB3C
F73C
7218
ENDCHAR
STARTCHAR 0386
ENCODING 902
SWIDTH 510 0
DWIDTH 17 0
BBX 17 21 -1 0
BITMAP
300000
79F000
79F000
73F000
73F800
F3F800
67B800
073C00
073C00
0F3C00
0F1C00
0F1E00
0E1E00
1FFE00
1FFF00
1FFF00
3C0F00
3C0F00
3C0F80
3C0780
7C0780
ENDCHAR
STARTCHAR 0388
ENCODING 904
SWIDTH 510 0
DWIDTH 17 0
BBX 19 21 -4 0
BITMAP
600000
7BFFC0
73FFC0
F3FFC0
E3C000
E3C000
E3C000
03C000
03C000
03FF80
03FF80
03FF80
03C000
03C000
03C000
03C000
03C000
03C000
03FFE0
03FFE0
03FFE0
ENDCHAR
STARTCHAR 0389
ENCODING 905
SWIDTH 510 0
DWIDTH 17 0
BBX 20 21 -5 0
BITMAP
300000
7BE0F0
7BE0F0
73E0F0
F3E0F0
F3E0F0
63E0F0
03E0F0
03E0F0
03FFF0
03FFF0
03FFF0
03E0F0
03E0F0
03E0F0
03E0F0
03E0F0
03E0F0
03E0F0
03E0F0
03E0F0
ENDCHAR
STARTCHAR 038A
ENCODING 906
SWIDTH 510 0
DWIDTH 17 0
BBX 20 21 -5 0
BITMAP
300000
79FFF0
79FFF0
71FFF0
701E00
F01E00
601E00
001E00
001E00
001E00
001E00
001E00
001E00
001E00
001E00
001E00
001E00
001E00
01FFF0
01FFF0
01FFF0
ENDCHAR
STARTCHAR 038C
ENCODING 908
SWIDTH 510 0
DWIDTH 17 0
BBX 20 21 -4 0
BITMAP
600000
787E00
70FF80
F1FFC0
F3E3C0
E3C1E0
E7C1E0
0781E0
0781E0
0781F0
0781F0
0781F0
0781F0
0781E0
0781E0
07C1E0
03C1E0
03E3C0
01FFC0
00FF80
003E00
ENDCHAR
STARTCHAR 038E
ENCODING 910
SWIDTH 510 0
DWIDTH 17 0
BBX 21 21 -5 0
BITMAP
600000
7BC078
F3C0F8
F3E0F0
E1E0F0
E1E1E0
E0F1E0
00F1C0
007BC0
007B80
003F80
003F00
001F00
001E00
001E00
001E00
001E00
001E00
001E00
001E00
001E00
ENDCHAR
STARTCHAR 038F
ENCODING 911
SWIDTH 510 0
DWIDTH 17 0
BBX 20 21 -4 0
BITMAP
600000
787E00
70FF80
F3FFC0
F3E3E0
E7C1E0
E781F0
0780F0
0780F0
0F80F0
0F80F0
0780F0
0780F0
0780F0
0781E0
03C1E0
03C3C0
01E3C0
0FE7F0
0FE7F0
0FE7F0
ENDCHAR
STARTCHAR 0390
ENCODING 912
SWIDTH 510 0
DWIDTH 17 0
BBX 14 24 1 0
BITMAP
0180
01C0
7398
F3BC
FB3C
F73C
7218
0000
FF80
FF80
FF80
0F80
0F80
0F80
0F80
0F80
0F80
0F80
0780
0780
0784
07FC
03FC
01F8
ENDCHAR
STARTCHAR 0391
ENCODING 913
SWIDTH 510 0
DWIDTH 17 0
BBX 16 20 0 0
BITMAP
03E0
03E0
07E0
07F0
07F0
0F70
0E78
0E78
1E78
1E38
1E3C
1C3C
3FFC
3FFE
3FFE
781E
781E
781F
780F
F80F
ENDCHAR
STARTCHAR 0392
ENCODING 914
SWIDTH 510 0
DWIDTH 17 0
BBX 13 20 2 0
BITMAP
FF80
FFE0
FFF0
F0F0
F0F0
F070
F0F0
F1F0
FFE0
FFE0
FFF0
F0F8
F078
F078
F078
F078
F0F8
FFF0
FFE0
FF80
ENDCHAR
STARTCHAR 0393
ENCODING 915
SWIDTH 510 0
DWIDTH 17 0
BBX 15 20 1 0
BITMAP
1FFE
1FFE
1FFE
1E00
1E00
1E00
1E00
1E00
1E00
1E00
1E00
1E00
1E00
1E00
1E00
1E00
1E00
FFF0
FFF0
FFF0
ENDCHAR
STARTCHAR 0394
ENCODING 916
SWIDTH 510 0
DWIDTH 17 0
BBX 16 20 0 0
BITMAP
03E0
03E0
07E0
07F0
07F0
0F70
0F78
0E78
1E78
1E38
1E3C
1C3C
3C3C
3C3E
3C1E
781E
781E
7FFF
7FFF
FFFF
ENDCHAR
STARTCHAR 0395
ENCODING 917
SWIDTH 510 0
DWIDTH 17 0
BBX 13 20 2 0
BITMAP
FFF0
FFF0
FFF0
F000
F000
F000
F000
F000
FFE0
FFE0
FFE0
F000
F000
F000
F000
F000
F000
FFF8
FFF8
FFF8
ENDCHAR
STARTCHAR 0396
ENCODING 918
SWIDTH 510 0
DWIDTH 17 0
BBX 13 20 2 0
BITMAP
FFF8
FFF8
FFF8
01F0
01F0
03E0
03C0
07C0
0780
0F80
1F00
1E00
3E00
3C00
7C00
7800
F000
FFF8
FFF8
FFF8
ENDCHAR
STARTCHAR 0397
ENCODING 919
SWIDTH 510 0
DWIDTH 17 0
BBX 14 20 1 0
BITMAP
F83C
F83C
F83C
F83C
F83C
F83C
F83C
F83C
FFFC
FFFC
FFFC
F83C
F83C
F83C
F83C
F83C
F83C
F83C
F83C
F83C
ENDCHAR
STARTCHAR 0398
ENCODING 920
SWIDTH 510 0
DWIDTH 17 0
BBX 15 20 1 0
BITMAP
0FC0
1FF0
3FF8
787C
783C
F03C
F01E
F01E
F01E
F7DE
F7DE
F7DE
F01E
F01C
F03C
703C
787C
3FF8
1FF0
0FC0
ENDCHAR
STARTCHAR 0399
ENCODING 921
SWIDTH 510 0
DWIDTH 17 0
BBX 13 20 2 0
BITMAP
FFF8
FFF8
FFF8
0F00
0F00
0F00
0F00
0F00
0F00
0F00
0F00
0F00
0F00
0F00
0F00
0F00
0F00
FFF8
FFF8
FFF8
ENDCHAR
STARTCHAR 039A
ENCODING 922
SWIDTH 510 0
DWIDTH 17 0
BBX 15 20 1 0
BITMAP
F83C
F87C
F878
F8F0
F9F0
F9E0
FBC0
FFC0
FF80
FF00
FF80
FFC0
FBE0
F9F0
F8F0
F8F8
F87C
F87C
F83E
F83E
ENDCHAR
STARTCHAR 039B
ENCODING 923
SWIDTH 510 0
DWIDTH 17 0
BBX 16 20 0 0
BITMAP
03E0
03E0
07E0
07F0
07F0
0F70
0E78
0E78
1E78
1E38
1E3C
1C3C
3C3C
3C3E
3C1E
781E
781E
781F
780F
F80F
ENDCHAR
STARTCHAR 039C
ENCODING 924
SWIDTH 510 0
DWIDTH 17 0
BBX 15 20 1 0
BITMAP
703C
783C
787C
787C
7C7C
ECFC
ECFC
EEDC
EFDC
E7DC
E79C
E79C
E39C
E01C
E01E
E01E
E01E
E01E
E01E
E01E
ENDCHAR
STARTCHAR 039D
ENCODING 925
SWIDTH 510 0
DWIDTH 17 0
BBX 13 20 2 0
BITMAP
E078
F078
F078
F878
F878
FC78
FC78
EE78
EE78
E778
E778
E3F8
E3F8
E1F8
E1F8
E0F8
E0F8
E078
E078
E078
ENDCHAR
STARTCHAR 039E
ENCODING 926
SWIDTH 510 0
DWIDTH 17 0
BBX 14 20 1 0
BITMAP
FFFC
FFFC
FFFC
0000
0000
0000
0000
0000
7FF8
7FF8
7FF8
0000
0000
0000
0000
0000
0000
FFFC
FFFC
FFFC
ENDCHAR
STARTCHAR 039F
ENCODING 927
SWIDTH 510 0
DWIDTH 17 0
BBX 15 20 1 0
BITMAP
0FC0
1FF0
3FF8
7C78
783C
F83C
F03C
F03C
F03E
F03E
F03E
F03E
F03C
F03C
F83C
783C
7C78
3FF8
1FF0
07C0
ENDCHAR
STARTCHAR 03A0
ENCODING 928
SWIDTH 510 0
DWIDTH 17 0
BBX 14 20 1 0
BITMAP
FFFC
FFFC
FFFC
F83C
F83C
F83C
F83C
F83C
F83C
F83C
F83C
F83C
F83C
F83C
F83C
F83C
F83C
F83C
F83C
F83C
ENDCHAR
STARTCHAR 03A1
ENCODING 929
SWIDTH 510 0
DWIDTH 17 0
BBX 14 20 2 0
BITMAP
FF80
FFE0
FFF0
F0F8
F078
F07C
F07C
F07C
F078
F0F8
FFF0
FFE0
FF80
F000
F000
F000
F000
F000
F000
F000
ENDCHAR
STARTCHAR 03A3
ENCODING 931
SWIDTH 510 0
DWIDTH 17 0
BBX 15 20 1 0
BITMAP
FFFC
FFFC
7FFC
3C00
3E00
1F00
0F00
0780
03C0
03E0
03E0
07C0
0F80
1F00
3E00
7C00
F800
FFFE
FFFE
FFFE
ENDCHAR
STARTCHAR 03A4
ENCODING 932
SWIDTH 510 0
DWIDTH 17 0
BBX 15 20 1 0
BITMAP
FFFE
FFFE
FFFE
0780
0780
0780
0780
0780
0780
0780
0780
0780
0780
0780
0780
0780
0780
0780
0780
0780
ENDCHAR
STARTCHAR 03A5
ENCODING 933
SWIDTH 510 0
DWIDTH 17 0
BBX 15 20 1 0
BITMAP
F01E
F03E
F83C
783C
7878
3C78
3C70
1EF0
1EE0
0FE0
0FC0
07C0
0780
0780
0780
0780
0780
0780
0780
0780
ENDCHAR
STARTCHAR 03A6
ENCODING 934
SWIDTH 510 0
DWIDTH 17 0
BBX 15 21 1 0
BITMAP
0380
0380
0FE0
3FF0
7FF8
7BBC
F39C
E39C
E39E
E39E
E39E
E39E
E39E
E39C
F39C
7BBC
7FF8
3FF0
0FE0
0380
0380
ENDCHAR
STARTCHAR 03A7
ENCODING 935
SWIDTH 510 0
DWIDTH 17 0
BBX 15 20 1 0
BITMAP
F03E
783C
7878
3C78
3CF0
1EF0
1FE0
0FE0
0FC0
07C0
0FC0
0FE0
1FE0
1EF0
3CF8
3C78
787C
783C
F03E
F01E
ENDCHAR
STARTCHAR 03A8
ENCODING 936
SWIDTH 510 0
DWIDTH 17 0
BBX 15 20 1 0
BITMAP
E01E
E01E
E01E
E01E
E01E
E39E
E39E
E39E
E39E
E39C
E39C
F39C
7FFC
3FF8
1FE0
0380
0380
0380
0380
0380
ENDCHAR
STARTCHAR 03A9
ENCODING 937
SWIDTH 510 0
DWIDTH 17 0
BBX 16 20 0 0
BITMAP
07E0
0FF8
3FFC
3E3E
7C1E
781F
780F
780F
F80F
F80F
780F
780F
780F
781E
3C1E
3C3C
1E3C
FE7F
FE7F
FE7F
ENDCHAR
STARTCHAR 03AA
ENCODING 938
SWIDTH 510 0
DWIDTH 17 0
BBX 13 28 2 0
BITMAP
78E0
79F0
79F0
78E0
0000
0000
0000
0000
FFF8
FFF8
FFF8
0F00
0F00
0F00
0F00
0F00
0F00
0F00
0F00
0F00
0F00
0F00
0F00
0F00
0F00
FFF8
FFF8
FFF8
ENDCHAR
STARTCHAR 03AB
ENCODING 939
SWIDTH 510 0
DWIDTH 17 0
BBX 15 28 1 0
BITMAP
3C70
3CF8
3CF8
3C70
0000
0000
0000
0000
F01E
F03E
F83C
783C
7878
3C78
3C70
1EF0
1EE0
0FE0
0FC0
07C0
0780
0780
0780
0780
0780
0780
0780
0780
ENDCHAR
STARTCHAR 03AC
ENCODING 940
SWIDTH 510 0
DWIDTH 17 0
BBX 15 24 1 0
BITMAP
0080
01C0
01E0
03C0
0780
0700
0200
0000
07F0
1FF8
3FF8
7C78
7878
7878
F878
F878
F078
F878
F878
7878
7C7C
3FFE
3FFE
0F8E
ENDCHAR
STARTCHAR 03AD
ENCODING 941
SWIDTH 510 0
DWIDTH 17 0
BBX 13 24 2 0
BITMAP
0100
01C0
03C0
0780
0700
0F00
0200
0000
0FE0
3FF0
7FF0
7830
7000
7800
7FC0
1FC0
7FC0
F800
F000
F000
F830
7FF8
7FF8
1FE0
ENDCHAR
STARTCHAR 03AE
ENCODING 942
SWIDTH 510 0
DWIDTH 17 0
BBX 13 29 2 -5
BITMAP
0100
0380
03C0
0780
0F00
0E00
0400
0000
3F80
FFE0
FFF0
F0F0
F0F0
F0F0
F0F8
F0F8
F0F8
F0F8
F0F8
F0F8
F0F8
F0F8
F0F8
F0F8
00F8
00F8
00F8
00F8
00F8
ENDCHAR
STARTCHAR 03AF
ENCODING 943
SWIDTH 510 0
DWIDTH 17 0
BBX 14 24 1 0
BITMAP
0100
01C0
03C0
0780
0F00
0E00
0600
0000
FF80
FF80
FF80
0F80
0F80
0F80
0F80
0F80
0F80
0F80
0780
0780
0784
07FC
03FC
01F8
ENDCHAR
STARTCHAR 03B0
ENCODING 944
SWIDTH 510 0
DWIDTH 17 0
BBX 14 24 1 0
BITMAP
0180
01C0
7398
F3BC
FB3C
F73C
7218
0000
783C
783C
783C
783C
783C
783C
783C
783C
783C
783C
783C
7878
7C78
3FF8
3FF0
0FC0
ENDCHAR
STARTCHAR 03B1
ENCODING 945
SWIDTH 510 0
DWIDTH 17 0
BBX 15 16 1 0
BITMAP
07F0
1FF8
3FF8
7C78
7878
7878
F878
F878
F078
F878
F878
7878
7C7C
3FFE
3FFE
0F8E
ENDCHAR
STARTCHAR 03B2
ENCODING 946
SWIDTH 510 0
DWIDTH 17 0
BBX 14 28 2 -5
BITMAP
1F80
3FC0
7FE0
F9F0
F0F0
F0F0
F0F0
F0F0
F1E0
F7C0
F7E0
F7F0
F0F8
F078
F07C
F07C
F07C
F07C
F078
F0F8
FFF0
FFF0
FFC0
F000
F000
F000
F000
F000
ENDCHAR
STARTCHAR 03B3
ENCODING 947
SWIDTH 510 0
DWIDTH 17 0
BBX 15 21 1 -5
BITMAP
F01E
F01E
F83C
783C
783C
7C78
3C78
3C78
3CF0
1EF0
1FE0
1FE0
0FC0
0FC0
0F80
0F80
0780
0780
0780
0780
0780
ENDCHAR
STARTCHAR 03B4
ENCODING 948
SWIDTH 510 0
DWIDTH 17 0
BBX 15 23 1 0
BITMAP
07E0
0FF8
1FF8
1E18
3E00
3E00
1F00
1F80
0FE0
1FF0
3FF8
7CFC
787C
F03C
F03E
F03E
F03C
F03C
F83C
7C7C
3FF8
1FF0
0FC0
ENDCHAR
STARTCHAR 03B5
ENCODING 949
SWIDTH 510 0
DWIDTH 17 0
BBX 13 16 2 0
BITMAP
0FE0
3FF0
7FF0
7830
7000
7800
7FC0
1FC0
7FC0
F800
F000
F000
F830
7FF8
7FF8
1FE0
ENDCHAR
STARTCHAR 03B6
ENCODING 950
SWIDTH 510 0
DWIDTH 17 0
BBX 13 29 2 -6
BITMAP
7FF8
7FF8
7FF8
01F0
03E0
07C0
0F80
1F00
3E00
3C00
7800
7800
F800
F000
F000
F000
F000
F000
F800
7E00
7FC0
3FF0
0FF8
01F8
0078
0078
0078
0078
0030
ENDCHAR
STARTCHAR 03B7
ENCODING 951
SWIDTH 510 0
DWIDTH 17 0
BBX 13 21 2 -5
BITMAP
3F80
FFE0
FFF0
F0F0
F0F0
F0F0
F0F8
F0F8
F0F8
F0F8
F0F8
F0F8
F0F8
F0F8
F0F8
F0F8
00F8
00F8
00F8
00F8
00F8
ENDCHAR
STARTCHAR 03B8
ENCODING 952
SWIDTH 510 0
DWIDTH 17 0
BBX 14 23 1 0
BITMAP
07C0
1FE0
3FF0
3C78
7878
783C
F03C
F03C
F03C
F03C
FFFC
FFFC
FFFC
F03C
F03C
F03C
F03C
783C
7878
3C78
3FF0
1FE0
07C0
ENDCHAR
STARTCHAR 03B9
ENCODING 953
SWIDTH 510 0
DWIDTH 17 0
BBX 14 16 1 0
BITMAP
FF80
FF80
FF80
0F80
0F80
0F80
0F80
0F80
0F80
0F80
0780
0780
0784
07FC
03FC
01F8
ENDCHAR
STARTCHAR 03BA
ENCODING 954
SWIDTH 510 0
DWIDTH 17 0
BBX 14 16 2 0
BITMAP
F0F8
F0F0
F1E0
F3E0
F3C0
F780
FF00
FF00
FF80
F7C0
F3C0
F1E0
F1F0
F0F8
F078
F07C
ENDCHAR
STARTCHAR 03BB
ENCODING 955
SWIDTH 510 0
DWIDTH 17 0
BBX 15 23 1 0
BITMAP
F800
FE00
7F00
0F00
0F80
0780
07C0
03C0
07C0
07E0
0FE0
0FE0
1FF0
1EF0
1EF0
3CF8
3CF8
7C78
787C
787C
F87C
F03C
F03E
ENDCHAR
STARTCHAR 03BC
ENCODING 956
SWIDTH 510 0
DWIDTH 17 0
BBX 12 21 2 -5
BITMAP
F0F0
F0F0
F0F0
F0F0
F0F0
F0F0
F0F0
F0F0
F0F0
F0F0
F0F0
F0F0
F8F0
FFF0
FFF0
FFE0
F000
F000
F000
F000
F000
ENDCHAR
STARTCHAR 03BD
ENCODING 957
SWIDTH 510 0
DWIDTH 17 0
BBX 15 16 1 0
BITMAP
F01E
F03E
F03C
783C
787C
7878
3C78
3CF8
3CF0
1EF0
1FE0
1FE0
0FC0
0FC0
07C0
0780
ENDCHAR
STARTCHAR 03BE
ENCODING 958
SWIDTH 510 0
DWIDTH 17 0
BBX 13 28 2 -5
BITMAP
07F0
1FF8
3FF8
7C10
7800
7800
7800
7800
3C00
3FF0
0FF0
3FF0
7C00
F000
F000
F000
F000
F800
FC00
7F80
3FF0
0FF8
01F8
0078
0078
0078
0078
0030
ENDCHAR
STARTCHAR 03BF
ENCODING 959
SWIDTH 510 0
DWIDTH 17 0
BBX 15 16 1 0
BITMAP
07C0
1FF0
3FF8
7C7C
783C
F03C
F03C
F03E
F03E
F03C
F03C
783C
7C78
3FF8
1FF0
07C0
ENDCHAR
STARTCHAR 03C0
ENCODING 960
SWIDTH 510 0
DWIDTH 17 0
BBX 12 16 2 0
BITMAP
FFF0
FFF0
FFF0
F0F0
F0F0
F0F0
F0F0
F0F0
F0F0
F0F0
F0F0
F0F0
F0F0
F0F0
F0F0
F0F0
ENDCHAR
STARTCHAR 03C1
ENCODING 961
SWIDTH 510 0
DWIDTH 17 0
BBX 13 21 2 -5
BITMAP
0FC0
3FE0
7FF0
78F8
F878
F078
F078
F078
F078
F078
F078
F078
F0F8
FFF0
FFE0
F7C0
F000
F000
F000
F000
F000
ENDCHAR
STARTCHAR 03C2
ENCODING 962
SWIDTH 510 0
DWIDTH 17 0
BBX 14 21 1 -5
BITMAP
03F8
0FFC
1FFC
3E08
7C00
7800
7800
F800
F800
7800
7C00
7E00
3FC0
1FF8
07FC
00FC
003C
003C
003C
003C
0018
ENDCHAR
STARTCHAR 03C3
ENCODING 963
SWIDTH 510 0
DWIDTH 17 0
BBX 15 16 1 0
BITMAP
07FE
1FFE
3FFE
7C78
F878
F878
F03C
F03C
F03C
F03C
F07C
7878
7CF8
3FF0
1FE0
0FC0
ENDCHAR
STARTCHAR 03C4
ENCODING 964
SWIDTH 510 0
DWIDTH 17 0
BBX 15 16 1 0
BITMAP
FFFC
FFFC
FFFC
0F00
0F00
0F00
0F00
0F00
0F00
0F00
0F00
0F00
0F84
0FFE
07FE
01FC
ENDCHAR
STARTCHAR 03C5
ENCODING 965
SWIDTH 510 0
DWIDTH 17 0
BBX 13 16 2 0
BITMAP
F078
F078
F078
F078
F078
F078
F078
F078
F078
F078
F078
F0F0
F8F0
7FF0
7FE0
1F80
ENDCHAR
STARTCHAR 03C6
ENCODING 966
SWIDTH 510 0
DWIDTH 17 0
BBX 15 21 1 -5
BITMAP
0FC0
3FF0
7FF8
73BC
F39C
E39C
E39E
E39E
E39E
E39E
E39C
F39C
73BC
7FF8
3FF0
0FE0
0380
0380
0380
0380
0380
ENDCHAR
STARTCHAR 03C7
ENCODING 967
SWIDTH 510 0
DWIDTH 17 0
BBX 15 16 1 0
BITMAP
F03C
783C
7C78
3CF0
1EF0
0FE0
0FC0
07C0
07C0
0FE0
1FF0
3EF0
3C78
787C
F83C
F03E
ENDCHAR
STARTCHAR 03C8
ENCODING 968
SWIDTH 510 0
DWIDTH 17 0
BBX 15 21 1 -5
BITMAP
E01E
E01E
E01E
E01E
E39E
E39E
E39E
E39E
E39E
E39E
E39C
E39C
73BC
7FF8
3FF8
1FE0
0380
0380
0380
0380
0380
ENDCHAR
STARTCHAR 03C9
ENCODING 969
SWIDTH 510 0
DWIDTH 17 0
BBX 15 16 1 0
BITMAP
3030
3878
7838
703C
701C
F01C
F01E
E39E
E39E
E39E
E39E
F39E
F79C
7FFC
7EF8
3C70
ENDCHAR
STARTCHAR 03CA
ENCODING 970
SWIDTH 510 0
DWIDTH 17 0
BBX 14 23 1 0
BITMAP
3C70
3CF8
3CF8
3C70
0000
0000
0000
FF80
FF80
FF80
0F80
0F80
0F80
0F80
0F80
0F80
0F80
0780
0780
0784
07FC
03FC
01F8
ENDCHAR
STARTCHAR 03CB
ENCODING 971
SWIDTH 510 0
DWIDTH 17 0
BBX 13 23 2 0
BITMAP
78E0
79F0
79F0
78E0
0000
0000
0000
F078
F078
F078
F078
F078
F078
F078
F078
F078
F078
F078
F0F0
F8F0
7FF0
7FE0
1F80
ENDCHAR
STARTCHAR 03CC
ENCODING 972
SWIDTH 510 0
DWIDTH 17 0
BBX 15 24 1 0
BITMAP
0080
01C0
01E0
03C0
0780
0700
0200
0000
07C0
1FF0
3FF8
7C7C
783C
F03C
F03C
F03E
F03E
F03C
F03C
783C
7C78
3FF8
1FF0
07C0
ENDCHAR
STARTCHAR 03CD
ENCODING 973
SWIDTH 510 0
DWIDTH 17 0
BBX 13 24 2 0
BITMAP
0100
0380
07C0
0780
0F00
0E00
0400
0000
F078
F078
F078
F078
F078
F078
F078
F078
F078
F078
F078
F0F0
F8F0
7FF0
7FE0
1F80
ENDCHAR
STARTCHAR 03CE
ENCODING 974
SWIDTH 510 0
DWIDTH 17 0
BBX 15 24 1 0
BITMAP
0080
01C0
03E0
03C0
0780
0700
0200
0000
3030
3878
7838
703C
701C
F01C
F01E
E39E
E39E
E39E
E39E
F39E
F79C
7FFC
7EF8
3C70
ENDCHAR
STARTCHAR 0400
ENCODING 1024
SWIDTH 510 0
DWIDTH 17 0
BBX 13 28 2 0
BITMAP
0400
0E00
1F80
0FC0
03C0
0080
0000
0000
FFF0
FFF0
FFF0
F000
F000
F000
F000
F000
FFE0
FFE0
FFE0
F000
F000
F000
F000
F000
F000
FFF8
FFF8
FFF8
ENDCHAR
STARTCHAR 0401
ENCODING 1025
SWIDTH 510 0
DWIDTH 17 0
BBX 13 28 2 0
BITMAP
78E0
79F0
79F0
78E0
0000
0000
0000
0000
FFF0
FFF0
FFF0
F000
F000
F000
F000
F000
FFE0
FFE0
FFE0
F000
F000
F000
F000
F000
F000
FFF8
FFF8
FFF8
ENDCHAR
STARTCHAR 0402
ENCODING 1026
SWIDTH 510 0
DWIDTH 17 0
BBX 15 20 1 0
BITMAP
FFF0
FFF0
FFF0
3C00
3C00
3C00
3C00
3C00
3FE0
3FF8
3FFC
3C3E
3C1E
3C1E
3C1E
3C1E
3C3E
3CFC
3CFC
3CF0
ENDCHAR
STARTCHAR 0403
ENCODING 1027
SWIDTH 510 0
DWIDTH 17 0
BBX 15 28 1 0
BITMAP
0020
0070
00F8
03F8
03C0
0100
0000
0000
1FFE
1FFE
1FFE
1E00
1E00
1E00
1E00
1E00
1E00
1E00
1E00
1E00
1E00
1E00
1E00
1E00
1E00
FFF0
FFF0
FFF0
ENDCHAR
STARTCHAR 0404
ENCODING 1028
SWIDTH 510 0
DWIDTH 17 0
BBX 14 20 1 0
BITMAP
03F8
0FFC
1FFC
3E0C
7C00
7800
F000
F000
FFE0
FFE0
FFE0
F000
F000
F000
7800
7C00
7E0C
3FFC
1FFC
07F8
ENDCHAR
STARTCHAR 0405
ENCODING 1029
SWIDTH 510 0
DWIDTH 17 0
BBX 14 20 1 0
BITMAP
0FE0
3FF8
3FF8
7C10
7800
7800
7800
7C00
7F80
3FE0
0FF8
01F8
007C
003C
003C
003C
607C
7FF8
FFF0
3FE0
ENDCHAR
STARTCHAR 0406
ENCODING 1030
SWIDTH 510 0
DWIDTH 17 0
BBX 13 20 2 0
BITMAP
FFF8
FFF8
FFF8
0F00
0F00
0F00
0F00
0F00
0F00
0F00
0F00
0F00
0F00
0F00
0F00
0F00
0F00
FFF8
FFF8
FFF8
ENDCHAR
STARTCHAR 0407
ENCODING 1031
SWIDTH 510 0
DWIDTH 17 0
BBX 13 28 2 0
BITMAP
78E0
79F0
79F0
78E0
0000
0000
0000
0000
FFF8
FFF8
FFF8
0F00
0F00
0F00
0F00
0F00
0F00
0F00
0F00
0F00
0F00
0F00
0F00
0F00
0F00
FFF8
FFF8
FFF8
ENDCHAR
STARTCHAR 0408
ENCODING 1032
SWIDTH 510 0
DWIDTH 17 0
BBX 12 20 2 0
BITMAP
3FF0
3FF0
3FF0
00F0
00F0
00F0
00F0
00F0
00F0
00F0
00F0
00F0
00F0
00F0
00F0
40F0
E1F0
FFE0
FFC0
3F00
ENDCHAR
STARTCHAR 0409
ENCODING 1033
SWIDTH 510 0
DWIDTH 17 0
BBX 16 20 0 0
BITMAP
3FC0
3FC0
3FC0
39C0
39C0
39C0
39C0
39F8
39FC
39FE
39CE
39CF
39C7
39C7
39C7
39CF
79CE
F1FE
F1FC
41F8
ENDCHAR
STARTCHAR 040A
ENCODING 1034
SWIDTH 510 0
DWIDTH 17 0
BBX 14 20 2 0
BITMAP
C700
C700
C700
C700
C700
C700
C700
C7E0
FFF0
FFF8
FF38
C73C
C71C
C71C
C71C
C73C
C738
C7F8
C7F0
C7E0
ENDCHAR
STARTCHAR 040B
ENCODING 1035
SWIDTH 510 0
DWIDTH 17 0
BBX 14 20 1 0
BITMAP
FFF0
FFF0
FFF0
3C00
3C00
3C00
3C00
3FE0
3FF8
3FF8
3C7C
3C3C
3C3C
3C3C
3C3C
3C3C
3C3C
3C3C
3C3C
3C3C
ENDCHAR
STARTCHAR 040C
ENCODING 1036
SWIDTH 510 0
DWIDTH 17 0
BBX 15 28 1 0
BITMAP
0040
01C0
03E0
0FE0
0780
0600
0000
0000
F83C
F87C
F878
F8F0
F9F0
F9E0
FBC0
FFC0
FF80
FF00
FF80
FFC0
FBE0
F9F0
F8F0
F8F8
F87C
F87C
F83E
F83E
ENDCHAR
STARTCHAR 040D
ENCODING 1037
SWIDTH 510 0
DWIDTH 17 0
BBX 13 28 2 0
BITMAP
0400
0E00
1F80
0FC0
03C0
0080
0000
0000
E078
E078
E0F8
E0F8
E1F8
E1F8
E3F8
E3F8
E778
E778
EE78
EE78
FC78
FC78
F878
F878
F078
F078
E078
E078
ENDCHAR
STARTCHAR 040E
ENCODING 1038
SWIDTH 510 0
DWIDTH 17 0
BBX 16 28 0 0
BITMAP
0C30
1E38
0FF8
0FF0
03E0
0000
0000
0000
F81F
781F
7C1E
3C1E
3E3E
1E3C
1E3C
0F7C
0F78
07F8
07F8
03F0
01F0
01E0
01E0
03E0
23C0
7F80
7F00
3E00
ENDCHAR
STARTCHAR 040F
ENCODING 1039
SWIDTH 510 0
DWIDTH 17 0
BBX 14 26 1 -6
BITMAP
F83C
F83C
F83C
F83C
F83C
F83C
F83C
F83C
F83C
F83C
F83C
F83C
F83C
F83C
F83C
F83C
F83C
FFFC
FFFC
FFFC
0780
0780
0780
0780
0780
0780
ENDCHAR
STARTCHAR 0410
ENCODING 1040
SWIDTH 510 0
DWIDTH 17 0
BBX 16 20 0 0
BITMAP
03E0
03E0
07E0
07F0
07F0
0F70
0E78
0E78
1E78
1E38
1E3C
1C3C
3FFC
3FFE
3FFE
781E
781E
781F
780F
F80F
ENDCHAR
STARTCHAR 0411
ENCODING 1041
SWIDTH 510 0
DWIDTH 17 0
BBX 13 20 2 0
BITMAP
FFE0
FFE0
FFE0
F000
F000
F000
F000
FF80
FFE0
FFF0
F0F8
F078
F078
F078
F078
F078
F0F8
FFF0
FFE0
FF80
ENDCHAR
STARTCHAR 0412
ENCODING 1042
SWIDTH 510 0
DWIDTH 17 0
BBX 13 20 2 0
BITMAP
FF80
FFE0
FFF0
F0F0
F0F0
F070
F0F0
F1F0
FFE0
FFE0
FFF0
F0F8
F078
F078
F078
F078
F0F8
FFF0
FFE0
FF80
ENDCHAR
STARTCHAR 0413
ENCODING 1043
SWIDTH 510 0
DWIDTH 17 0
BBX 15 20 1 0
BITMAP
1FFE
1FFE
1FFE
1E00
1E00
1E00
1E00
1E00
1E00
1E00
1E00
1E00
1E00
1E00
1E00
1E00
1E00
FFF0
FFF0
FFF0
ENDCHAR
STARTCHAR 0414
ENCODING 1044
SWIDTH 510 0
DWIDTH 17 0
BBX 16 26 0 -6
BITMAP
0FFE
0FFE
0FFE
0F1E
0F1E
0F1E
0F1E
0E1E
0E1E
0E1E
0E1E
1E1E
1E1E
1E1E
1C1E
3C1E
3C1E
FFFF
FFFF
FFFF
F00F
F00F
F00F
F00F
F00F
F00F
ENDCHAR
STARTCHAR 0415
ENCODING 1045
SWIDTH 510 0
DWIDTH 17 0
BBX 13 20 2 0
BITMAP
FFF0
FFF0
FFF0
F000
F000
F000
F000
F000
FFE0
FFE0
FFE0
F000
F000
F000
F000
F000
F000
FFF8
FFF8
FFF8
ENDCHAR
STARTCHAR 0416
ENCODING 1046
SWIDTH 510 0
DWIDTH 17 0
BBX 16 20 0 0
BITMAP
F1C7
71CF
71CE
39CE
39DC
1DDC
1DF8
0DF8
0FF0
0FF0
0DF8
1DF8
1DDC
39DC
39CE
79CE
71CE
71CF
71C7
F1C7
ENDCHAR
STARTCHAR 0417
ENCODING 1047
SWIDTH 510 0
DWIDTH 17 0
BBX 15 20 1 0
BITMAP
1FC0
7FF0
7FF8
207C
003C
003C
003C
00F8
1FF8
1FE0
1FF8
007C
003C
001E
001E
003E
607C
FFFC
FFF8
3FC0
ENDCHAR
STARTCHAR 0418
ENCODING 1048
SWIDTH 510 0
DWIDTH 17 0
BBX 13 20 2 0
BITMAP
E078
E078
E0F8
E0F8
E1F8
E1F8
E3F8
E3F8
E778
E778
EE78
EE78
FC78
FC78
F878
F878
F078
F078
E078
E078
ENDCHAR
STARTCHAR 0419
ENCODING 1049
SWIDTH 510 0
DWIDTH 17 0
BBX 13 28 2 0
BITMAP
30C0
78E0
3FE0
3FC0
0F80
0000
0000
0000
E078
E078
E0F8
E0F8
E1F8
E1F8
E3F8
E3F8
E778
E778
EE78
EE78
FC78
FC78
F878
F878
F078
F078
E078
E078
ENDCHAR
STARTCHAR 041A
ENCODING 1050
SWIDTH 510 0
DWIDTH 17 0
BBX 15 20 1 0
BITMAP
F83C
F87C
F878
F8F0
F9F0
F9E0
FBC0
FFC0
FF80
FF00
FF80
FFC0
FBE0
F9F0
F8F0
F8F8
F87C
F87C
F83E
F83E
ENDCHAR
STARTCHAR 041B
ENCODING 1051
SWIDTH 510 0
DWIDTH 17 0
BBX 15 20 0 0
BITMAP
07FE
07FE
07FE
0F1E
0F1E
0F1E
0F1E
0F1E
0F1E
0F1E
0F1E
0F1E
0E1E
1E1E
1E1E
7E1E
FC1E
F81E
781E
601E
ENDCHAR
STARTCHAR 041C
ENCODING 1052
SWIDTH 510 0
DWIDTH 17 0
BBX 15 20 1 0
BITMAP
703C
783C
787C
787C
7C7C
ECFC
ECFC
EEDC
EFDC
E7DC
E79C
E79C
E39C
E01C
E01E
E01E
E01E
E01E
E01E
E01E
ENDCHAR
STARTCHAR 041D
ENCODING 1053
SWIDTH 510 0
DWIDTH 17 0
BBX 14 20 1 0
BITMAP
F83C
F83C
F83C
F83C
F83C
F83C
F83C
F83C
FFFC
FFFC
FFFC
F83C
F83C
F83C
F83C
F83C
F83C
F83C
F83C
F83C
ENDCHAR
STARTCHAR 041E
ENCODING 1054
SWIDTH 510 0
DWIDTH 17 0
BBX 15 20 1 0
BITMAP
0FC0
1FF0
3FF8
7C78
783C
F83C
F03C
F03C
F03E
F03E
F03E
F03E
F03C
F03C
F83C
783C
7C78
3FF8
1FF0
07C0
ENDCHAR
STARTCHAR 041F
ENCODING 1055
SWIDTH 510 0
DWIDTH 17 0
BBX 14 20 1 0
BITMAP
FFFC
FFFC
FFFC
F83C
F83C
F83C
F83C
F83C
F83C
F83C
F83C
F83C
F83C
F83C
F83C
F83C
F83C
F83C
F83C
F83C
ENDCHAR
STARTCHAR 0420
ENCODING 1056
SWIDTH 510 0
DWIDTH 17 0
BBX 14 20 2 0
BITMAP
FF80
FFE0
FFF0
F0F8
F078
F07C
F07C
F07C
F078
F0F8
FFF0
FFE0
FF80
F000
F000
F000
F000
F000
F000
F000
ENDCHAR
STARTCHAR 0421
ENCODING 1057
SWIDTH 510 0
DWIDTH 17 0
BBX 14 20 1 0
BITMAP
03F8
0FFC
1FFC
3E0C
7C00
7800
F000
F000
F000
F000
F000
F000
F000
F000
7800
7800
7E0C
3FFC
1FFC
07F8
ENDCHAR
STARTCHAR 0422
ENCODING 1058
SWIDTH 510 0
DWIDTH 17 0
BBX 15 20 1 0
BITMAP
FFFE
FFFE
FFFE
0780
0780
0780
0780
0780
0780
0780
0780
0780
0780
0780
0780
0780
0780
0780
0780
0780
ENDCHAR
STARTCHAR 0423
ENCODING 1059
SWIDTH 510 0
DWIDTH 17 0
BBX 16 20 0 0
BITMAP
F81F
781F
7C1E
3C1E
3E3E
1E3C
1E3C
0F7C
0F78
07F8
07F8
03F0
01F0
01E0
01E0
03E0
23C0
7F80
7F00
3E00
ENDCHAR
STARTCHAR 0424
ENCODING 1060
SWIDTH 510 0
DWIDTH 17 0
BBX 15 21 1 0
BITMAP
0380
0380
0FE0
3FF0
7FF8
7BBC
F39C
E39C
E39E
E39E
E39E
E39E
E39E
E39C
F39C
7BBC
7FF8
3FF0
0FE0
0380
0380
ENDCHAR
STARTCHAR 0425
ENCODING 1061
SWIDTH 510 0
DWIDTH 17 0
BBX 15 20 1 0
BITMAP
F03E
783C
7878
3C78
3CF0
1EF0
1FE0
0FE0
0FC0
07C0
0FC0
0FE0
1FE0
1EF0
3CF8
3C78
787C
783C
F03E
F01E
ENDCHAR
STARTCHAR 0426
ENCODING 1062
SWIDTH 510 0
DWIDTH 17 0
BBX 15 26 1 -6
BITMAP
F878
F878
F878
F878
F878
F878
F878
F878
F878
F878
F878
F878
F878
F878
F878
F878
F878
FFFE
FFFE
FFFE
001E
001E
001E
001E
001E
001E
ENDCHAR
STARTCHAR 0427
ENCODING 1063
SWIDTH 510 0
DWIDTH 17 0
BBX 14 20 1 0
BITMAP
F83C
F83C
F83C
F83C
F83C
F83C
F83C
783C
783C
783C
7C3C
3FFC
3FFC
0FFC
003C
003C
003C
003C
003C
003C
ENDCHAR
STARTCHAR 0428
ENCODING 1064
SWIDTH 510 0
DWIDTH 17 0
BBX 15 20 1 0
BITMAP
E00E
E00E
E00E
E00E
E00E
E00E
E00E
E00E
E38E
E38E
E38E
E38E
E38E
E38E
E38E
E38E
E38E
FFFE
FFFE
FFFE
ENDCHAR
STARTCHAR 0429
ENCODING 1065
SWIDTH 510 0
DWIDTH 17 0
BBX 15 26 1 -6
BITMAP
E01C
E01C
E01C
E01C
E01C
E01C
E01C
E01C
E79C
E79C
E79C
E79C
E79C
E79C
E79C
E79C
E79C
FFFE
FFFE
FFFE
000E
000E
000E
000E
000E
000E
ENDCHAR
STARTCHAR 042A
ENCODING 1066
SWIDTH 510 0
DWIDTH 17 0
BBX 14 20 1 0
BITMAP
FC00
FC00
FC00
3C00
3C00
3C00
3C00
3FE0
3FF0
3FF8
3C7C
3C3C
3C3C
3C3C
3C3C
3C3C
3C7C
3FF8
3FF0
1FC0
ENDCHAR
STARTCHAR 042B
ENCODING 1067
SWIDTH 510 0
DWIDTH 17 0
BBX 14 20 1 0
BITMAP
E01C
E01C
E01C
E01C
E01C
E01C
E01C
FE1C
FF1C
FF9C
E3DC
E3DC
E1DC
E1DC
E1DC
E3DC
E3DC
FF9C
FF1C
FE1C
ENDCHAR
STARTCHAR 042C
ENCODING 1068
SWIDTH 510 0
DWIDTH 17 0
BBX 13 20 2 0
BITMAP
F000
F000
F000
F000
F000
F000
F000
FF80
FFE0
FFF0
F1F8
F078
F078
F078
F078
F078
F0F8
FFF0
FFE0
FF80
ENDCHAR
STARTCHAR 042D
ENCODING 1069
SWIDTH 510 0
DWIDTH 17 0
BBX 15 20 1 0
BITMAP
1F80
7FE0
7FF0
20F8
003C
003C
001E
001E
0FFE
0FFE
0FFE
0FFE
001E
001E
003C
007C
60F8
7FF0
FFE0
3F80
ENDCHAR
STARTCHAR 042E
ENCODING 1070
SWIDTH 510 0
DWIDTH 17 0
BBX 15 20 1 0
BITMAP
E0F0
E1F8
E3FC
E39C
E39C
E79C
E79E
E79E
FF9E
FF9E
FF9E
E79E
E79E
E79E
E79C
E39C
E39C
E3FC
E1F8
E0F0
ENDCHAR
STARTCHAR 042F
ENCODING 1071
SWIDTH 510 0
DWIDTH 17 0
BBX 14 20 1 0
BITMAP
07FC
1FFC
3FFC
3E3C
783C
783C
783C
783C
7E3C
3FFC
3FFC
0FFC
0F3C
1E3C
3C3C
3C3C
783C
783C
F03C
F03C
ENDCHAR
STARTCHAR 0430
ENCODING 1072
SWIDTH 510 0
DWIDTH 17 0
BBX 14 16 1 0
BITMAP
3FC0
3FF0
3FF8
2078
0078
003C
0FFC
3FFC
7FFC
783C
F03C
F03C
783C
7FFC
3FFC
0FF0
ENDCHAR
STARTCHAR 0431
ENCODING 1073
SWIDTH 510 0
DWIDTH 17 0
BBX 14 23 1 0
BITMAP
003C
01FC
07FC
1FFC
3FC0
3C00
7800
7BE0
7FF0
7FF8
FC78
F87C
F83C
F83C
F83C
F83C
783C
787C
7C7C
7C78
3FF8
1FF0
07C0
ENDCHAR
STARTCHAR 0432
ENCODING 1074
SWIDTH 510 0
DWIDTH 17 0
BBX 13 16 2 0
BITMAP
7FC0
FFE0
FFF0
F0F8
F078
F0F0
FFF0
FFE0
FFF0
F078
F078
F078
F078
FFF8
FFF0
7FC0
ENDCHAR
STARTCHAR 0433
ENCODING 1075
SWIDTH 510 0
DWIDTH 17 0
BBX 12 16 3 0
BITMAP
FFF0
FFF0
FFF0
F000
F000
F000
F000
F000
F000
F000
F000
F000
F000
F000
F000
F000
ENDCHAR
STARTCHAR 0434
ENCODING 1076
SWIDTH 510 0
DWIDTH 17 0
BBX 15 20 1 -4
BITMAP
1FF8
1FF8
1FF8
1E78
1E78
1C78
1C78
1C78
1C78
3C78
3C78
3878
7878
FFFE
FFFE
FFFE
F01E
F01E
F01E
F01E
ENDCHAR
STARTCHAR 0435
ENCODING 1077
SWIDTH 510 0
DWIDTH 17 0
BBX 14 16 1 0
BITMAP
07C0
1FF0
3FF8
7C78
783C
F83C
F03C
FFFC
FFFC
FFFC
F000
7800
7C08
3FF8
1FF8
07F0
ENDCHAR
STARTCHAR 0436
ENCODING 1078
SWIDTH 510 0
DWIDTH 17 0
BBX 15 16 1 0
BITMAP
E39E
E39C
739C
73B8
3BB8
3BF0
1FF0
1FE0
1FF0
3BF0
3BB8
73B8
73BC
F39C
E39C
E39E
ENDCHAR
STARTCHAR 0437
ENCODING 1079
SWIDTH 510 0
DWIDTH 17 0
BBX 12 16 2 0
BITMAP
7F80
FFE0
7FE0
40F0
00F0
00F0
3FE0
3FC0
3FE0
00F0
00F0
00F0
C0F0
FFF0
FFE0
7F80
ENDCHAR
STARTCHAR 0438
ENCODING 1080
SWIDTH 510 0
DWIDTH 17 0
BBX 12 16 2 0
BITMAP
F070
F0F0
F1F0
F1F0
F3F0
F3F0
F7F0
FF70
FE70
FE70
FC70
FC70
F870
F870
F070
F070
ENDCHAR
STARTCHAR 0439
ENCODING 1081
SWIDTH 510 0
DWIDTH 17 0
BBX 12 23 2 0
BITMAP
30C0
78E0
3FE0
3FC0
0F80
0000
0000
F070
F0F0
F1F0
F1F0
F3F0
F3F0
F7F0
FF70
FE70
FE70
FC70
FC70
F870
F870
F070
F070
ENDCHAR
STARTCHAR 043A
ENCODING 1082
SWIDTH 510 0
DWIDTH 17 0
BBX 14 16 2 0
BITMAP
F0F8
F0F0
F1F0
F3E0
F7C0
F780
FF00
FF00
FF80
F7C0
F3E0
F1E0
F1F0
F0F8
F078
F07C
ENDCHAR
STARTCHAR 043B
ENCODING 1083
SWIDTH 510 0
DWIDTH 17 0
BBX 13 16 1 0
BITMAP
1FF8
1FF8
1FF8
1FF8
1E78
1E78
1E78
1E78
1E78
1C78
3C78
3C78
FC78
F878
F078
E078
ENDCHAR
STARTCHAR 043C
ENCODING 1084
SWIDTH 510 0
DWIDTH 17 0
BBX 15 16 1 0
BITMAP
703C
783C
787C
787C
FC7C
ECFC
ECFC
EEDC
EFDC
E7DC
E7DE
E79E
E39E
E01E
E01E
F01E
ENDCHAR
STARTCHAR 043D
ENCODING 1085
SWIDTH 510 0
DWIDTH 17 0
BBX 13 16 2 0
BITMAP
F0F8
F0F8
F0F8
F0F8
F0F8
F0F8
FFF8
FFF8
FFF8
F0F8
F0F8
F0F8
F0F8
F0F8
F0F8
F0F8
ENDCHAR
STARTCHAR 043E
ENCODING 1086
SWIDTH 510 0
DWIDTH 17 0
BBX 15 16 1 0
BITMAP
07C0
1FF0
3FF8
7C7C
783C
F03C
F03C
F03E
F03E
F03C
F03C
783C
7C78
3FF8
1FF0
07C0
ENDCHAR
STARTCHAR 043F
ENCODING 1087
SWIDTH 510 0
DWIDTH 17 0
BBX 12 16 2 0
BITMAP
FFF0
FFF0
FFF0
F0F0
F0F0
F0F0
F0F0
F0F0
F0F0
F0F0
F0F0
F0F0
F0F0
F0F0
F0F0
F0F0
ENDCHAR
STARTCHAR 0440
ENCODING 1088
SWIDTH 510 0
DWIDTH 17 0
BBX 13 21 2 -5
BITMAP
7F80
FFE0
FFF0
F0F0
F078
F078
F078
F078
F078
F078
F078
F078
F0F8
FFF0
FFE0
F7C0
F000
F000
F000
F000
F000
ENDCHAR
STARTCHAR 0441
ENCODING 1089
SWIDTH 510 0
DWIDTH 17 0
BBX 14 16 1 0
BITMAP
03F8
0FFC
3FFC
3E00
7C00
7800
7800
F800
F800
7800
7800
7C00
3E04
3FFC
0FFC
03FC
ENDCHAR
STARTCHAR 0442
ENCODING 1090
SWIDTH 510 0
DWIDTH 17 0
BBX 14 16 1 0
BITMAP
FFFC
FFFC
FFFC
0780
0780
0780
0780
0780
0780
0780
0780
0780
0780
0780
0780
0780
ENDCHAR
STARTCHAR 0443
ENCODING 1091
SWIDTH 510 0
DWIDTH 17 0
BBX 14 21 1 -5
BITMAP
F83C
783C
783C
783C
7C78
3C78
3C78
3E70
1EF0
1EF0
0FE0
0FE0
0FE0
07C0
07C0
0380
0780
8F80
FF00
FE00
FC00
ENDCHAR
STARTCHAR 0444
ENCODING 1092
SWIDTH 510 0
DWIDTH 17 0
BBX 15 29 1 -5
BITMAP
0180
0380
0380
0380
0380
0380
0380
0380
0FE0
3FF0
7FF8
73BC
F39C
E39C
E39E
E39E
E39E
E39E
E39C
F39C
73BC
7FF8
3FF0
0FE0
0380
0380
0380
0380
0380
ENDCHAR
STARTCHAR 0445
ENCODING 1093
SWIDTH 510 0
DWIDTH 17 0
BBX 15 16 1 0
BITMAP
F03C
783C
7C78
3CF0
1EF0
0FE0
0FC0
07C0
07C0
0FE0
1FF0
3EF0
3C78
787C
F83C
F03E
ENDCHAR
STARTCHAR 0446
ENCODING 1094
SWIDTH 510 0
DWIDTH 17 0
BBX 13 20 2 -4
BITMAP
F0F0
F0F0
F0F0
F0F0
F0F0
F0F0
F0F0
F0F0
F0F0
F0F0
F0F0
F0F0
F0F0
FFF8
FFF8
FFF8
0078
0078
0078
0078
ENDCHAR
STARTCHAR 0447
ENCODING 1095
SWIDTH 510 0
DWIDTH 17 0
BBX 13 16 1 0
BITMAP
F078
F078
F078
F078
F078
F078
F878
7878
7FF8
3FF8
0FF8
0078
0078
0078
0078
0078
ENDCHAR
STARTCHAR 0448
ENCODING 1096
SWIDTH 510 0
DWIDTH 17 0
BBX 14 16 1 0
BITMAP
E01C
E01C
E01C
E01C
E01C
E39C
E39C
E39C
E39C
E39C
E39C
E39C
E39C
FFFC
FFFC
FFFC
ENDCHAR
STARTCHAR 0449
ENCODING 1097
SWIDTH 510 0
DWIDTH 17 0
BBX 15 20 1 -4
BITMAP
E01C
E01C
E01C
E01C
E79C
E79C
E79C
E79C
E79C
E79C
E79C
E79C
E79C
FFFE
FFFE
FFFE
000E
000E
000E
000E
ENDCHAR
STARTCHAR 044A
ENCODING 1098
SWIDTH 510 0
DWIDTH 17 0
BBX 14 16 1 0
BITMAP
FC00
FC00
FC00
3C00
3C00
3FE0
3FF8
3FFC
3C3C
3C3C
3C3C
3C3C
3C3C
3FFC
3FF8
1FE0
ENDCHAR
STARTCHAR 044B
ENCODING 1099
SWIDTH 510 0
DWIDTH 17 0
BBX 14 16 1 0
BITMAP
E01C
E01C
E01C
E01C
E01C
FE1C
FF9C
FF9C
E3DC
E3DC
E1DC
E3DC
E3DC
FF9C
FF9C
7E1C
ENDCHAR
STARTCHAR 044C
ENCODING 1100
SWIDTH 510 0
DWIDTH 17 0
BBX 13 16 2 0
BITMAP
F000
F000
F000
F000
F000
F000
FFC0
FFF0
FFF8
F078
F078
F078
F078
FFF8
FFF0
7FC0
ENDCHAR
STARTCHAR 044D
ENCODING 1101
SWIDTH 510 0
DWIDTH 17 0
BBX 14 16 1 0
BITMAP
3F80
FFE0
7FF0
40F8
0078
003C
0FFC
0FFC
0FFC
003C
007C
0078
C1F8
FFF0
FFE0
7F80
ENDCHAR
STARTCHAR 044E
ENCODING 1102
SWIDTH 510 0
DWIDTH 17 0
BBX 15 16 1 0
BITMAP
E0F0
E3F8
E3FC
E79C
E71E
E70E
FF0E
FF0E
FF0E
E70E
E70E
E71E
E39C
E3FC
E1F8
E0F0
ENDCHAR
STARTCHAR 044F
ENCODING 1103
SWIDTH 510 0
DWIDTH 17 0
BBX 14 16 1 0
BITMAP
0FF8
3FFC
7FFC
7C3C
783C
783C
7C3C
7FFC
3FFC
1FFC
1E3C
3C3C
7C3C
783C
F83C
F03C
ENDCHAR
STARTCHAR 0450
ENCODING 1104
SWIDTH 510 0
DWIDTH 17 0
BBX 14 23 1 0
BITMAP
0400
0F00
0F80
0FC0
03C0
00C0
0000
07C0
1FF0
3FF8
7C78
783C
F83C
F03C
FFFC
FFFC
FFFC
F000
7800
7C08
3FF8
1FF8
07F0
ENDCHAR
STARTCHAR 0451
ENCODING 1105
SWIDTH 510 0
DWIDTH 17 0
BBX 14 23 1 0
BITMAP
3C70
3CF8
3CF8
3C70
0000
0000
0000
07C0
1FF0
3FF8
7C78
783C
F83C
F03C
FFFC
FFFC
FFFC
F000
7800
7C08
3FF8
1FF8
07F0
ENDCHAR
STARTCHAR 0452
ENCODING 1106
SWIDTH 510 0
DWIDTH 17 0
BBX 14 28 1 -5
BITMAP
0C00
3C00
3C00
FFC0
FFC0
FFC0
3C00
3FE0
3FF0
3FF8
3C78
3C78
3C78
3C7C
3C7C
3C7C
3C7C
3C7C
3C7C
3C7C
3C7C
3C7C
3C7C
0078
0078
07F8
07F0
07E0
ENDCHAR
STARTCHAR 0453
ENCODING 1107
SWIDTH 510 0
DWIDTH 17 0
BBX 12 23 3 0
BITMAP
0180
0380
07C0
1FC0
1F00
0800
0000
FFF0
FFF0
FFF0
F000
F000
F000
F000
F000
F000
F000
F000
F000
F000
F000
F000
F000
ENDCHAR
STARTCHAR 0454
ENCODING 1108
SWIDTH 510 0
DWIDTH 17 0
BBX 14 16 1 0
BITMAP
03F8
0FFC
3FFC
3E0C
7800
7800
FFE0
FFE0
FFE0
F800
7800
7C00
7E04
3FFC
1FFC
03FC
ENDCHAR
STARTCHAR 0455
ENCODING 1109
SWIDTH 510 0
DWIDTH 17 0
BBX 13 16 2 0
BITMAP
1FE0
3FF0
7FF0
F820
F000
F800
FF00
7FC0
3FE0
07F0
00F8
0078
E0F0
FFF0
FFE0
3F80
ENDCHAR
STARTCHAR 0456
ENCODING 1110
SWIDTH 510 0
DWIDTH 17 0
BBX 14 23 1 0
BITMAP
0E00
1F00
1F00
1F00
0E00
0000
0000
FF80
FF80
FF80
0F80
0F80
0F80
0F80
0F80
0F80
0F80
0780
0780
0784
07FC
03FC
01F8
ENDCHAR
STARTCHAR 0457
ENCODING 1111
SWIDTH 510 0
DWIDTH 17 0
BBX 14 23 1 0
BITMAP
38F0
7CF0
7CF0
38F0
0000
0000
0000
FF80
FF80
FF80
0F80
0F80
0F80
0F80
0F80
0F80
0F80
0780
0780
0784
07FC
03FC
01F8
ENDCHAR
STARTCHAR 0458
ENCODING 1112
SWIDTH 510 0
DWIDTH 17 0
BBX 11 28 2 -5
BITMAP
01C0
03E0
03E0
03E0
01C0
0000
0000
7FE0
7FE0
7FE0
01E0
01E0
01E0
01E0
01E0
01E0
01E0
01E0
01E0
01E0
01E0
01E0
01E0
01E0
43E0
FFC0
FFC0
3F00
ENDCHAR
STARTCHAR 0459
ENCODING 1113
SWIDTH 510 0
DWIDTH 17 0
BBX 16 16 0 0
BITMAP
3FC0
3FC0
3FC0
39C0
39C0
39FC
39FE
39FE
39CF
39C7
39C7
39C7
79CF
F9FE
F1FE
61F8
ENDCHAR
STARTCHAR 045A
ENCODING 1114
SWIDTH 510 0
DWIDTH 17 0
BBX 14 16 2 0
BITMAP
C700
C700
C700
C700
C700
C7F0
FFF8
FFF8
FF3C
C71C
C71C
C71C
C73C
C7F8
C7F8
C7E0
ENDCHAR
STARTCHAR 045B
ENCODING 1115
SWIDTH 510 0
DWIDTH 17 0
BBX 14 23 1 0
BITMAP
3C00
3C00
3C00
FFC0
FFC0
3C00
3C00
3FE0
3FF0
3FF8
3C78
3C78
3C78
3C7C
3C7C
3C7C
3C7C
3C7C
3C7C
3C7C
3C7C
3C7C
3C7C
ENDCHAR
STARTCHAR 045C
ENCODING 1116
SWIDTH 510 0
DWIDTH 17 0
BBX 14 23 2 0
BITMAP
0080
03C0
07C0
0FC0
0F00
0400
0000
F0F8
F0F0
F1F0
F3E0
F7C0
F780
FF00
FF00
FF80
F7C0
F3E0
F1E0
F1F0
F0F8
F078
F07C
ENDCHAR
STARTCHAR 045D
ENCODING 1117
SWIDTH 510 0
DWIDTH 17 0
BBX 12 23 2 0
BITMAP
0800
1E00
1F00
1F80
0780
0180
0000
F070
F0F0
F1F0
F1F0
F3F0
F3F0
F7F0
FF70
FE70
FE70
FC70
FC70
F870
F870
F070
F070
ENDCHAR
STARTCHAR 045E
ENCODING 1118
SWIDTH 510 0
DWIDTH 17 0
BBX 14 28 1 -5
BITMAP
1860
3C70
1FF0
1FE0
07C0
0000
0000
F83C
783C
783C
783C
7C78
3C78
3C78
3E70
1EF0
1EF0
0FE0
0FE0
0FE0
07C0
07C0
0380
0780
8F80
FF00
FE00
FC00
ENDCHAR
STARTCHAR 045F
ENCODING 1119
SWIDTH 510 0
DWIDTH 17 0
BBX 12 20 2 -4
BITMAP
F0F0
F0F0
F0F0
F0F0
F0F0
F0F0
F0F0
F0F0
F0F0
F0F0
F0F0
F0F0
F0F0
FFF0
FFF0
FFF0
0F00
0F00
0F00
0F00
ENDCHAR
STARTCHAR 0462
ENCODING 1122
SWIDTH 510 0
DWIDTH 17 0
BBX 14 21 1 0
BITMAP
3C00
3C00
FFE0
FFE0
FFE0
3C00
3C00
3C00
3FE0
3FF8
3FF8
3C7C
3C3C
3C3C
3C3C
3C3C
3C3C
3C7C
3FF8
3FF0
3FE0
ENDCHAR
STARTCHAR 0463
ENCODING 1123
SWIDTH 510 0
DWIDTH 17 0
BBX 14 23 1 0
BITMAP
1C00
3C00
3C00
3C00
3C00
3C00
3C00
FFE0
FFE0
FFE0
3FE0
3C00
3C00
3FE0
3FF8
3FFC
3C3C
3C3C
3C3C
3C3C
3FFC
3FF8
1FF0
ENDCHAR
STARTCHAR 0472
ENCODING 1138
SWIDTH 510 0
DWIDTH 17 0
BBX 15 20 1 0
BITMAP
0FC0
1FF0
3FF8
7C78
783C
F03C
F03C
F03C
FF3E
FFFE
FFFE
F1FE
F03C
F03C
F03C
783C
7C78
3FF8
1FF0
07C0
ENDCHAR
STARTCHAR 0473
ENCODING 1139
SWIDTH 510 0
DWIDTH 17 0
BBX 15 16 1 0
BITMAP
07C0
1FF0
3FF8
7C7C
783C
F03C
FF3C
FFFE
F3FE
F1FC
F03C
783C
7C78
3FF8
1FF0
07C0
ENDCHAR
STARTCHAR 0474
ENCODING 1140
SWIDTH 510 0
DWIDTH 17 0
BBX 17 20 0 0
BITMAP
F00F00
F81F80
783F80
783D00
783800
783800
787800
3C7800
3C7000
3C7000
3C7000
1CF000
1CE000
1EE000
0EE000
0FE000
0FC000
0FC000
07C000
07C000
ENDCHAR
STARTCHAR 0475
ENCODING 1141
SWIDTH 510 0
DWIDTH 17 0
BBX 16 16 1 0
BITMAP
F03F
F07F
F07E
F0FE
78F0
78F0
78F0
39E0
3DE0
3DE0
1FC0
1FC0
1FC0
0F80
0F80
0F00
ENDCHAR
STARTCHAR 048A
ENCODING 1162
SWIDTH 510 0
DWIDTH 17 0
BBX 14 33 2 -6
BITMAP
30C0
78E0
3FE0
3FC0
0F80
0000
0000
E078
E078
E0F8
E0F8
E1F8
E1F8
E3F8
E3F8
E778
E778
EE78
EE78
FC78
FC78
F878
F878
F078
F07C
E07C
E07C
003C
0038
0078
00F0
00F0
0020
ENDCHAR
STARTCHAR 048B
ENCODING 1163
SWIDTH 510 0
DWIDTH 17 0
BBX 14 28 2 -5
BITMAP
30C0
78E0
3FE0
3FC0
0F80
0000
0000
F070
F0F0
F1F0
F1F0
F3F0
F3F0
F7F0
FF70
FE70
FE70
FC70
FC70
F87C
F87C
F078
F078
0078
0070
00F0
00E0
0040
ENDCHAR
STARTCHAR 048C
ENCODING 1164
SWIDTH 510 0
DWIDTH 17 0
BBX 14 20 1 0
BITMAP
7800
7800
FF00
FF00
FF00
7800
7800
7FC0
7FF0
7FF8
787C
783C
783C
783C
783C
783C
787C
7FF8
7FF0
3FC0
ENDCHAR
STARTCHAR 048D
ENCODING 1165
SWIDTH 510 0
DWIDTH 17 0
BBX 14 16 1 0
BITMAP
7800
7800
FFC0
FFC0
FFC0
7800
7FE0
7FF8
7FFC
783C
783C
783C
783C
7FFC
7FF8
1FE0
ENDCHAR
STARTCHAR 048E
ENCODING 1166
SWIDTH 510 0
DWIDTH 17 0
BBX 14 20 2 0
BITMAP
FF80
FFE0
FFF0
F0F8
F078
F078
F03C
F3FC
F3F8
F3F8
FFF8
FFF0
FFF0
F070
F078
F030
F000
F000
F000
F000
ENDCHAR
STARTCHAR 048F
ENCODING 1167
SWIDTH 510 0
DWIDTH 17 0
BBX 13 21 2 -5
BITMAP
7F80
FFE0
FFF0
F0F0
F078
F078
F078
F078
F078
F378
F7F8
F3F8
F3F8
FFF0
FFE0
F7F0
F070
F078
F020
F000
F000
ENDCHAR
STARTCHAR 0490
ENCODING 1168
SWIDTH 510 0
DWIDTH 17 0
BBX 15 24 1 0
BITMAP
001E
001E
001E
001E
1FFE
1FFE
1FFE
1E00
1E00
1E00
1E00
1E00
1E00
1E00
1E00
1E00
1E00
1E00
1E00
1E00
1E00
FFF0
FFF0
FFF0
ENDCHAR
STARTCHAR 0491
ENCODING 1169
SWIDTH 510 0
DWIDTH 17 0
BBX 12 19 3 0
BITMAP
00F0
00F0
00F0
FFF0
FFF0
FFF0
F000
F000
F000
F000
F000
F000
F000
F000
F000
F000
F000
F000
F000
ENDCHAR
STARTCHAR 0492
ENCODING 1170
SWIDTH 510 0
DWIDTH 17 0
BBX 15 20 1 0
BITMAP
1FFE
1FFE
1FFE
1E00
1E00
1E00
1E00
1E00
FFF0
FFF0
FFF0
1E00
1E00
1E00
1E00
1E00
1E00
FFF0
FFF0
FFF0
ENDCHAR
STARTCHAR 0493
ENCODING 1171
SWIDTH 510 0
DWIDTH 17 0
BBX 14 16 1 0
BITMAP
3FFC
3FFC
3FFC
3C00
3C00
3C00
3C00
FFC0
FFC0
FFC0
3C00
3C00
3C00
3C00
3C00
3C00
ENDCHAR
STARTCHAR 0494
ENCODING 1172
SWIDTH 510 0
DWIDTH 17 0
BBX 15 26 1 -6
BITMAP
FFF8
FFF8
FFF8
F800
F800
F800
F800
FFC0
FFF0
FFF8
F878
F83C
F83C
F81E
F81E
F81E
F81E
F81E
F81E
F81E
003C
003C
00F8
07F8
0FF0
0FC0
ENDCHAR
STARTCHAR 0495
ENCODING 1173
SWIDTH 510 0
DWIDTH 17 0
BBX 13 21 2 -5
BITMAP
FFE0
FFE0
FFE0
F000
F000
F000
FF80
FFE0
FFF0
F0F8
F078
F078
F038
F038
F038
F078
0078
00F8
07F0
07E0
07C0
ENDCHAR
STARTCHAR 0496
ENCODING 1174
SWIDTH 510 0
DWIDTH 17 0
BBX 16 25 0 -5
BITMAP
F1C7
71CF
71CE
39CE
39DC
1DDC
1DF8
0DF8
0FF0
0FF0
0DF8
1DF8
1DDC
39DC
39CE
79CE
71CF
71CF
71C7
F1C7
0007
0007
0007
0007
0007
ENDCHAR
STARTCHAR 0497
ENCODING 1175
SWIDTH 510 0
DWIDTH 17 0
BBX 15 20 1 -4
BITMAP
E39E
E39C
739C
73B8
3BB8
3BF0
1FF0
1FE0
1FF0
3BF0
3BB8
73B8
73B8
F39E
E39E
E39E
000E
000E
000E
000E
ENDCHAR
STARTCHAR 0498
ENCODING 1176
SWIDTH 510 0
DWIDTH 17 0
BBX 15 26 1 -6
BITMAP
1FC0
7FF0
7FF8
207C
003C
003C
003C
00F8
1FF8
1FE0
1FF8
007C
003C
001E
001E
003E
607E
FFFC
FFF8
3FF0
03C0
0380
01C0
01C0
0FC0
0F80
ENDCHAR
STARTCHAR 0499
ENCODING 1177
SWIDTH 510 0
DWIDTH 17 0
BBX 12 22 2 -6
BITMAP
7F80
FFE0
7FE0
40F0
00F0
00F0
3FE0
3FC0
3FE0
00F0
00F0
00F0
C0F0
FFF0
FFE0
7F80
0E00
0700
0380
0380
1F80
3E00
ENDCHAR
STARTCHAR 049A
ENCODING 1178
SWIDTH 510 0
DWIDTH 17 0
BBX 15 25 1 -5
BITMAP
F87C
F878
F8F8
F8F0
F9E0
FBE0
FBC0
FF80
FF80
FF00
FF80
FFC0
FBE0
F9E0
F9F0
F8F0
F8F8
F87E
F87E
F83E
001E
001E
001E
001E
001E
ENDCHAR
STARTCHAR 049B
ENCODING 1179
SWIDTH 510 0
DWIDTH 17 0
BBX 13 20 2 -4
BITMAP
F1F0
F1E0
F3E0
F3C0
F780
F700
FF00
FE00
FF00
F780
F3C0
F3C0
F1E0
F1F8
F0F8
F0F8
0078
0078
0078
0078
ENDCHAR
STARTCHAR 049C
ENCODING 1180
SWIDTH 510 0
DWIDTH 17 0
BBX 15 20 1 0
BITMAP
F01E
F03C
F03C
F07C
F678
F6F8
F6F0
F7E0
F7E0
FFC0
FFE0
FFE0
F6F0
F6F0
F678
F638
F03C
F03C
F01E
F01E
ENDCHAR
STARTCHAR 049D
ENCODING 1181
SWIDTH 510 0
DWIDTH 17 0
BBX 15 16 1 0
BITMAP
F01E
F03C
F03C
F678
F6F0
F6F0
F7E0
FFE0
FFE0
F6F0
F678
F678
F63C
F03C
F01E
F01E
ENDCHAR
STARTCHAR 049E
ENCODING 1182
SWIDTH 510 0
DWIDTH 17 0
BBX 15 22 1 0
BITMAP
3C00
3C00
FF3E
FF3C
FF7C
3C78
3CF8
3CF0
3DE0
3FE0
3FC0
3F80
3FC0
3FE0
3DF0
3CF0
3CF8
3C78
3C3C
3C3C
3C3E
3C1E
ENDCHAR
STARTCHAR 049F
ENCODING 1183
SWIDTH 510 0
DWIDTH 17 0
BBX 15 17 1 0
BITMAP
7800
FE3C
FE7C
78F8
78F0
79E0
7BC0
7F80
7F80
7FC0
7BE0
79F0
78F0
78F8
787C
783C
783E
ENDCHAR
STARTCHAR 04A0
ENCODING 1184
SWIDTH 510 0
DWIDTH 17 0
BBX 15 20 1 0
BITMAP
FE3E
FE3C
FE7C
1E78
1EF8
1EF0
1EF0
1FE0
1FC0
1FC0
1FE0
1FE0
1EF0
1EF0
1E78
1E78
1E7C
1E3C
1E3E
1E3E
ENDCHAR
STARTCHAR 04A1
ENCODING 1185
SWIDTH 510 0
DWIDTH 17 0
BBX 15 16 1 0
BITMAP
FC7C
FC7C
FCF8
3CF0
3DE0
3DE0
3FC0
3FC0
3FE0
3DE0
3CF0
3CF8
3C78
3C7C
3C3C
3C3E
ENDCHAR
STARTCHAR 04A2
ENCODING 1186
SWIDTH 510 0
DWIDTH 17 0
BBX 15 25 1 -5
BITMAP
F878
F878
F878
F878
F878
F878
F878
F878
FFF8
FFF8
FFF8
F878
F878
F878
F878
F878
F878
F87E
F87E
F87E
001E
001E
001E
001E
001E
ENDCHAR
STARTCHAR 04A3
ENCODING 1187
SWIDTH 510 0
DWIDTH 17 0
BBX 13 20 2 -4
BITMAP
F0F0
F0F0
F0F0
F0F0
F0F0
F0F0
FFF0
FFF0
FFF0
F0F0
F0F0
F0F0
F0F0
F0F8
F0F8
F0F8
0038
0038
0038
0038
ENDCHAR
STARTCHAR 04A4
ENCODING 1188
SWIDTH 510 0
DWIDTH 17 0
BBX 15 20 1 0
BITMAP
F8FE
F8FE
F8FE
F8F0
F8F0
F8F0
F8F0
F8F0
FFF0
FFF0
FFF0
F8F0
F8F0
F8F0
F8F0
F8F0
F8F0
F8F0
F8F0
F8F0
ENDCHAR
STARTCHAR 04A5
ENCODING 1189
SWIDTH 510 0
DWIDTH 17 0
BBX 14 16 2 0
BITMAP
F1FC
F1FC
F1FC
F1E0
F1E0
F1E0
F1E0
FFE0
FFE0
FFE0
F1E0
F1E0
F1E0
F1E0
F1E0
F1E0
ENDCHAR
STARTCHAR 04A6
ENCODING 1190
SWIDTH 510 0
DWIDTH 17 0
BBX 15 25 1 -5
BITMAP
FF80
FF80
FF80
E380
E380
E380
E380
E3F0
E3F8
E3FC
E39C
E39C
E39E
E39E
E38E
E38E
E38E
E38E
E39E
E39E
001C
003C
00FC
00F8
00F0
ENDCHAR
STARTCHAR 04A7
ENCODING 1191
SWIDTH 510 0
DWIDTH 17 0
BBX 15 21 1 -5
BITMAP
FF80
FF80
FF80
E380
E380
E380
E3F0
E3F8
E3FC
E39C
E39E
E39E
E38E
E38E
E38E
E39E
001E
001C
00FC
00F8
00F0
ENDCHAR
STARTCHAR 04A8
ENCODING 1192
SWIDTH 510 0
DWIDTH 17 0
BBX 15 25 1 -5
BITMAP
07F0
1FF8
3FF8
7C10
7800
F000
F0F8
F1FC
F3FC
E39E
E79E
E78E
F78E
F79E
F79E
779C
7FBC
3FF8
1FF0
0FC0
01E0
01F0
00FC
0078
0018
ENDCHAR
STARTCHAR 04A9
ENCODING 1193
SWIDTH 510 0
DWIDTH 17 0
BBX 15 20 1 -4
BITMAP
07F0
1FE0
3FE0
7C00
F000
F0F8
F1FC
E3FE
E39E
E78E
F78E
F79E
7FBE
7FFC
3FF8
0FF0
01F0
00FE
007E
001C
ENDCHAR
STARTCHAR 04AA
ENCODING 1194
SWIDTH 510 0
DWIDTH 17 0
BBX 14 26 1 -6
BITMAP
03F8
0FFC
1FFC
3E0C
7C00
7800
F000
F000
F000
F000
F000
F000
F000
F000
F800
7800
7E0C
3FFC
1FFC
07F8
0380
03C0
00E0
00E0
0FC0
0F80
ENDCHAR
STARTCHAR 04AB
ENCODING 1195
SWIDTH 510 0
DWIDTH 17 0
BBX 14 22 1 -6
BITMAP
03F8
0FFC
3FFC
3E08
7C00
7800
7800
F800
F800
7800
7800
7C00
7E04
3FFC
1FFC
07FC
0380
03C0
00E0
00E0
07C0
0F80
ENDCHAR
STARTCHAR 04AC
ENCODING 1196
SWIDTH 510 0
DWIDTH 17 0
BBX 15 25 1 -5
BITMAP
FFFE
FFFE
FFFE
0780
0780
0780
0780
0780
0780
0780
0780
0780
0780
0780
0780
0780
0780
07F0
07F0
07F0
00F0
00F0
00F0
00F0
00F0
ENDCHAR
STARTCHAR 04AD
ENCODING 1197
SWIDTH 510 0
DWIDTH 17 0
BBX 14 20 1 -4
BITMAP
FFFC
FFFC
FFFC
0780
0780
0780
0780
0780
0780
0780
0780
0780
07F0
07F0
07F0
07F0
00F0
00F0
00F0
00F0
ENDCHAR
STARTCHAR 04AE
ENCODING 1198
SWIDTH 510 0
DWIDTH 17 0
BBX 15 20 1 0
BITMAP
F01E
F03E
F83C
783C
7878
3C78
3C70
1EF0
1EE0
0FE0
0FC0
07C0
0780
0780
0780
0780
0780
0780
0780
0780
ENDCHAR
STARTCHAR 04AF
ENCODING 1199
SWIDTH 510 0
DWIDTH 17 0
BBX 15 21 1 -5
BITMAP
F01E
F03E
F03C
783C
783C
7878
3C78
3CF0
3CF0
1EF0
1FE0
1FE0
0FC0
0FC0
0780
0780
0780
0780
0780
0780
0780
ENDCHAR
STARTCHAR 04B0
ENCODING 1200
SWIDTH 510 0
DWIDTH 17 0
BBX 15 20 1 0
BITMAP
F01E
F03E
F83C
783C
7878
3C78
3C70
1EF0
1EE0
0FE0
0FC0
07C0
7FF8
7FF8
7FF8
0780
0780
0780
0780
0780
ENDCHAR
STARTCHAR 04B1
ENCODING 1201
SWIDTH 510 0
DWIDTH 17 0
BBX 15 21 1 -5
BITMAP
F01E
F03E
F03C
783C
783C
7878
3C78
3CF0
3CF0
1EF0
1FE0
1FE0
0FC0
7FF8
7FF8
7FF8
0780
0780
0780
0780
0780
ENDCHAR
STARTCHAR 04B2
ENCODING 1202
SWIDTH 510 0
DWIDTH 17 0
BBX 15 25 1 -5
BITMAP
F03C
F878
7878
3CF0
3CF0
1DE0
1FE0
0FC0
0FC0
0780
0FC0
0FC0
1FE0
3DF0
3CF0
7CF8
7878
F87E
F03E
F03E
001E
001E
001E
001E
001E
ENDCHAR
STARTCHAR 04B3
ENCODING 1203
SWIDTH 510 0
DWIDTH 17 0
BBX 14 20 1 -4
BITMAP
F03C
7878
78F8
3CF0
1FE0
1FE0
0FC0
0F80
0FC0
1FC0
1FE0
3DF0
3CF0
787C
F07C
F03C
001C
001C
001C
001C
ENDCHAR
STARTCHAR 04B4
ENCODING 1204
SWIDTH 510 0
DWIDTH 17 0
BBX 15 25 1 -5
BITMAP
FF3C
FF3C
FF3C
3C3C
3C3C
3C3C
3C3C
3C3C
3C3C
3C3C
3C3C
3C3C
3C3C
3C3C
3C3C
3C3C
3C3C
3FFE
3FFE
3FFE
001E
001E
001E
001E
001E
ENDCHAR
STARTCHAR 04B5
ENCODING 1205
SWIDTH 510 0
DWIDTH 17 0
BBX 15 20 1 -4
BITMAP
FF38
FF38
FF38
3838
3838
3838
3838
3838
3838
3838
3838
3838
3838
3FFE
3FFE
3FFE
001E
001E
001E
001E
ENDCHAR
STARTCHAR 04B6
ENCODING 1206
SWIDTH 510 0
DWIDTH 17 0
BBX 15 25 1 -5
BITMAP
F878
F878
F878
F878
F878
F878
F878
7878
7878
7C78
7FF8
7FF8
3FF8
0FF8
0078
0078
0078
007E
007E
007E
001E
001E
001E
001E
001E
ENDCHAR
STARTCHAR 04B7
ENCODING 1207
SWIDTH 510 0
DWIDTH 17 0
BBX 14 20 1 -4
BITMAP
F078
F078
F078
F078
F078
F878
F878
7FF8
7FF8
3FF8
1FF8
0078
0078
007C
007C
007C
003C
003C
003C
003C
ENDCHAR
STARTCHAR 04B8
ENCODING 1208
SWIDTH 510 0
DWIDTH 17 0
BBX 14 20 1 0
BITMAP
F03C
F03C
F03C
F03C
F03C
F03C
F33C
F33C
F33C
FB3C
7FFC
3FFC
1FFC
033C
033C
033C
003C
003C
003C
003C
ENDCHAR
STARTCHAR 04B9
ENCODING 1209
SWIDTH 510 0
DWIDTH 17 0
BBX 14 16 1 0
BITMAP
F83C
F83C
F83C
F83C
F83C
FB3C
7B3C
7B3C
7FFC
3FFC
0FFC
033C
033C
003C
003C
003C
ENDCHAR
STARTCHAR 04BA
ENCODING 1210
SWIDTH 510 0
DWIDTH 17 0
BBX 13 20 2 0
BITMAP
F000
F000
F000
F000
F000
F000
FFC0
FFE0
FFF0
F0F8
F078
F078
F078
F078
F078
F078
F078
F078
F078
F078
ENDCHAR
STARTCHAR 04BB
ENCODING 1211
SWIDTH 510 0
DWIDTH 17 0
BBX 13 23 2 0
BITMAP
F000
F000
F000
F000
F000
F000
F000
FF80
FFE0
FFF0
F0F0
F0F0
F0F0
F0F8
F0F8
F0F8
F0F8
F0F8
F0F8
F0F8
F0F8
F0F8
F0F8
ENDCHAR
STARTCHAR 04BC
ENCODING 1212
SWIDTH 510 0
DWIDTH 17 0
BBX 16 20 0 0
BITMAP
00F8
01FC
03FE
039E
E78E
E78F
E70F
7707
7FFF
3FFF
0FFF
0700
0700
0780
0780
0380
03C2
01FF
00FF
007C
ENDCHAR
STARTCHAR 04BD
ENCODING 1213
SWIDTH 510 0
DWIDTH 17 0
BBX 15 16 0 0
BITMAP
00F0
03FC
F3FC
E79E
F70E
F70E
7FFE
3FFE
1FFE
0700
0700
0780
0784
03FC
01FC
00FC
ENDCHAR
STARTCHAR 04BE
ENCODING 1214
SWIDTH 510 0
DWIDTH 17 0
BBX 16 24 0 -4
BITMAP
00F8
01FC
03FE
039E
E38E
E78F
E70F
F707
7FFF
3FFF
1FFF
0700
0700
0780
0780
0380
03C2
03FF
01FF
00FC
0078
0078
0078
0078
ENDCHAR
STARTCHAR 04BF
ENCODING 1215
SWIDTH 510 0
DWIDTH 17 0
BBX 15 20 0 -4
BITMAP
00F0
03FC
F3FC
E79E
F70E
F70E
7FFE
7FFE
1FFE
0700
0700
0780
0784
03FC
03FC
00FC
0070
0070
0070
0070
ENDCHAR
STARTCHAR 04C0
ENCODING 1216
SWIDTH 510 0
DWIDTH 17 0
BBX 13 20 2 0
BITMAP
FFF8
FFF8
FFF8
0F00
0F00
0F00
0F00
0F00
0F00
0F00
0F00
0F00
0F00
0F00
0F00
0F00
0F00
FFF8
FFF8
FFF8
ENDCHAR
STARTCHAR 04C1
ENCODING 1217
SWIDTH 510 0
DWIDTH 17 0
BBX 16 28 0 0
BITMAP
0C30
1E38
0FF8
0FF0
03E0
0000
0000
0000
F1C7
71CF
71CE
39CE
39DC
1DDC
1DF8
0DF8
0FF0
0FF0
0DF8
1DF8
1DDC
39DC
39CE
79CE
71CE
71CF
71C7
F1C7
ENDCHAR
STARTCHAR 04C2
ENCODING 1218
SWIDTH 510 0
DWIDTH 17 0
BBX 15 23 1 0
BITMAP
1860
3C70
1FF0
1FE0
07C0
0000
0000
E39E
E39C
739C
73B8
3BB8
3BF0
1FF0
1FE0
1FF0
3BF0
3BB8
73B8
73BC
F39C
E39C
E39E
ENDCHAR
STARTCHAR 04C3
ENCODING 1219
SWIDTH 510 0
DWIDTH 17 0
BBX 15 25 1 -5
BITMAP
F83E
F83C
F87C
F8F8
F9F0
F9E0
FBC0
FFC0
FF80
FFC0
FFF0
FFF8
F87C
F83C
F81E
F81E
F81E
F81E
F81E
F81E
003C
007C
07F8
07F0
07C0
ENDCHAR
STARTCHAR 04C4
ENCODING 1220
SWIDTH 510 0
DWIDTH 17 0
BBX 13 21 2 -5
BITMAP
F078
F0F0
F1F0
F3E0
F7C0
F700
FFC0
FFE0
FFF0
F0F8
F078
F078
F038
F038
F038
F078
0078
00F8
07F0
07E0
0780
ENDCHAR
STARTCHAR 04C5
ENCODING 1221
SWIDTH 510 0
DWIDTH 17 0
BBX 16 26 0 -6
BITMAP
07FC
07FC
07FC
07BC
07BC
073C
073C
073C
0F3C
0F3C
0F3C
0F3C
0F3C
0E3C
1E3C
1E3C
7C3F
F83F
783E
603E
001E
001E
003C
003C
0078
0010
ENDCHAR
STARTCHAR 04C6
ENCODING 1222
SWIDTH 510 0
DWIDTH 17 0
BBX 15 21 1 -5
BITMAP
1FF8
1FF8
1FF8
1E78
1E78
1E78
1E78
1E78
1E78
1C78
3C78
3C78
787E
F87E
F07C
C07C
003C
0038
0078
0070
0020
ENDCHAR
STARTCHAR 04C7
ENCODING 1223
SWIDTH 510 0
DWIDTH 17 0
BBX 14 26 1 -6
BITMAP
F83C
F83C
F83C
F83C
F83C
F83C
F83C
F83C
FFFC
FFFC
FFFC
F83C
F83C
F83C
F83C
F83C
F83C
F83C
F83C
F83C
003C
003C
007C
03F8
03F8
03E0
ENDCHAR
STARTCHAR 04C8
ENCODING 1224
SWIDTH 510 0
DWIDTH 17 0
BBX 13 21 2 -5
BITMAP
F0F8
F0F8
F0F8
F0F8
F0F8
F0F8
F0F8
FFF8
FFF8
FFF8
F0F8
F0F8
F0F8
F0F8
F0F8
F0F8
00F0
00F0
0FF0
0FE0
0F80
ENDCHAR
STARTCHAR 04C9
ENCODING 1225
SWIDTH 510 0
DWIDTH 17 0
BBX 15 26 1 -6
BITMAP
F878
F878
F878
F878
F878
F878
F878
F878
FFF8
FFF8
FFF8
F878
F878
F878
F878
F878
F87E
F87E
F87C
F87C
003C
003C
0078
0078
0070
0020
ENDCHAR
STARTCHAR 04CA
ENCODING 1226
SWIDTH 510 0
DWIDTH 17 0
BBX 14 21 2 -5
BITMAP
F0F0
F0F0
F0F0
F0F0
F0F0
F0F0
F0F0
FFF0
FFF0
FFF0
F0F0
F0F0
F0FC
F0FC
F0F8
F0F8
0078
0070
00F0
00E0
0060
ENDCHAR
STARTCHAR 04CB
ENCODING 1227
SWIDTH 510 0
DWIDTH 17 0
BBX 14 25 1 -5
BITMAP
F83C
F83C
F83C
F83C
F83C
F83C
F83C
783C
783C
783C
7C3C
3FFC
3FFC
0FFC
003C
003C
003C
00FC
00FC
00FC
00F0
00F0
00F0
00F0
00F0
ENDCHAR
STARTCHAR 04CC
ENCODING 1228
SWIDTH 510 0
DWIDTH 17 0
BBX 13 20 1 -4
BITMAP
F078
F078
F078
F078
F078
F078
F878
7878
7FF8
3FF8
0FF8
0078
0078
03F8
03F8
03F8
03C0
03C0
03C0
03C0
ENDCHAR
STARTCHAR 04CD
ENCODING 1229
SWIDTH 510 0
DWIDTH 17 0
BBX 15 26 1 -6
BITMAP
7078
7878
7878
78F8
7CF8
ECD8
ECD8
EDDC
EFDC
E79C
E79C
E79C
E79C
E01C
E01C
E01C
E01E
E01E
E01E
E01E
001E
001C
003C
0078
0078
0010
ENDCHAR
STARTCHAR 04CE
ENCODING 1230
SWIDTH 510 0
DWIDTH 17 0
BBX 15 21 1 -5
BITMAP
7878
7878
7878
78F8
FCF8
FCDC
FCDC
FCDC
FDDC
F79C
F79C
F79C
F79E
F79E
F01E
F01E
001C
003C
003C
0078
0010
ENDCHAR
STARTCHAR 04CF
ENCODING 1231
SWIDTH 510 0
DWIDTH 17 0
BBX 13 20 2 0
BITMAP
FFF8
FFF8
FFF8
0F00
0F00
0F00
0F00
0F00
0F00
0F00
0F00
0F00
0F00
0F00
0F00
0F00
0F00
FFF8
FFF8
FFF8
ENDCHAR
STARTCHAR 04D0
ENCODING 1232
SWIDTH 510 0
DWIDTH 17 0
BBX 16 28 0 0
BITMAP
0C30
1E38
0FF8
0FF0
03E0
0000
0000
0000
03E0
03E0
07E0
07F0
07F0
0F70
0E78
0E78
1E78
1E38
1E3C
1C3C
3FFC
3FFE
3FFE
781E
781E
781F
780F
F80F
ENDCHAR
STARTCHAR 04D1
ENCODING 1233
SWIDTH 510 0
DWIDTH 17 0
BBX 14 23 1 0
BITMAP
1860
3C70
1FF0
1FE0
07C0
0000
0000
3FC0
3FF0
3FF8
2078
0078
003C
0FFC
3FFC
7FFC
783C
F03C
F03C
783C
7FFC
3FFC
0FF0
ENDCHAR
STARTCHAR 04D2
ENCODING 1234
SWIDTH 510 0
DWIDTH 17 0
BBX 16 28 0 0
BITMAP
1E38
1E7C
1E7C
1E38
0000
0000
0000
0000
03E0
03E0
07E0
07F0
07F0
0F70
0E78
0E78
1E78
1E38
1E3C
1C3C
3FFC
3FFE
3FFE
781E
781E
781F
780F
F80F
ENDCHAR
STARTCHAR 04D3
ENCODING 1235
SWIDTH 510 0
DWIDTH 17 0
BBX 14 23 1 0
BITMAP
3C70
3CF8
3CF8
3C70
0000
0000
0000
3FC0
3FF0
3FF8
2078
0078
003C
0FFC
3FFC
7FFC
783C
F03C
F03C
783C
7FFC
3FFC
0FF0
ENDCHAR
STARTCHAR 04D4
ENCODING 1236
SWIDTH 510 0
DWIDTH 17 0
BBX 16 20 0 0
BITMAP
03FF
03FF
03FF
07F0
07F0
07F0
0EF0
0EF0
0EFE
1EFE
1CFE
1CF0
3FF0
3FF0
3FF0
78F0
78F0
78FF
78FF
F8FF
ENDCHAR
STARTCHAR 04D5
ENCODING 1237
SWIDTH 510 0
DWIDTH 17 0
BBX 15 16 1 0
BITMAP
3C78
7FFC
7FFC
47DE
038E
038E
3F8E
7FFE
FFFE
E380
E380
E3C0
E3C0
FFFC
7FFC
3E7C
ENDCHAR
STARTCHAR 04D6
ENCODING 1238
SWIDTH 510 0
DWIDTH 17 0
BBX 13 28 2 0
BITMAP
1860
3C70
1FF0
1FE0
07C0
0000
0000
0000
FFF0
FFF0
FFF0
F000
F000
F000
F000
F000
FFE0
FFE0
FFE0
F000
F000
F000
F000
F000
F000
FFF8
FFF8
FFF8
ENDCHAR
STARTCHAR 04D7
ENCODING 1239
SWIDTH 510 0
DWIDTH 17 0
BBX 14 23 1 0
BITMAP
0C70
1C78
1FF0
0FE0
07C0
0000
0000
07C0
1FF0
3FF8
7C78
783C
F83C
F03C
FFFC
FFFC
FFFC
F000
7800
7C08
3FF8
1FF8
07F0
ENDCHAR
STARTCHAR 04D8
ENCODING 1240
SWIDTH 510 0
DWIDTH 17 0
BBX 14 20 1 0
BITMAP
3F80
7FE0
7FF0
40F8
0078
003C
003C
001C
001C
FFFC
FFFC
FFFC
F01C
F03C
F03C
703C
7878
3FF0
1FE0
0FC0
ENDCHAR
STARTCHAR 04D9
ENCODING 1241
SWIDTH 510 0
DWIDTH 17 0
BBX 14 16 1 0
BITMAP
3F80
7FE0
7FF8
60F8
007C
003C
003C
FFFC
FFFC
FFFC
F03C
F03C
7878
7FF8
3FE0
0FC0
ENDCHAR
STARTCHAR 04DA
ENCODING 1242
SWIDTH 510 0
DWIDTH 17 0
BBX 14 28 1 0
BITMAP
38F0
7CF0
7CF0
38F0
0000
0000
0000
0000
3F80
7FE0
7FF0
40F8
0078
003C
003C
001C
001C
FFFC
FFFC
FFFC
F01C
F03C
F03C
703C
7878
3FF0
1FE0
0FC0
ENDCHAR
STARTCHAR 04DB
ENCODING 1243
SWIDTH 510 0
DWIDTH 17 0
BBX 14 23 1 0
BITMAP
3870
3CF8
3CF8
3870
0000
0000
0000
3F80
7FE0
7FF8
60F8
007C
003C
003C
FFFC
FFFC
FFFC
F03C
F03C
7878
7FF8
3FE0
0FC0
ENDCHAR
STARTCHAR 04DC
ENCODING 1244
SWIDTH 510 0
DWIDTH 17 0
BBX 16 28 0 0
BITMAP
1E38
1E7C
1E7C
1E38
0000
0000
0000
0000
F1C7
71CF
71CE
39CE
39DC
1DDC
1DF8
0DF8
0FF0
0FF0
0DF8
1DF8
1DDC
39DC
39CE
79CE
71CE
71CF
71C7
F1C7
ENDCHAR
STARTCHAR 04DD
ENCODING 1245
SWIDTH 510 0
DWIDTH 17 0
BBX 15 23 1 0
BITMAP
3C70
3CF8
3CF8
3C70
0000
0000
0000
E39E
E39C
739C
73B8
3BB8
3BF0
1FF0
1FE0
1FF0
3BF0
3BB8
73B8
73BC
F39C
E39C
E39E
ENDCHAR
STARTCHAR 04DE
ENCODING 1246
SWIDTH 510 0
DWIDTH 17 0
BBX 15 28 1 0
BITMAP
3C70
3CF8
3CF8
3C70
0000
0000
0000
0000
1FC0
7FF0
7FF8
207C
003C
003C
003C
00F8
1FF8
1FE0
1FF8
007C
003C
001E
001E
003E
607C
FFFC
FFF8
3FC0
ENDCHAR
STARTCHAR 04DF
ENCODING 1247
SWIDTH 510 0
DWIDTH 17 0
BBX 12 23 2 0
BITMAP
70E0
79F0
79F0
70E0
0000
0000
0000
7F80
FFE0
7FE0
40F0
00F0
00F0
3FE0
3FC0
3FE0
00F0
00F0
00F0
C0F0
FFF0
FFE0
7F80
ENDCHAR
STARTCHAR 04E0
ENCODING 1248
SWIDTH 510 0
DWIDTH 17 0
BBX 15 20 1 0
BITMAP
7FFC
7FFC
7FFC
0078
00F0
01E0
03C0
0780
07E0
07F8
07FC
007E
003E
001E
001E
003E
607C
FFFC
FFF8
3FC0
ENDCHAR
STARTCHAR 04E1
ENCODING 1249
SWIDTH 510 0
DWIDTH 17 0
BBX 14 21 1 -5
BITMAP
7FF8
7FF8
7FF8
00F8
01F0
01E0
03C0
07C0
0F80
0FC0
0FF0
00F8
0078
0078
007C
007C
0078
40F8
FFF0
FFE0
3FC0
ENDCHAR
STARTCHAR 04E2
ENCODING 1250
SWIDTH 510 0
DWIDTH 17 0
BBX 13 26 2 0
BITMAP
3FE0
3FE0
3FE0
0000
0000
0000
E078
E078
E0F8
E0F8
E1F8
E1F8
E3F8
E3F8
E778
E778
EE78
EE78
FC78
FC78
F878
F878
F078
F078
E078
E078
ENDCHAR
STARTCHAR 04E3
ENCODING 1251
SWIDTH 510 0
DWIDTH 17 0
BBX 12 21 2 0
BITMAP
3FE0
3FE0
3FE0
0000
0000
F070
F0F0
F1F0
F1F0
F3F0
F3F0
F7F0
FF70
FE70
FE70
FC70
FC70
F870
F870
F070
F070
ENDCHAR
STARTCHAR 04E4
ENCODING 1252
SWIDTH 510 0
DWIDTH 17 0
BBX 13 28 2 0
BITMAP
78E0
79F0
79F0
78E0
0000
0000
0000
0000
E078
E078
E0F8
E0F8
E1F8
E1F8
E3F8
E3F8
E778
E778
EE78
EE78
FC78
FC78
F878
F878
F078
F078
E078
E078
ENDCHAR
STARTCHAR 04E5
ENCODING 1253
SWIDTH 510 0
DWIDTH 17 0
BBX 12 23 2 0
BITMAP
78E0
79F0
79F0
78E0
0000
0000
0000
F070
F0F0
F1F0
F1F0
F3F0
F3F0
F7F0
FF70
FE70
FE70
FC70
FC70
F870
F870
F070
F070
ENDCHAR
STARTCHAR 04E6
ENCODING 1254
SWIDTH 510 0
DWIDTH 17 0
BBX 15 28 1 0
BITMAP
3C70
3CF8
3CF8
3C70
0000
0000
0000
0000
0FC0
1FF0
3FF8
7C78
783C
F83C
F03C
F03C
F03E
F03E
F03E
F03E
F03C
F03C
F83C
783C
7C78
3FF8
1FF0
07C0
ENDCHAR
STARTCHAR 04E7
ENCODING 1255
SWIDTH 510 0
DWIDTH 17 0
BBX 15 23 1 0
BITMAP
3C70
3CF8
3CF8
3C70
0000
0000
0000
07C0
1FF0
3FF8
7C7C
783C
F03C
F03C
F03E
F03E
F03C
F03C
783C
7C78
3FF8
1FF0
07C0
ENDCHAR
STARTCHAR 04E8
ENCODING 1256
SWIDTH 510 0
DWIDTH 17 0
BBX 15 20 1 0
BITMAP
0FC0
1FF0
3FF8
7C78
783C
F83C
F03C
F03C
F03E
FFFE
FFFE
FFFE
F03C
F03C
F03C
783C
7C78
3FF8
1FF0
07C0
ENDCHAR
STARTCHAR 04E9
ENCODING 1257
SWIDTH 510 0
DWIDTH 17 0
BBX 15 16 1 0
BITMAP
07C0
1FF0
3FF8
7C7C
783C
F03C
FFFC
FFFE
FFFE
F03C
F03C
783C
7C78
3FF8
1FF0
07C0
ENDCHAR
STARTCHAR 04EA
ENCODING 1258
SWIDTH 510 0
DWIDTH 17 0
BBX 15 28 1 0
BITMAP
3C70
3CF8
3CF8
3C70
0000
0000
0000
0000
0FC0
1FF0
3FF8
7C78
783C
F83C
F03C
F03C
F03E
FFFE
FFFE
FFFE
F03C
F03C
F03C
783C
7C78
3FF8
1FF0
07C0
ENDCHAR
STARTCHAR 04EB
ENCODING 1259
SWIDTH 510 0
DWIDTH 17 0
BBX 15 23 1 0
BITMAP
3C70
3CF8
3CF8
3C70
0000
0000
0000
07C0
1FF0
3FF8
7C7C
783C
F03C
FFFC
FFFE
FFFE
F03C
F03C
783C
7C78
3FF8
1FF0
07C0
ENDCHAR
STARTCHAR 04EC
ENCODING 1260
SWIDTH 510 0
DWIDTH 17 0
BBX 15 28 1 0
BITMAP
3870
3CF8
3CF8
3870
0000
0000
0000
0000
1F80
7FE0
7FF0
20F8
003C
003C
001E
001E
0FFE
0FFE
0FFE
0FFE
001E
001E
003C
007C
60F8
7FF0
FFE0
3F80
ENDCHAR
STARTCHAR 04ED
ENCODING 1261
SWIDTH 510 0
DWIDTH 17 0
BBX 14 23 1 0
BITMAP
3870
3CF8
3CF8
3870
0000
0000
0000
3F80
FFE0
7FF0
40F8
0078
003C
0FFC
0FFC
0FFC
003C
007C
0078
C1F8
FFF0
FFE0
7F80
ENDCHAR
STARTCHAR 04EE
ENCODING 1262
SWIDTH 510 0
DWIDTH 17 0
BBX 16 26 0 0
BITMAP
0FF8
0FF8
0FF8
0000
0000
0000
F81F
781F
7C1E
3C1E
3E3E
1E3C
1E3C
0F7C
0F78
07F8
07F8
03F0
01F0
01E0
01E0
03E0
23C0
7F80
7F00
3E00
ENDCHAR
STARTCHAR 04EF
ENCODING 1263
SWIDTH 510 0
DWIDTH 17 0
BBX 14 26 1 -5
BITMAP
1FF0
1FF0
1FF0
0000
0000
F83C
783C
783C
783C
7C78
3C78
3C78
3E70
1EF0
1EF0
0FE0
0FE0
0FE0
07C0
07C0
0380
0780
8F80
FF00
FE00
FC00
ENDCHAR
STARTCHAR 04F0
ENCODING 1264
SWIDTH 510 0
DWIDTH 17 0
BBX 16 28 0 0
BITMAP
1E38
1E7C
1E7C
1E38
0000
0000
0000
0000
F81F
781F
7C1E
3C1E
3E3E
1E3C
1E3C
0F7C
0F78
07F8
07F8
03F0
01F0
01E0
01E0
03E0
23C0
7F80
7F00
3E00
ENDCHAR
STARTCHAR 04F1
ENCODING 1265
SWIDTH 510 0
DWIDTH 17 0
BBX 14 28 1 -5
BITMAP
1C70
3E78
3E78
1C70
0000
0000
0000
F83C
783C
783C
783C
7C78
3C78
3C78
3E70
1EF0
1EF0
0FE0
0FE0
0FE0
07C0
07C0
0380
0780
8F80
FF00
FE00
FC00
ENDCHAR
STARTCHAR 04F2
ENCODING 1266
SWIDTH 510 0
DWIDTH 17 0
BBX 16 28 0 0
BITMAP
0104
038E
079E
0FBE
1E78
0C30
0000
0000
F81F
781F
7C1E
3C1E
3E3E
1E3C
1E3C
0F7C
0F78
07F8
07F8
03F0
01F0
01E0
01E0
03E0
23C0
7F80
7F00
3E00
ENDCHAR
STARTCHAR 04F3
ENCODING 1267
SWIDTH 510 0
DWIDTH 17 0
BBX 14 28 1 -5
BITMAP
0208
071C
0F3C
1F7C
3CF0
1860
0000
F83C
783C
783C
783C
7C78
3C78
3C78
3E70
1EF0
1EF0
0FE0
0FE0
0FE0
07C0
07C0
0380
0780
8F80
FF00
FE00
FC00
ENDCHAR
STARTCHAR 04F4
ENCODING 1268
SWIDTH 510 0
DWIDTH 17 0
BBX 14 28 1 0
BITMAP
3C70
3CF8
3CF8
3C70
0000
0000
0000
0000
F83C
F83C
F83C
F83C
F83C
F83C
F83C
783C
783C
783C
7C3C
3FFC
3FFC
0FFC
003C
003C
003C
003C
003C
003C
ENDCHAR
STARTCHAR 04F5
ENCODING 1269
SWIDTH 510 0
DWIDTH 17 0
BBX 13 23 1 0
BITMAP
3C70
3CF8
3CF8
3C70
0000
0000
0000
F078
F078
F078
F078
F078
F078
F878
7878
7FF8
3FF8
0FF8
0078
0078
0078
0078
0078
ENDCHAR
STARTCHAR 04F6
ENCODING 1270
SWIDTH 510 0
DWIDTH 17 0
BBX 15 24 1 -4
BITMAP
1FFE
1FFE
1FFE
1E00
1E00
1E00
1E00
1E00
1E00
1E00
1E00
1E00
1E00
1E00
1E00
1E00
1E00
FFF0
FFF0
FFF0
00F0
00F0
00F0
00F0
ENDCHAR
STARTCHAR 04F7
ENCODING 1271
SWIDTH 510 0
DWIDTH 17 0
BBX 12 20 3 -4
BITMAP
FFF0
FFF0
FFF0
F000
F000
F000
F000
F000
F000
F000
F000
F000
F000
FE00
FE00
FE00
1E00
1E00
1E00
1E00
ENDCHAR
STARTCHAR 04F8
ENCODING 1272
SWIDTH 510 0
DWIDTH 17 0
BBX 14 28 1 0
BITMAP
3C70
3CF8
3CF8
3C70
0000
0000
0000
0000
E01C
E01C
E01C
E01C
E01C
E01C
E01C
FE1C
FF1C
FF9C
E3DC
E3DC
E1DC
E1DC
E1DC
E3DC
E3DC
FF9C
FF1C
FE1C
ENDCHAR
STARTCHAR 04F9
ENCODING 1273
SWIDTH 510 0
DWIDTH 17 0
BBX 14 23 1 0
BITMAP
3C70
3CF8
3CF8
3C70
0000
0000
0000
E01C
E01C
E01C
E01C
E01C
FE1C
FF9C
FF9C
E3DC
E3DC
E1DC
E3DC
E3DC
FF9C
FF9C
7E1C
ENDCHAR
STARTCHAR 1E80
ENCODING 7808
SWIDTH 510 0
DWIDTH 17 0
BBX 15 28 1 0
BITMAP
0400
0E00
0F80
0FC0
03C0
0080
0000
0000
F01E
E01E
E01E
E01E
E01E
E01E
E01C
E39C
E79C
E79C
E7DC
EFDC
EEDC
EEFC
ECFC
7C7C
787C
787C
783C
783C
ENDCHAR
STARTCHAR 1E81
ENCODING 7809
SWIDTH 510 0
DWIDTH 17 0
BBX 16 23 0 0
BITMAP
0200
0700
07C0
07E0
01E0
0040
0000
F007
F007
7007
71C7
73CF
73CF
73EE
73EE
73EE
77EE
3F7E
3E7E
3E7C
3E3C
3C3C
1C3C
ENDCHAR
STARTCHAR 1E82
ENCODING 7810
SWIDTH 510 0
DWIDTH 17 0
BBX 15 28 1 0
BITMAP
0040
01C0
03E0
0FE0
0780
0600
0000
0000
F01E
E01E
E01E
E01E
E01E
E01E
E01C
E39C
E79C
E79C
E7DC
EFDC
EEDC
EEFC
ECFC
7C7C
787C
787C
783C
783C
ENDCHAR
STARTCHAR 1E83
ENCODING 7811
SWIDTH 510 0
DWIDTH 17 0
BBX 16 23 0 0
BITMAP
0020
00E0
01F0
07F0
03C0
0300
0000
F007
F007
7007
71C7
73CF
73CF
73EE
73EE
73EE
77EE
3F7E
3E7E
3E7C
3E3C
3C3C
1C3C
ENDCHAR
STARTCHAR 1E84
ENCODING 7812
SWIDTH 510 0
DWIDTH 17 0
BBX 15 28 1 0
BITMAP
3C70
3CF8
3CF8
3C70
0000
0000
0000
0000
F01E
E01E
E01E
E01E
E01E
E01E
E01C
E39C
E79C
E79C
E7DC
EFDC
EEDC
EEFC
ECFC
7C7C
787C
787C
783C
783C
ENDCHAR
STARTCHAR 1E85
ENCODING 7813
SWIDTH 510 0
DWIDTH 17 0
BBX 16 23 0 0
BITMAP
1E38
1E7C
1E7C
1E38
0000
0000
0000
F007
F007
7007
71C7
73CF
73CF
73EE
73EE
73EE
77EE
3F7E
3E7E
3E7C
3E3C
3C3C
1C3C
ENDCHAR
STARTCHAR 1EF2
ENCODING 7922
SWIDTH 510 0
DWIDTH 17 0
BBX 15 28 1 0
BITMAP
0400
0E00
1F00
1FC0
03C0
0080
0000
0000
F01E
F03E
F83C
783C
7878
3C78
3C70
1EF0
1EE0
0FE0
0FC0
07C0
0780
0780
0780
0780
0780
0780
0780
0780
ENDCHAR
STARTCHAR 1EF3
ENCODING 7923
SWIDTH 510 0
DWIDTH 17 0
BBX 14 28 1 -5
BITMAP
0400
0E00
0F80
0FC0
03C0
0080
0000
F83C
783C
783C
783C
7C78
3C78
3C78
3E70
1EF0
1EF0
0FE0
0FE0
0FE0
07C0
07C0
0380
0780
8F80
FF00
FE00
FC00
ENDCHAR
STARTCHAR 1F00
ENCODING 7936
SWIDTH 510 0
DWIDTH 17 0
BBX 15 25 1 0
BITMAP
0380
03C0
03C0
01C0
0380
0700
0600
0000
0000
07F0
1FF8
3FF8
7C78
7878
7878
F878
F878
F078
F878
F878
7878
7C7C
3FFE
3FFE
0F8E
ENDCHAR
STARTCHAR 1F01
ENCODING 7937
SWIDTH 510 0
DWIDTH 17 0
BBX 15 24 1 0
BITMAP
0700
0780
0780
0700
0300
0180
0080
0000
07F0
1FF8
3FF8
7C78
7878
7878
F878
F878
F078
F878
F878
7878
7C7C
3FFE
3FFE
0F8E
ENDCHAR
STARTCHAR 1F02
ENCODING 7938
SWIDTH 510 0
DWIDTH 17 0
BBX 15 25 1 0
BITMAP
1C20
1E60
1EF0
1E70
0C38
1C38
381C
1008
0000
07F0
1FF8
3FF8
7C78
7878
7878
F878
F878
F078
F878
F878
7878
7C7C
3FFE
3FFE
0F8E
ENDCHAR
STARTCHAR 1F03
ENCODING 7939
SWIDTH 510 0
DWIDTH 17 0
BBX 15 24 1 0
BITMAP
3840
3DC0
3DE0
38F0
3870
1C38
0C10
0000
07F0
1FF8
3FF8
7C78
7878
7878
F878
F878
F078
F878
F878
7878
7C7C
3FFE
3FFE
0F8E
ENDCHAR
STARTCHAR 1F04
ENCODING 7940
SWIDTH 510 0
DWIDTH 17 0
BBX 15 25 1 0
BITMAP
0C10
1E38
1E38
0E70
0EF0
1CE0
39C0
1040
0000
07F0
1FF8
3FF8
7C78
7878
7878
F878
F878
F078
F878
F878
7878
7C7C
3FFE
3FFE
0F8E
ENDCHAR
STARTCHAR 1F05
ENCODING 7941
SWIDTH 510 0
DWIDTH 17 0
BBX 15 24 1 0
BITMAP
1810
3C38
3C38
3870
1CF0
0EE0
0440
0000
07F0
1FF8
3FF8
7C78
7878
7878
F878
F878
F078
F878
F878
7878
7C7C
3FFE
3FFE
0F8E
ENDCHAR
STARTCHAR 1F06
ENCODING 7942
SWIDTH 510 0
DWIDTH 17 0
BBX 15 28 1 0
BITMAP
0780
0FE0
1FE0
1C70
1830
0300
0780
0380
0380
0700
0200
0000
07F0
1FF8
3FF8
7C78
7878
7878
F878
F878
F078
F878
F878
7878
7C7C
3FFE
3FFE
0F8E
ENDCHAR
STARTCHAR 1F07
ENCODING 7943
SWIDTH 510 0
DWIDTH 17 0
BBX 15 27 1 0
BITMAP
0780
0FE0
1FE0
1C70
1BB0
0380
0380
0300
0180
0080
0000
07F0
1FF8
3FF8
7C78
7878
7878
F878
F878
F078
F878
F878
7878
7C7C
3FFE
3FFE
0F8E
ENDCHAR
STARTCHAR 1F08
ENCODING 7944
SWIDTH 510 0
DWIDTH 17 0
BBX 17 22 -1 0
BITMAP
700000
780000
79F000
39F000
73F000
E3F800
43F800
07B800
073C00
073C00
0F3C00
0F1C00
0F1E00
0E1E00
1FFE00
1FFF00
1FFF00
3C0F00
3C0F00
3C0F80
3C0780
7C0780
ENDCHAR
STARTCHAR 1F09
ENCODING 7945
SWIDTH 510 0
DWIDTH 17 0
BBX 18 21 -2 0
BITMAP
700000
F8F800
F0F800
61F800
71FC00
39FC00
1BDC00
039E00
039E00
079E00
078E00
078F00
070F00
0FFF00
0FFF80
0FFF80
1E0780
1E0780
1E07C0
1E03C0
3E03C0
ENDCHAR
STARTCHAR 1F0A
ENCODING 7946
SWIDTH 510 0
DWIDTH 17 0
BBX 25 22 -9 0
BITMAP
38800000
79C00000
79E1F000
38E1F000
38F3F000
7073F800
E03BF800
4027B800
00073C00
00073C00
000F3C00
000F1C00
000F1E00
000E1E00
001FFE00
001FFF00
001FFF00
003C0F00
003C0F00
003C0F80
003C0780
007C0780
ENDCHAR
STARTCHAR 1F0B
ENCODING 7947
SWIDTH 510 0
DWIDTH 17 0
BBX 24 21 -8 0
BITMAP
710000
F383E0
F3C3E0
61C7E0
70E7F0
38F7F0
184F70
000E78
000E78
001E78
001E38
001E3C
001C3C
003FFC
003FFE
003FFE
00781E
00781E
00781F
00780F
00F80F
ENDCHAR
STARTCHAR 1F0C
ENCODING 7948
SWIDTH 510 0
DWIDTH 17 0
BBX 23 22 -7 0
BITMAP
384000
78E000
78E7C0
39E7C0
39CFC0
738FE0
E38FE0
411EE0
001CF0
001CF0
003CF0
003C70
003C78
003878
007FF8
007FFC
007FFC
00F03C
00F03C
00F03E
00F01E
01F01E
ENDCHAR
STARTCHAR 1F0D
ENCODING 7949
SWIDTH 510 0
DWIDTH 17 0
BBX 23 21 -7 0
BITMAP
604000
F0E7C0
F1E7C0
E1CFC0
638FE0
3B8FE0
111EE0
001CF0
001CF0
003CF0
003C70
003C78
003878
007FF8
007FFC
007FFC
00F03C
00F03C
00F03E
00F01E
01F01E
ENDCHAR
STARTCHAR 1F0E
ENCODING 7950
SWIDTH 510 0
DWIDTH 17 0
BBX 21 25 -5 0
BITMAP
1E0000
3F8000
7F8000
718000
E1C000
0C1F00
1E1F00
0E3F00
0C3F80
1C3F80
087B80
0073C0
0073C0
00F3C0
00F1C0
00F1E0
00E1E0
01FFE0
01FFF0
01FFF0
03C0F0
03C0F0
03C0F8
03C078
07C078
ENDCHAR
STARTCHAR 1F0F
ENCODING 7951
SWIDTH 510 0
DWIDTH 17 0
BBX 20 24 -4 0
BITMAP
3C0000
7F0000
FF0000
E38000
C3BE00
183E00
3C7E00
3C7F00
187F00
0CF700
04E780
00E780
01E780
01E380
01E3C0
01C3C0
03FFC0
03FFE0
03FFE0
0781E0
0781E0
0781F0
0780F0
0F80F0
ENDCHAR
STARTCHAR 1F10
ENCODING 7952
SWIDTH 510 0
DWIDTH 17 0
BBX 13 25 2 0
BITMAP
0380
0780
0780
0380
0380
0700
0400
0000
0000
0FE0
3FF0
7FF0
7830
7000
7800
7FC0
1FC0
7FC0
F800
F000
F000
F830
7FF8
7FF8
1FE0
ENDCHAR
STARTCHAR 1F11
ENCODING 7953
SWIDTH 510 0
DWIDTH 17 0
BBX 13 24 2 0
BITMAP
0E00
0F00
0F00
0E00
0600
0300
0100
0000
0FE0
3FF0
7FF0
7830
7000
7800
7FC0
1FC0
7FC0
F800
F000
F000
F830
7FF8
7FF8
1FE0
ENDCHAR
STARTCHAR 1F12
ENCODING 7954
SWIDTH 510 0
DWIDTH 17 0
BBX 13 25 2 0
BITMAP
3840
3CC0
3DE0
3CE0
1870
3870
7038
2010
0000
0FE0
3FF0
7FF0
7830
7000
7800
7FC0
1FC0
7FC0
F800
F000
F000
F830
7FF8
7FF8
1FE0
ENDCHAR
STARTCHAR 1F13
ENCODING 7955
SWIDTH 510 0
DWIDTH 17 0
BBX 13 24 2 0
BITMAP
7080
7B80
7BC0
71E0
70E0
3870
1820
0000
0FE0
3FF0
7FF0
7830
7000
7800
7FC0
1FC0
7FC0
F800
F000
F000
F830
7FF8
7FF8
1FE0
ENDCHAR
STARTCHAR 1F14
ENCODING 7956
SWIDTH 510 0
DWIDTH 17 0
BBX 13 25 2 0
BITMAP
1820
3C70
3C70
1CE0
1DE0
39C0
7380
2080
0000
0FE0
3FF0
7FF0
7830
7000
7800
7FC0
1FC0
7FC0
F800
F000
F000
F830
7FF8
7FF8
1FE0
ENDCHAR
STARTCHAR 1F15
ENCODING 7957
SWIDTH 510 0
DWIDTH 17 0
BBX 13 24 2 0
BITMAP
3020
7870
7870
70E0
39E0
1DC0
0880
0000
0FE0
3FF0
7FF0
7830
7000
7800
7FC0
1FC0
7FC0
F800
F000
F000
F830
7FF8
7FF8
1FE0
ENDCHAR
STARTCHAR 1F18
ENCODING 7960
SWIDTH 510 0
DWIDTH 17 0
BBX 20 22 -5 0
BITMAP
380000
780000
79FFE0
39FFE0
31FFE0
E1E000
41E000
01E000
01E000
01E000
01FFC0
01FFC0
01FFC0
01E000
01E000
01E000
01E000
01E000
01E000
01FFF0
01FFF0
01FFF0
ENDCHAR
STARTCHAR 1F19
ENCODING 7961
SWIDTH 510 0
DWIDTH 17 0
BBX 19 21 -4 0
BITMAP
E00000
F3FFC0
F3FFC0
E3FFC0
63C000
73C000
13C000
03C000
03C000
03FF80
03FF80
03FF80
03C000
03C000
03C000
03C000
03C000
03C000
03FFE0
03FFE0
03FFE0
ENDCHAR
STARTCHAR 1F1A
ENCODING 7962
SWIDTH 510 0
DWIDTH 17 0
BBX 26 22 -11 0
BITMAP
70800000
F3800000
FBC7FF80
71C7FF80
71E7FF80
60E78000
C0778000
80478000
00078000
00078000
0007FF00
0007FF00
0007FF00
00078000
00078000
00078000
00078000
00078000
00078000
0007FFC0
0007FFC0
0007FFC0
ENDCHAR
STARTCHAR 1F1B
ENCODING 7963
SWIDTH 510 0
DWIDTH 17 0
BBX 26 21 -11 0
BITMAP
71000000
F387FF80
F3C7FF80
61C7FF80
70E78000
38778000
18478000
00078000
00078000
0007FF00
0007FF00
0007FF00
00078000
00078000
00078000
00078000
00078000
00078000
0007FFC0
0007FFC0
0007FFC0
ENDCHAR
STARTCHAR 1F1C
ENCODING 7964
SWIDTH 510 0
DWIDTH 17 0
BBX 25 22 -10 0
BITMAP
70800000
F1C00000
F9EFFF00
73CFFF00
738FFF00
670F0000
E70F0000
820F0000
000F0000
000F0000
000FFE00
000FFE00
000FFE00
000F0000
000F0000
000F0000
000F0000
000F0000
000F0000
000FFF80
000FFF80
000FFF80
ENDCHAR
STARTCHAR 1F1D
ENCODING 7965
SWIDTH 510 0
DWIDTH 17 0
BBX 26 21 -11 0
BITMAP
60400000
F0E7FF80
F0E7FF80
E1C7FF80
73C78000
3B878000
11078000
00078000
00078000
0007FF00
0007FF00
0007FF00
00078000
00078000
00078000
00078000
00078000
00078000
0007FFC0
0007FFC0
0007FFC0
ENDCHAR
STARTCHAR 1F20
ENCODING 7968
SWIDTH 510 0
DWIDTH 17 0
BBX 13 30 2 -5
BITMAP
0700
0780
0780
0380
0700
0E00
0C00
0000
0000
3F80
FFE0
FFF0
F0F0
F0F0
F0F0
F0F8
F0F8
F0F8
F0F8
F0F8
F0F8
F0F8
F0F8
F0F8
F0F8
00F8
00F8
00F8
00F8
00F8
ENDCHAR
STARTCHAR 1F21
ENCODING 7969
SWIDTH 510 0
DWIDTH 17 0
BBX 13 29 2 -5
BITMAP
0E00
0F00
0F00
0E00
0600
0300
0100
0000
3F80
FFE0
FFF0
F0F0
F0F0
F0F0
F0F8
F0F8
F0F8
F0F8
F0F8
F0F8
F0F8
F0F8
F0F8
F0F8
00F8
00F8
00F8
00F8
00F8
ENDCHAR
STARTCHAR 1F22
ENCODING 7970
SWIDTH 510 0
DWIDTH 17 0
BBX 13 30 2 -5
BITMAP
3840
3CC0
3DE0
3CE0
1870
3870
7038
2010
0000
3F80
FFE0
FFF0
F0F0
F0F0
F0F0
F0F8
F0F8
F0F8
F0F8
F0F8
F0F8
F0F8
F0F8
F0F8
F0F8
00F8
00F8
00F8
00F8
00F8
ENDCHAR
STARTCHAR 1F23
ENCODING 7971
SWIDTH 510 0
DWIDTH 17 0
BBX 13 29 2 -5
BITMAP
7080
7B80
7BC0
71E0
70E0
3870
1820
0000
3F80
FFE0
FFF0
F0F0
F0F0
F0F0
F0F8
F0F8
F0F8
F0F8
F0F8
F0F8
F0F8
F0F8
F0F8
F0F8
00F8
00F8
00F8
00F8
00F8
ENDCHAR
STARTCHAR 1F24
ENCODING 7972
SWIDTH 510 0
DWIDTH 17 0
BBX 13 30 2 -5
BITMAP
1820
3C70
3C70
1CE0
1DE0
39C0
7380
2080
0000
3F80
FFE0
FFF0
F0F0
F0F0
F0F0
F0F8
F0F8
F0F8
F0F8
F0F8
F0F8
F0F8
F0F8
F0F8
F0F8
00F8
00F8
00F8
00F8
00F8
ENDCHAR
STARTCHAR 1F25
ENCODING 7973
SWIDTH 510 0
DWIDTH 17 0
BBX 13 29 2 -5
BITMAP
3020
7870
7870
70E0
39E0
1DC0
0880
0000
3F80
FFE0
FFF0
F0F0
F0F0
F0F0
F0F8
F0F8
F0F8
F0F8
F0F8
F0F8
F0F8
F0F8
F0F8
F0F8
00F8
00F8
00F8
00F8
00F8
ENDCHAR
STARTCHAR 1F26
ENCODING 7974
SWIDTH 510 0
DWIDTH 17 0
BBX 13 33 2 -5
BITMAP
0F00
1FC0
3FC0
38E0
3060
0600
0F00
0700
0700
0E00
0400
0000
3F80
FFE0
FFF0
F0F0
F0F0
F0F0
F0F8
F0F8
F0F8
F0F8
F0F8
F0F8
F0F8
F0F8
F0F8
F0F8
00F8
00F8
00F8
00F8
00F8
ENDCHAR
STARTCHAR 1F27
ENCODING 7975
SWIDTH 510 0
DWIDTH 17 0
BBX 13 32 2 -5
BITMAP
0F00
1FC0
3FC0
38E0
3760
0700
0700
0600
0300
0100
0000
3F80
FFE0
FFF0
F0F0
F0F0
F0F0
F0F8
F0F8
F0F8
F0F8
F0F8
F0F8
F0F8
F0F8
F0F8
F0F8
00F8
00F8
00F8
00F8
00F8
ENDCHAR
STARTCHAR 1F28
ENCODING 7976
SWIDTH 510 0
DWIDTH 17 0
BBX 20 22 -5 0
BITMAP
700000
F80000
7BE0F0
33E0F0
73E0F0
E3E0F0
C3E0F0
03E0F0
03E0F0
03E0F0
03FFF0
03FFF0
03FFF0
03E0F0
03E0F0
03E0F0
03E0F0
03E0F0
03E0F0
03E0F0
03E0F0
03E0F0
ENDCHAR
STARTCHAR 1F29
ENCODING 7977
SWIDTH 510 0
DWIDTH 17 0
BBX 20 21 -5 0
BITMAP
700000
F3E0F0
F3E0F0
E3E0F0
73E0F0
3BE0F0
13E0F0
03E0F0
03E0F0
03FFF0
03FFF0
03FFF0
03E0F0
03E0F0
03E0F0
03E0F0
03E0F0
03E0F0
03E0F0
03E0F0
03E0F0
ENDCHAR
STARTCHAR 1F2A
ENCODING 7978
SWIDTH 510 0
DWIDTH 17 0
BBX 27 22 -12 0
BITMAP
70800000
79800000
7BC7C1E0
79E7C1E0
30E7C1E0
70F7C1E0
E077C1E0
4027C1E0
0007C1E0
0007C1E0
0007FFE0
0007FFE0
0007FFE0
0007C1E0
0007C1E0
0007C1E0
0007C1E0
0007C1E0
0007C1E0
0007C1E0
0007C1E0
0007C1E0
ENDCHAR
STARTCHAR 1F2B
ENCODING 7979
SWIDTH 510 0
DWIDTH 17 0
BBX 26 21 -11 0
BITMAP
E1000000
F70F83C0
F38F83C0
E3CF83C0
61CF83C0
30EF83C0
104F83C0
000F83C0
000F83C0
000FFFC0
000FFFC0
000FFFC0
000F83C0
000F83C0
000F83C0
000F83C0
000F83C0
000F83C0
000F83C0
000F83C0
000F83C0
ENDCHAR
STARTCHAR 1F2C
ENCODING 7980
SWIDTH 510 0
DWIDTH 17 0
BBX 26 22 -11 0
BITMAP
70800000
78E00000
79EF83C0
79CF83C0
33CF83C0
738F83C0
E70F83C0
420F83C0
000F83C0
000F83C0
000FFFC0
000FFFC0
000FFFC0
000F83C0
000F83C0
000F83C0
000F83C0
000F83C0
000F83C0
000F83C0
000F83C0
000F83C0
ENDCHAR
STARTCHAR 1F2D
ENCODING 7981
SWIDTH 510 0
DWIDTH 17 0
BBX 27 21 -12 0
BITMAP
70400000
F077C1E0
F0F7C1E0
61E7C1E0
71C7C1E0
3B87C1E0
1907C1E0
0007C1E0
0007C1E0
0007FFE0
0007FFE0
0007FFE0
0007C1E0
0007C1E0
0007C1E0
0007C1E0
0007C1E0
0007C1E0
0007C1E0
0007C1E0
0007C1E0
ENDCHAR
STARTCHAR 1F2E
ENCODING 7982
SWIDTH 510 0
DWIDTH 17 0
BBX 24 25 -9 0
BITMAP
1E0000
7F0000
7F8000
E38000
E18000
1C3E0F
1E3E0F
1E3E0F
0C3E0F
183E0F
103E0F
003E0F
003E0F
003FFF
003FFF
003FFF
003E0F
003E0F
003E0F
003E0F
003E0F
003E0F
003E0F
003E0F
003E0F
ENDCHAR
STARTCHAR 1F2F
ENCODING 7983
SWIDTH 510 0
DWIDTH 17 0
BBX 24 24 -9 0
BITMAP
1E0000
7F0000
7F8000
E38000
E1BE0F
0C3E0F
1E3E0F
1C3E0F
0C3E0F
0E3E0F
043E0F
003E0F
003FFF
003FFF
003FFF
003E0F
003E0F
003E0F
003E0F
003E0F
003E0F
003E0F
003E0F
003E0F
ENDCHAR
STARTCHAR 1F30
ENCODING 7984
SWIDTH 510 0
DWIDTH 17 0
BBX 14 25 1 0
BITMAP
0380
03C0
03C0
01C0
0380
0700
0600
0000
0000
FF80
FF80
FF80
0F80
0F80
0F80
0F80
0F80
0F80
0F80
0780
0780
0784
07FC
03FC
01F8
ENDCHAR
STARTCHAR 1F31
ENCODING 7985
SWIDTH 510 0
DWIDTH 17 0
BBX 14 24 1 0
BITMAP
0700
0780
0780
0700
0300
0180
0080
0000
FF80
FF80
FF80
0F80
0F80
0F80
0F80
0F80
0F80
0F80
0780
0780
0784
07FC
03FC
01F8
ENDCHAR
STARTCHAR 1F32
ENCODING 7986
SWIDTH 510 0
DWIDTH 17 0
BBX 14 25 1 0
BITMAP
1C20
1E60
1EF0
1E70
0C38
1C38
381C
1008
0000
FF80
FF80
FF80
0F80
0F80
0F80
0F80
0F80
0F80
0F80
0780
0780
0784
07FC
03FC
01F8
ENDCHAR
STARTCHAR 1F33
ENCODING 7987
SWIDTH 510 0
DWIDTH 17 0
BBX 14 24 1 0
BITMAP
3840
3DC0
3DE0
38F0
3870
1C38
0C10
0000
FF80
FF80
FF80
0F80
0F80
0F80
0F80
0F80
0F80
0F80
0780
0780
0784
07FC
03FC
01F8
ENDCHAR
STARTCHAR 1F34
ENCODING 7988
SWIDTH 510 0
DWIDTH 17 0
BBX 14 25 1 0
BITMAP
0C10
1E38
1E38
0E70
0EF0
1CE0
39C0
1040
0000
FF80
FF80
FF80
0F80
0F80
0F80
0F80
0F80
0F80
0F80
0780
0780
0784
07FC
03FC
01F8
ENDCHAR
STARTCHAR 1F35
ENCODING 7989
SWIDTH 510 0
DWIDTH 17 0
BBX 14 24 1 0
BITMAP
1810
3C38
3C38
3870
1CF0
0EE0
0440
0000
FF80
FF80
FF80
0F80
0F80
0F80
0F80
0F80
0F80
0F80
0780
0780
0784
07FC
03FC
01F8
ENDCHAR
STARTCHAR 1F36
ENCODING 7990
SWIDTH 510 0
DWIDTH 17 0
BBX 14 28 1 0
BITMAP
0780
0FE0
1FE0
1C70
1830
0300
0780
0380
0380
0700
0200
0000
FF80
FF80
FF80
0F80
0F80
0F80
0F80
0F80
0F80
0F80
0780
0780
0784
07FC
03FC
01F8
ENDCHAR
STARTCHAR 1F37
ENCODING 7991
SWIDTH 510 0
DWIDTH 17 0
BBX 14 27 1 0
BITMAP
0780
0FE0
1FE0
1C70
1BB0
0380
0380
0300
0180
0080
0000
FF80
FF80
FF80
0F80
0F80
0F80
0F80
0F80
0F80
0F80
0780
0780
0784
07FC
03FC
01F8
ENDCHAR
STARTCHAR 1F38
ENCODING 7992
SWIDTH 510 0
DWIDTH 17 0
BBX 20 22 -5 0
BITMAP
700000
780000
79FFF0
39FFF0
71FFF0
E01E00
401E00
001E00
001E00
001E00
001E00
001E00
001E00
001E00
001E00
001E00
001E00
001E00
001E00
01FFF0
01FFF0
01FFF0
ENDCHAR
STARTCHAR 1F39
ENCODING 7993
SWIDTH 510 0
DWIDTH 17 0
BBX 20 21 -5 0
BITMAP
E00000
F1FFF0
F1FFF0
E1FFF0
601E00
381E00
101E00
001E00
001E00
001E00
001E00
001E00
001E00
001E00
001E00
001E00
001E00
001E00
01FFF0
01FFF0
01FFF0
ENDCHAR
STARTCHAR 1F3A
ENCODING 7994
SWIDTH 510 0
DWIDTH 17 0
BBX 27 22 -12 0
BITMAP
30800000
79C00000
79C3FFE0
39E3FFE0
38E3FFE0
70703C00
E0703C00
40203C00
00003C00
00003C00
00003C00
00003C00
00003C00
00003C00
00003C00
00003C00
00003C00
00003C00
00003C00
0003FFE0
0003FFE0
0003FFE0
ENDCHAR
STARTCHAR 1F3B
ENCODING 7995
SWIDTH 510 0
DWIDTH 17 0
BBX 26 21 -11 0
BITMAP
71000000
F387FFC0
F387FFC0
E1C7FFC0
71E07800
38E07800
10407800
00007800
00007800
00007800
00007800
00007800
00007800
00007800
00007800
00007800
00007800
00007800
0007FFC0
0007FFC0
0007FFC0
ENDCHAR
STARTCHAR 1F3C
ENCODING 7996
SWIDTH 510 0
DWIDTH 17 0
BBX 26 22 -11 0
BITMAP
38400000
78E00000
78E7FFC0
39E7FFC0
3BC7FFC0
73807800
E3007800
41007800
00007800
00007800
00007800
00007800
00007800
00007800
00007800
00007800
00007800
00007800
00007800
0007FFC0
0007FFC0
0007FFC0
ENDCHAR
STARTCHAR 1F3D
ENCODING 7997
SWIDTH 510 0
DWIDTH 17 0
BBX 26 21 -11 0
BITMAP
E0C00000
F0E7FFC0
F1E7FFC0
E1C7FFC0
E3807800
77007800
13007800
00007800
00007800
00007800
00007800
00007800
00007800
00007800
00007800
00007800
00007800
00007800
0007FFC0
0007FFC0
0007FFC0
ENDCHAR
STARTCHAR 1F3E
ENCODING 7998
SWIDTH 510 0
DWIDTH 17 0
BBX 24 25 -9 0
BITMAP
1E0000
3F8000
7F8000
71C000
E1C000
0C1FFF
1E1FFF
0E1FFF
0C01E0
1C01E0
0801E0
0001E0
0001E0
0001E0
0001E0
0001E0
0001E0
0001E0
0001E0
0001E0
0001E0
0001E0
001FFF
001FFF
001FFF
ENDCHAR
STARTCHAR 1F3F
ENCODING 7999
SWIDTH 510 0
DWIDTH 17 0
BBX 23 24 -8 0
BITMAP
3C0000
7F0000
FF0000
E38000
C3BFFE
183FFE
3C3FFE
3C03C0
1803C0
0C03C0
0403C0
0003C0
0003C0
0003C0
0003C0
0003C0
0003C0
0003C0
0003C0
0003C0
0003C0
003FFE
003FFE
003FFE
ENDCHAR
STARTCHAR 1F40
ENCODING 8000
SWIDTH 510 0
DWIDTH 17 0
BBX 15 25 1 0
BITMAP
0380
03C0
03C0
01C0
0380
0700
0600
0000
0000
07C0
1FF0
3FF8
7C7C
783C
F03C
F03C
F03E
F03E
F03C
F03C
783C
7C78
3FF8
1FF0
07C0
ENDCHAR
STARTCHAR 1F41
ENCODING 8001
SWIDTH 510 0
DWIDTH 17 0
BBX 15 24 1 0
BITMAP
0700
0780
0780
0700
0300
0180
0080
0000
07C0
1FF0
3FF8
7C7C
783C
F03C
F03C
F03E
F03E
F03C
F03C
783C
7C78
3FF8
1FF0
07C0
ENDCHAR
STARTCHAR 1F42
ENCODING 8002
SWIDTH 510 0
DWIDTH 17 0
BBX 15 25 1 0
BITMAP
1C20
1E60
1EF0
1E70
0C38
1C38
381C
1008
0000
07C0
1FF0
3FF8
7C7C
783C
F03C
F03C
F03E
F03E
F03C
F03C
783C
7C78
3FF8
1FF0
07C0
ENDCHAR
STARTCHAR 1F43
ENCODING 8003
SWIDTH 510 0
DWIDTH 17 0
BBX 15 24 1 0
BITMAP
3840
3DC0
3DE0
38F0
3870
1C38
0C10
0000
07C0
1FF0
3FF8
7C7C
783C
F03C
F03C
F03E
F03E
F03C
F03C
783C
7C78
3FF8
1FF0
07C0
ENDCHAR
STARTCHAR 1F44
ENCODING 8004
SWIDTH 510 0
DWIDTH 17 0
BBX 15 25 1 0
BITMAP
0C10
1E38
1E38
0E70
0EF0
1CE0
39C0
1040
0000
07C0
1FF0
3FF8
7C7C
783C
F03C
F03C
F03E
F03E
F03C
F03C
783C
7C78
3FF8
1FF0
07C0
ENDCHAR
STARTCHAR 1F45
ENCODING 8005
SWIDTH 510 0
DWIDTH 17 0
BBX 15 24 1 0
BITMAP
1810
3C38
3C38
3870
1CF0
0EE0
0440
0000
07C0
1FF0
3FF8
7C7C
783C
F03C
F03C
F03E
F03E
F03C
F03C
783C
7C78
3FF8
1FF0
07C0
ENDCHAR
STARTCHAR 1F48
ENCODING 8008
SWIDTH 510 0
DWIDTH 17 0
BBX 20 22 -4 0
BITMAP
700000
780000
787E00
38FF80
71FFC0
E3E3C0
C3C1E0
07C1E0
0781E0
0781E0
0781F0
0781F0
0781F0
0781F0
0781E0
0781E0
07C1E0
03C1E0
03E3C0
01FFC0
00FF80
003E00
ENDCHAR
STARTCHAR 1F49
ENCODING 8009
SWIDTH 510 0
DWIDTH 17 0
BBX 21 21 -5 0
BITMAP
E00000
F03F00
F07FC0
E0FFE0
61F1E0
39E0F0
13E0F0
03C0F0
03C0F0
03C0F8
03C0F8
03C0F8
03C0F8
03C0F0
03C0F0
03E0F0
01E0F0
01F1E0
00FFE0
007FC0
001F00
ENDCHAR
STARTCHAR 1F4A
ENCODING 8010
SWIDTH 510 0
DWIDTH 17 0
BBX 28 22 -12 0
BITMAP
30800000
79C00000
79C07E00
39E0FF80
38E1FFC0
7073E3C0
E073C1E0
4027C1E0
000781E0
000781E0
000781F0
000781F0
000781F0
000781F0
000781E0
000781E0
0007C1E0
0003C1E0
0003E3C0
0001FFC0
0000FF80
00003E00
ENDCHAR
STARTCHAR 1F4B
ENCODING 8011
SWIDTH 510 0
DWIDTH 17 0
BBX 27 21 -11 0
BITMAP
71000000
F380FC00
F381FF00
E1C3FF80
71E7C780
38E783C0
104F83C0
000F03C0
000F03C0
000F03E0
000F03E0
000F03E0
000F03E0
000F03C0
000F03C0
000F83C0
000783C0
0007C780
0003FF80
0001FF00
00007C00
ENDCHAR
STARTCHAR 1F4C
ENCODING 8012
SWIDTH 510 0
DWIDTH 17 0
BBX 26 22 -10 0
BITMAP
70800000
78E00000
79E1F800
79C3FE00
33C7FF00
738F8F00
E70F0780
421F0780
001E0780
001E0780
001E07C0
001E07C0
001E07C0
001E07C0
001E0780
001E0780
001F0780
000F0780
000F8F00
0007FF00
0003FE00
0000F800
ENDCHAR
STARTCHAR 1F4D
ENCODING 8013
SWIDTH 510 0
DWIDTH 17 0
BBX 27 21 -11 0
BITMAP
70400000
F0F0FC00
F0E1FF00
61E3FF80
71C7C780
3B8783C0
110F83C0
000F03C0
000F03C0
000F03E0
000F03E0
000F03E0
000F03E0
000F03C0
000F03C0
000F83C0
000783C0
0007C780
0003FF80
0001FF00
00007C00
ENDCHAR
STARTCHAR 1F50
ENCODING 8016
SWIDTH 510 0
DWIDTH 17 0
BBX 13 25 2 0
BITMAP
0700
0780
0780
0380
0700
0E00
0C00
0000
0000
F078
F078
F078
F078
F078
F078
F078
F078
F078
F078
F078
F0F0
F8F0
7FF0
7FE0
1F80
ENDCHAR
STARTCHAR 1F51
ENCODING 8017
SWIDTH 510 0
DWIDTH 17 0
BBX 13 24 2 0
BITMAP
0E00
0F00
0F00
0E00
0600
0300
0100
0000
F078
F078
F078
F078
F078
F078
F078
F078
F078
F078
F078
F0F0
F8F0
7FF0
7FE0
1F80
ENDCHAR
STARTCHAR 1F52
ENCODING 8018
SWIDTH 510 0
DWIDTH 17 0
BBX 13 25 2 0
BITMAP
3840
3CC0
3DE0
3CE0
1870
3870
7038
2010
0000
F078
F078
F078
F078
F078
F078
F078
F078
F078
F078
F078
F0F0
F8F0
7FF0
7FE0
1F80
ENDCHAR
STARTCHAR 1F53
ENCODING 8019
SWIDTH 510 0
DWIDTH 17 0
BBX 13 24 2 0
BITMAP
7080
7B80
7BC0
71E0
70E0
3870
1820
0000
F078
F078
F078
F078
F078
F078
F078
F078
F078
F078
F078
F0F0
F8F0
7FF0
7FE0
1F80
ENDCHAR
STARTCHAR 1F54
ENCODING 8020
SWIDTH 510 0
DWIDTH 17 0
BBX 13 25 2 0
BITMAP
1820
3C70
3C70
1CE0
1DE0
39C0
7380
2080
0000
F078
F078
F078
F078
F078
F078
F078
F078
F078
F078
F078
F0F0
F8F0
7FF0
7FE0
1F80
ENDCHAR
STARTCHAR 1F55
ENCODING 8021
SWIDTH 510 0
DWIDTH 17 0
BBX 13 24 2 0
BITMAP
3020
7870
7870
70E0
39E0
1DC0
0880
0000
F078
F078
F078
F078
F078
F078
F078
F078
F078
F078
F078
F0F0
F8F0
7FF0
7FE0
1F80
ENDCHAR
STARTCHAR 1F56
ENCODING 8022
SWIDTH 510 0
DWIDTH 17 0
BBX 13 28 2 0
BITMAP
0F00
1FC0
3FC0
38E0
3060
0600
0F00
0700
0700
0E00
0400
0000
F078
F078
F078
F078
F078
F078
F078
F078
F078
F078
F078
F0F0
F8F0
7FF0
7FE0
1F80
ENDCHAR
STARTCHAR 1F57
ENCODING 8023
SWIDTH 510 0
DWIDTH 17 0
BBX 13 27 2 0
BITMAP
0F00
1FC0
3FC0
38E0
3760
0700
0700
0600
0300
0100
0000
F078
F078
F078
F078
F078
F078
F078
F078
F078
F078
F078
F0F0
F8F0
7FF0
7FE0
1F80
ENDCHAR
STARTCHAR 1F59
ENCODING 8025
SWIDTH 510 0
DWIDTH 17 0
BBX 21 21 -5 0
BITMAP
700000
FBC078
FBC0F8
73E0F0
71E0F0
39E1E0
18F1E0
00F1C0
007BC0
007B80
003F80
003F00
001F00
001E00
001E00
001E00
001E00
001E00
001E00
001E00
001E00
ENDCHAR
STARTCHAR 1F5B
ENCODING 8027
SWIDTH 510 0
DWIDTH 17 0
BBX 26 21 -10 0
BITMAP
E1000000
F71E03C0
F79E07C0
E3DF0780
61CF0780
70EF0F00
10478F00
00078E00
0003DE00
0003DC00
0001FC00
0001F800
0000F800
0000F000
0000F000
0000F000
0000F000
0000F000
0000F000
0000F000
0000F000
ENDCHAR
STARTCHAR 1F5D
ENCODING 8029
SWIDTH 510 0
DWIDTH 17 0
BBX 28 21 -12 0
BITMAP
70400000
F0F780F0
F0E781F0
E1E7C1E0
73C3C1E0
3B83C3C0
1101E3C0
0001E380
0000F780
0000F700
00007F00
00007E00
00003E00
00003C00
00003C00
00003C00
00003C00
00003C00
00003C00
00003C00
00003C00
ENDCHAR
STARTCHAR 1F5F
ENCODING 8031
SWIDTH 510 0
DWIDTH 17 0
BBX 26 24 -10 0
BITMAP
1E000000
7F000000
7F800000
E1800000
E1DE03C0
0C1E07C0
1E1F0780
1E0F0780
0C0F0F00
0E078F00
06078E00
0003DE00
0003DC00
0001FC00
0001F800
0000F800
0000F000
0000F000
0000F000
0000F000
0000F000
0000F000
0000F000
0000F000
ENDCHAR
STARTCHAR 1F60
ENCODING 8032
SWIDTH 510 0
DWIDTH 17 0
BBX 15 25 1 0
BITMAP
0380
03C0
03C0
01C0
0380
0700
0600
0000
0000
3030
3878
7838
703C
701C
F01C
F01E
E39E
E39E
E39E
E39E
F39E
F79C
7FFC
7EF8
3C70
ENDCHAR
STARTCHAR 1F61
ENCODING 8033
SWIDTH 510 0
DWIDTH 17 0
BBX 15 24 1 0
BITMAP
0700
0780
0780
0700
0300
0180
0080
0000
3030
3878
7838
703C
701C
F01C
F01E
E39E
E39E
E39E
E39E
F39E
F79C
7FFC
7EF8
3C70
ENDCHAR
STARTCHAR 1F62
ENCODING 8034
SWIDTH 510 0
DWIDTH 17 0
BBX 15 25 1 0
BITMAP
1C20
1E60
1EF0
1E70
0C38
1C38
381C
1008
0000
3030
3878
7838
703C
701C
F01C
F01E
E39E
E39E
E39E
E39E
F39E
F79C
7FFC
7EF8
3C70
ENDCHAR
STARTCHAR 1F63
ENCODING 8035
SWIDTH 510 0
DWIDTH 17 0
BBX 15 24 1 0
BITMAP
3840
3DC0
3DE0
38F0
3870
1C38
0C10
0000
3030
3878
7838
703C
701C
F01C
F01E
E39E
E39E
E39E
E39E
F39E
F79C
7FFC
7EF8
3C70
ENDCHAR
STARTCHAR 1F64
ENCODING 8036
SWIDTH 510 0
DWIDTH 17 0
BBX 15 25 1 0
BITMAP
0C10
1E38
1E38
0E70
0EF0
1CE0
39C0
1040
0000
3030
3878
7838
703C
701C
F01C
F01E
E39E
E39E
E39E
E39E
F39E
F79C
7FFC
7EF8
3C70
ENDCHAR
STARTCHAR 1F65
ENCODING 8037
SWIDTH 510 0
DWIDTH 17 0
BBX 15 24 1 0
BITMAP
1810
3C38
3C38
3870
1CF0
0EE0
0440
0000
3030
3878
7838
703C
701C
F01C
F01E
E39E
E39E
E39E
E39E
F39E
F79C
7FFC
7EF8
3C70
ENDCHAR
STARTCHAR 1F66
ENCODING 8038
SWIDTH 510 0
DWIDTH 17 0
BBX 15 28 1 0
BITMAP
0780
0FE0
1FE0
1C70
1830
0300
0780
0380
0380
0700
0200
0000
3030
3878
7838
703C
701C
F01C
F01E
E39E
E39E
E39E
E39E
F39E
F79C
7FFC
7EF8
3C70
ENDCHAR
STARTCHAR 1F67
ENCODING 8039
SWIDTH 510 0
DWIDTH 17 0
BBX 15 27 1 0
BITMAP
0780
0FE0
1FE0
1C70
1BB0
0380
0380
0300
0180
0080
0000
3030
3878
7838
703C
701C
F01C
F01E
E39E
E39E
E39E
E39E
F39E
F79C
7FFC
7EF8
3C70
ENDCHAR
STARTCHAR 1F68
ENCODING 8040
SWIDTH 510 0
DWIDTH 17 0
BBX 21 22 -5 0
BITMAP
380000
780000
783F00
387FC0
31FFE0
E1F1F0
43E0F0
03C0F8
03C078
03C078
07C078
07C078
03C078
03C078
03C078
03C0F0
01E0F0
01E1E0
00F1E0
07F3F8
07F3F8
07F3F8
ENDCHAR
STARTCHAR 1F69
ENCODING 8041
SWIDTH 510 0
DWIDTH 17 0
BBX 22 21 -6 0
BITMAP
700000
F01F80
F03FE0
E0FFF0
70F8F8
39F078
11E07C
01E03C
01E03C
03E03C
03E03C
01E03C
01E03C
01E03C
01E078
00F078
00F0F0
0078F0
03F9FC
03F9FC
03F9FC
ENDCHAR
STARTCHAR 1F6A
ENCODING 8042
SWIDTH 510 0
DWIDTH 17 0
BBX 29 22 -13 0
BITMAP
38800000
79C00000
79C03F00
39E07FC0
38F1FFE0
7071F1F0
E033E0F0
4023C0F8
0003C078
0003C078
0007C078
0007C078
0003C078
0003C078
0003C078
0003C0F0
0001E0F0
0001E1E0
0000F1E0
0007F3F8
0007F3F8
0007F3F8
ENDCHAR
STARTCHAR 1F6B
ENCODING 8043
SWIDTH 510 0
DWIDTH 17 0
BBX 28 21 -12 0
BITMAP
71000000
F3807E00
F3C0FF80
61C3FFC0
70E3E3E0
38E7C1E0
104781F0
000780F0
000780F0
000F80F0
000F80F0
000780F0
000780F0
000780F0
000781E0
0003C1E0
0003C3C0
0001E3C0
000FE7F0
000FE7F0
000FE7F0
ENDCHAR
STARTCHAR 1F6C
ENCODING 8044
SWIDTH 510 0
DWIDTH 17 0
BBX 26 22 -10 0
BITMAP
70800000
78C00000
79E1F800
79C3FE00
338FFF00
738F8F80
E71F0780
421E07C0
001E03C0
001E03C0
003E03C0
003E03C0
001E03C0
001E03C0
001E03C0
001E0780
000F0780
000F0F00
00078F00
003F9FC0
003F9FC0
003F9FC0
ENDCHAR
STARTCHAR 1F6D
ENCODING 8045
SWIDTH 510 0
DWIDTH 17 0
BBX 27 21 -11 0
BITMAP
70400000
F070FC00
F0F1FF00
61E7FF80
71C7C7C0
3B8F83C0
190F03E0
000F01E0
000F01E0
001F01E0
001F01E0
000F01E0
000F01E0
000F01E0
000F03C0
000783C0
00078780
0003C780
001FCFE0
001FCFE0
001FCFE0
ENDCHAR
STARTCHAR 1F6E
ENCODING 8046
SWIDTH 510 0
DWIDTH 17 0
BBX 24 25 -8 0
BITMAP
3C0000
7F0000
FF0000
E38000
C38000
1807E0
3C0FF8
1C3FFC
183E3E
387C1E
10781F
00780F
00780F
00F80F
00F80F
00780F
00780F
00780F
00781E
003C1E
003C3C
001E3C
00FE7F
00FE7F
00FE7F
ENDCHAR
STARTCHAR 1F6F
ENCODING 8047
SWIDTH 510 0
DWIDTH 17 0
BBX 25 24 -9 0
BITMAP
1E000000
3F800000
7F800000
71C00000
E1C3F000
0C07FC00
1E1FFE00
1E1F1F00
0C3E0F00
063C0F80
023C0780
003C0780
007C0780
007C0780
003C0780
003C0780
003C0780
003C0F00
001E0F00
001E1E00
000F1E00
007F3F80
007F3F80
007F3F80
ENDCHAR
STARTCHAR 1F70
ENCODING 8048
SWIDTH 510 0
DWIDTH 17 0
BBX 15 23 1 0
BITMAP
0200
0700
0FC0
07E0
01E0
0060
0000
07F0
1FF8
3FF8
7C78
7878
7878
F878
F878
F078
F878
F878
7878
7C7C
3FFE
3FFE
0F8E
ENDCHAR
STARTCHAR 1F71
ENCODING 8049
SWIDTH 510 0
DWIDTH 17 0
BBX 15 23 1 0
BITMAP
0040
01E0
03E0
0FE0
0780
0600
0000
07F0
1FF8
3FF8
7C78
7878
7878
F878
F878
F078
F878
F878
7878
7C7C
3FFE
3FFE
0F8E
ENDCHAR
STARTCHAR 1F72
ENCODING 8050
SWIDTH 510 0
DWIDTH 17 0
BBX 13 23 2 0
BITMAP
0400
0E00
1F80
0FC0
03C0
00C0
0000
0FE0
3FF0
7FF0
7830
7000
7800
7FC0
1FC0
7FC0
F800
F000
F000
F830
7FF8
7FF8
1FE0
ENDCHAR
STARTCHAR 1F73
ENCODING 8051
SWIDTH 510 0
DWIDTH 17 0
BBX 13 23 2 0
BITMAP
0080
03C0
07C0
1FC0
0F00
0C00
0000
0FE0
3FF0
7FF0
7830
7000
7800
7FC0
1FC0
7FC0
F800
F000
F000
F830
7FF8
7FF8
1FE0
ENDCHAR
STARTCHAR 1F74
ENCODING 8052
SWIDTH 510 0
DWIDTH 17 0
BBX 13 28 2 -5
BITMAP
0400
0E00
1F80
0FC0
03C0
00C0
0000
3F80
FFE0
FFF0
F0F0
F0F0
F0F0
F0F8
F0F8
F0F8
F0F8
F0F8
F0F8
F0F8
F0F8
F0F8
F0F8
00F8
00F8
00F8
00F8
00F8
ENDCHAR
STARTCHAR 1F75
ENCODING 8053
SWIDTH 510 0
DWIDTH 17 0
BBX 13 28 2 -5
BITMAP
0080
03C0
07C0
1FC0
0F00
0C00
0000
3F80
FFE0
FFF0
F0F0
F0F0
F0F0
F0F8
F0F8
F0F8
F0F8
F0F8
F0F8
F0F8
F0F8
F0F8
F0F8
00F8
00F8
00F8
00F8
00F8
ENDCHAR
STARTCHAR 1F76
ENCODING 8054
SWIDTH 510 0
DWIDTH 17 0
BBX 14 23 1 0
BITMAP
0200
0700
0FC0
07E0
01E0
0060
0000
FF80
FF80
FF80
0F80
0F80
0F80
0F80
0F80
0F80
0F80
0780
0780
0784
07FC
03FC
01F8
ENDCHAR
STARTCHAR 1F77
ENCODING 8055
SWIDTH 510 0
DWIDTH 17 0
BBX 14 23 1 0
BITMAP
0040
01E0
03E0
0FE0
0780
0600
0000
FF80
FF80
FF80
0F80
0F80
0F80
0F80
0F80
0F80
0F80
0780
0780
0784
07FC
03FC
01F8
ENDCHAR
STARTCHAR 1F78
ENCODING 8056
SWIDTH 510 0
DWIDTH 17 0
BBX 15 23 1 0
BITMAP
0200
0700
0FC0
07E0
01E0
0060
0000
07C0
1FF0
3FF8
7C7C
783C
F03C
F03C
F03E
F03E
F03C
F03C
783C
7C78
3FF8
1FF0
07C0
ENDCHAR
STARTCHAR 1F79
ENCODING 8057
SWIDTH 510 0
DWIDTH 17 0
BBX 15 23 1 0
BITMAP
0040
01E0
03E0
0FE0
0780
0600
0000
07C0
1FF0
3FF8
7C7C
783C
F03C
F03C
F03E
F03E
F03C
F03C
783C
7C78
3FF8
1FF0
07C0
ENDCHAR
STARTCHAR 1F7A
ENCODING 8058
SWIDTH 510 0
DWIDTH 17 0
BBX 13 23 2 0
BITMAP
0400
0E00
1F80
0FC0
03C0
00C0
0000
F078
F078
F078
F078
F078
F078
F078
F078
F078
F078
F078
F0F0
F8F0
7FF0
7FE0
1F80
ENDCHAR
STARTCHAR 1F7B
ENCODING 8059
SWIDTH 510 0
DWIDTH 17 0
BBX 13 23 2 0
BITMAP
0080
03C0
07C0
1FC0
0F00
0C00
0000
F078
F078
F078
F078
F078
F078
F078
F078
F078
F078
F078
F0F0
F8F0
7FF0
7FE0
1F80
ENDCHAR
STARTCHAR 1F7C
ENCODING 8060
SWIDTH 510 0
DWIDTH 17 0
BBX 15 23 1 0
BITMAP
0200
0700
0FC0
07E0
01E0
0060
0000
3030
3878
7838
703C
701C
F01C
F01E
E39E
E39E
E39E
E39E
F39E
F79C
7FFC
7EF8
3C70
ENDCHAR
STARTCHAR 1F7D
ENCODING 8061
SWIDTH 510 0
DWIDTH 17 0
BBX 15 23 1 0
BITMAP
0040
01E0
03E0
0FE0
0780
0600
0000
3030
3878
7838
703C
701C
F01C
F01E
E39E
E39E
E39E
E39E
F39E
F79C
7FFC
7EF8
3C70
ENDCHAR
STARTCHAR 1F80
ENCODING 8064
SWIDTH 510 0
DWIDTH 17 0
BBX 15 31 1 -6
BITMAP
0380
03C0
03C0
01C0
0380
0700
0600
0000
0000
07F0
1FF8
3FF8
7C78
7878
7878
F878
F878
F078
F878
F878
7878
7C7C
3FFE
3FFE
0F8E
0000
0000
0F00
0F00
07C0
03C0
ENDCHAR
STARTCHAR 1F81
ENCODING 8065
SWIDTH 510 0
DWIDTH 17 0
BBX 15 30 1 -6
BITMAP
0700
0780
0780
0700
0300
0180
0080
0000
07F0
1FF8
3FF8
7C78
7878
7878
F878
F878
F078
F878
F878
7878
7C7C
3FFE
3FFE
0F8E
0000
0000
0F00
0F00
07C0
03C0
ENDCHAR
STARTCHAR 1F82
ENCODING 8066
SWIDTH 510 0
DWIDTH 17 0
BBX 15 31 1 -6
BITMAP
1C20
1E60
1EF0
1E70
0C38
1C38
381C
1008
0000
07F0
1FF8
3FF8
7C78
7878
7878
F878
F878
F078
F878
F878
7878
7C7C
3FFE
3FFE
0F8E
0000
0000
0F00
0F00
07C0
03C0
ENDCHAR
STARTCHAR 1F83
ENCODING 8067
SWIDTH 510 0
DWIDTH 17 0
BBX 15 30 1 -6
BITMAP
3840
3DC0
3DE0
38F0
3870
1C38
0C10
0000
07F0
1FF8
3FF8
7C78
7878
7878
F878
F878
F078
F878
F878
7878
7C7C
3FFE
3FFE
0F8E
0000
0000
0F00
0F00
07C0
03C0
ENDCHAR
STARTCHAR 1F84
ENCODING 8068
SWIDTH 510 0
DWIDTH 17 0
BBX 15 31 1 -6
BITMAP
0C10
1E38
1E38
0E70
0EF0
1CE0
39C0
1040
0000
07F0
1FF8
3FF8
7C78
7878
7878
F878
F878
F078
F878
F878
7878
7C7C
3FFE
3FFE
0F8E
0000
0000
0F00
0F00
07C0
03C0
ENDCHAR
STARTCHAR 1F85
ENCODING 8069
SWIDTH 510 0
DWIDTH 17 0
BBX 15 30 1 -6
BITMAP
1810
3C38
3C38
3870
1CF0
0EE0
0440
0000
07F0
1FF8
3FF8
7C78
7878
7878
F878
F878
F078
F878
F878
7878
7C7C
3FFE
3FFE
0F8E
0000
0000
0F00
0F00
07C0
03C0
ENDCHAR
STARTCHAR 1F86
ENCODING 8070
SWIDTH 510 0
DWIDTH 17 0
BBX 15 34 1 -6
BITMAP
0780
0FE0
1FE0
1C70
1830
0300
0780
0380
0380
0700
0200
0000
07F0
1FF8
3FF8
7C78
7878
7878
F878
F878
F078
F878
F878
7878
7C7C
3FFE
3FFE
0F8E
0000
0000
0F00
0F00
07C0
03C0
ENDCHAR
STARTCHAR 1F87
ENCODING 8071
SWIDTH 510 0
DWIDTH 17 0
BBX 15 33 1 -6
BITMAP
0780
0FE0
1FE0
1C70
1830
0380
0380
0380
0300
0180
0080
07F0
1FF8
3FF8
7C78
7878
7878
F878
F878
F078
F878
F878
7878
7C7C
3FFE
3FFE
0F8E
0000
0000
0F00
0F00
07C0
03C0
ENDCHAR
STARTCHAR 1F88
ENCODING 8072
SWIDTH 510 0
DWIDTH 17 0
BBX 19 22 -2 0
BITMAP
700000
F00000
F3C000
73E000
67E000
C7E000
87E380
07E380
06F380
0E7380
0E7380
0E7380
0E7380
0E7380
1FFB80
1FFB80
1FFB80
1C3B80
1C3BC0
1C39E0
1C3DE0
3C3CC0
ENDCHAR
STARTCHAR 1F89
ENCODING 8073
SWIDTH 510 0
DWIDTH 17 0
BBX 20 21 -3 0
BITMAP
F00000
F1E000
F1F000
E3F000
73F000
3BF1C0
13F1C0
0379C0
0739C0
0739C0
0739C0
0739C0
0739C0
0FFDC0
0FFDC0
0FFDC0
0E1DC0
0E1DE0
0E1CF0
0E1EF0
1E1E60
ENDCHAR
STARTCHAR 1F8A
ENCODING 8074
SWIDTH 510 0
DWIDTH 17 0
BBX 27 22 -10 0
BITMAP
70800000
73800000
7BC3C000
71C3E000
71E7E000
60E7E000
E077E380
C027E380
0006F380
000E7380
000E7380
000E7380
000E7380
000E7380
001FFB80
001FFB80
001FFB80
001C3B80
001C3BC0
001C39E0
001C3DE0
003C3CC0
ENDCHAR
STARTCHAR 1F8B
ENCODING 8075
SWIDTH 510 0
DWIDTH 17 0
BBX 26 21 -9 0
BITMAP
E1000000
F7078000
E787C000
E3CFC000
E1CFC000
70EFC700
30CFC700
000DE700
001CE700
001CE700
001CE700
001CE700
001CE700
003FF700
003FF700
003FF700
00387700
00387780
003873C0
00387BC0
00787980
ENDCHAR
STARTCHAR 1F8C
ENCODING 8076
SWIDTH 510 0
DWIDTH 17 0
BBX 26 22 -9 0
BITMAP
38400000
78E00000
78E78000
39E7C000
39CFC000
738FC000
E30FC700
410FC700
000DE700
001CE700
001CE700
001CE700
001CE700
001CE700
003FF700
003FF700
003FF700
00387700
00387780
003873C0
00387BC0
00787980
ENDCHAR
STARTCHAR 1F8D
ENCODING 8077
SWIDTH 510 0
DWIDTH 17 0
BBX 26 21 -9 0
BITMAP
E0400000
F0E78000
F1E7C000
E1CFC000
638FC000
378FC700
110FC700
000DE700
001CE700
001CE700
001CE700
001CE700
001CE700
003FF700
003FF700
003FF700
00387700
00387780
003873C0
00387BC0
00787980
ENDCHAR
STARTCHAR 1F8E
ENCODING 8078
SWIDTH 510 0
DWIDTH 17 0
BBX 24 25 -7 0
BITMAP
3E0000
7F0000
7F8000
E38000
C18000
1C1E00
1C1F00
1C3F00
1C3F00
383F1C
103F1C
00379C
00739C
00739C
00739C
00739C
00739C
00FFDC
00FFDC
00FFDC
00E1DC
00E1DE
00E1CF
00E1EF
01E1E6
ENDCHAR
STARTCHAR 1F8F
ENCODING 8079
SWIDTH 510 0
DWIDTH 17 0
BBX 24 24 -7 0
BITMAP
3E0000
7F0000
7F8000
E38000
C19E00
1C1F00
1C3F00
1C3F00
1C3F1C
0E3F1C
04379C
00739C
00739C
00739C
00739C
00739C
00FFDC
00FFDC
00FFDC
00E1DC
00E1DE
00E1CF
00E1EF
01E1E6
ENDCHAR
STARTCHAR 1F90
ENCODING 8080
SWIDTH 510 0
DWIDTH 17 0
BBX 13 31 2 -6
BITMAP
0700
0780
0780
0380
0700
0E00
0C00
0000
0000
3F80
FFE0
FFF0
F0F0
F0F0
F0F0
F0F8
F0F8
F0F8
F0F8
F0F8
F0F8
F0F8
F0F8
F0F8
F0F8
00F8
00F8
70F8
70F8
7CF8
3C00
ENDCHAR
STARTCHAR 1F91
ENCODING 8081
SWIDTH 510 0
DWIDTH 17 0
BBX 13 30 2 -6
BITMAP
0E00
0F00
0F00
0E00
0600
0300
0100
0000
3F80
FFE0
FFF0
F0F0
F0F0
F0F0
F0F8
F0F8
F0F8
F0F8
F0F8
F0F8
F0F8
F0F8
F0F8
F0F8
00F8
00F8
70F8
70F8
7CF8
3C00
ENDCHAR
STARTCHAR 1F92
ENCODING 8082
SWIDTH 510 0
DWIDTH 17 0
BBX 13 31 2 -6
BITMAP
3840
3CC0
3DE0
3CE0
1870
3870
7038
2010
0000
3F80
FFE0
FFF0
F0F0
F0F0
F0F0
F0F8
F0F8
F0F8
F0F8
F0F8
F0F8
F0F8
F0F8
F0F8
F0F8
00F8
00F8
70F8
70F8
7CF8
3C00
ENDCHAR
STARTCHAR 1F93
ENCODING 8083
SWIDTH 510 0
DWIDTH 17 0
BBX 13 30 2 -6
BITMAP
7080
7B80
7BC0
71E0
70E0
3870
1820
0000
3F80
FFE0
FFF0
F0F0
F0F0
F0F0
F0F8
F0F8
F0F8
F0F8
F0F8
F0F8
F0F8
F0F8
F0F8
F0F8
00F8
00F8
70F8
70F8
7CF8
3C00
ENDCHAR
STARTCHAR 1F94
ENCODING 8084
SWIDTH 510 0
DWIDTH 17 0
BBX 13 31 2 -6
BITMAP
1820
3C70
3C70
1CE0
1DE0
39C0
7380
2080
0000
3F80
FFE0
FFF0
F0F0
F0F0
F0F0
F0F8
F0F8
F0F8
F0F8
F0F8
F0F8
F0F8
F0F8
F0F8
F0F8
00F8
00F8
70F8
70F8
7CF8
3C00
ENDCHAR
STARTCHAR 1F95
ENCODING 8085
SWIDTH 510 0
DWIDTH 17 0
BBX 13 30 2 -6
BITMAP
3020
7870
7870
70E0
39E0
1DC0
0880
0000
3F80
FFE0
FFF0
F0F0
F0F0
F0F0
F0F8
F0F8
F0F8
F0F8
F0F8
F0F8
F0F8
F0F8
F0F8
F0F8
00F8
00F8
70F8
70F8
7CF8
3C00
ENDCHAR
STARTCHAR 1F96
ENCODING 8086
SWIDTH 510 0
DWIDTH 17 0
BBX 13 34 2 -6
BITMAP
0F00
1FC0
3FC0
38E0
3060
0600
0F00
0700
0700
0E00
0400
0000
3F80
FFE0
FFF0
F0F0
F0F0
F0F0
F0F8
F0F8
F0F8
F0F8
F0F8
F0F8
F0F8
F0F8
F0F8
F0F8
00F8
00F8
70F8
70F8
7CF8
3C00
ENDCHAR
STARTCHAR 1F97
ENCODING 8087
SWIDTH 510 0
DWIDTH 17 0
BBX 13 33 2 -6
BITMAP
0F00
1FC0
3FC0
38E0
3060
0700
0700
0700
0600
0300
0100
3F80
FFE0
FFF0
F0F0
F0F0
F0F0
F0F8
F0F8
F0F8
F0F8
F0F8
F0F8
F0F8
F0F8
F0F8
F0F8
00F8
00F8
70F8
70F8
7CF8
3C00
ENDCHAR
STARTCHAR 1F98
ENCODING 8088
SWIDTH 510 0
DWIDTH 17 0
BBX 21 22 -5 0
BITMAP
700000
F00000
F38E00
738E00
638E00
E38E00
838E70
038E70
038E70
038E70
03FE70
03FE70
03FE70
038E70
038E70
038E70
038E70
038E70
038E70
038E78
038E38
038E18
ENDCHAR
STARTCHAR 1F99
ENCODING 8089
SWIDTH 510 0
DWIDTH 17 0
BBX 21 21 -5 0
BITMAP
E00000
F38E00
F38E00
E38E00
638E00
338E70
138E70
038E70
038E70
03FE70
03FE70
03FE70
038E70
038E70
038E70
038E70
038E70
038E70
038E78
038E38
038E18
ENDCHAR
STARTCHAR 1F9A
ENCODING 8090
SWIDTH 510 0
DWIDTH 17 0
BBX 28 22 -12 0
BITMAP
70800000
73800000
7BC71C00
71C71C00
71E71C00
60E71C00
E0771CE0
C0271CE0
00071CE0
00071CE0
0007FCE0
0007FCE0
0007FCE0
00071CE0
00071CE0
00071CE0
00071CE0
00071CE0
00071CE0
00071CF0
00071C70
00071C30
ENDCHAR
STARTCHAR 1F9B
ENCODING 8091
SWIDTH 510 0
DWIDTH 17 0
BBX 27 21 -11 0
BITMAP
E3000000
F70E3800
E78E3800
E38E3800
E1CE3800
70EE39C0
30CE39C0
000E39C0
000E39C0
000FF9C0
000FF9C0
000FF9C0
000E39C0
000E39C0
000E39C0
000E39C0
000E39C0
000E39C0
000E39E0
000E38E0
000E3860
ENDCHAR
STARTCHAR 1F9C
ENCODING 8092
SWIDTH 510 0
DWIDTH 17 0
BBX 27 22 -11 0
BITMAP
70800000
70C00000
79EE3800
73CE3800
738E3800
678E3800
E70E39C0
C20E39C0
000E39C0
000E39C0
000FF9C0
000FF9C0
000FF9C0
000E39C0
000E39C0
000E39C0
000E39C0
000E39C0
000E39C0
000E39E0
000E38E0
000E3860
ENDCHAR
STARTCHAR 1F9D
ENCODING 8093
SWIDTH 510 0
DWIDTH 17 0
BBX 28 21 -12 0
BITMAP
70400000
F0F71C00
F0E71C00
61E71C00
71C71C00
3B871CE0
11071CE0
00071CE0
00071CE0
0007FCE0
0007FCE0
0007FCE0
00071CE0
00071CE0
00071CE0
00071CE0
00071CE0
00071CE0
00071CF0
00071C70
00071C30
ENDCHAR
STARTCHAR 1F9E
ENCODING 8094
SWIDTH 510 0
DWIDTH 17 0
BBX 26 25 -10 0
BITMAP
1E000000
3F800000
7F800000
71C00000
E1C00000
0C1C7000
1E1C7000
0E1C7000
0C1C7000
1C1C7380
081C7380
001C7380
001C7380
001FF380
001FF380
001FF380
001C7380
001C7380
001C7380
001C7380
001C7380
001C7380
001C73C0
001C71C0
001C70C0
ENDCHAR
STARTCHAR 1F9F
ENCODING 8095
SWIDTH 510 0
DWIDTH 17 0
BBX 26 24 -10 0
BITMAP
1E000000
3F800000
7F800000
71C00000
E1DC7000
0C1C7000
1E1C7000
1E1C7000
0C1C7380
061C7380
021C7380
001C7380
001FF380
001FF380
001FF380
001C7380
001C7380
001C7380
001C7380
001C7380
001C7380
001C73C0
001C71C0
001C70C0
ENDCHAR
STARTCHAR 1FA0
ENCODING 8096
SWIDTH 510 0
DWIDTH 17 0
BBX 15 31 1 -6
BITMAP
0380
03C0
03C0
01C0
0380
0700
0600
0000
0000
3030
3878
7838
703C
701C
F01C
F01E
E39E
E39E
E39E
E39E
F39E
F79C
7FFC
7EF8
3C70
0000
0000
0780
0780
03E0
01E0
ENDCHAR
STARTCHAR 1FA1
ENCODING 8097
SWIDTH 510 0
DWIDTH 17 0
BBX 15 30 1 -6
BITMAP
0700
0780
0780
0700
0300
0180
0080
0000
3030
3878
7838
703C
701C
F01C
F01E
E39E
E39E
E39E
E39E
F39E
F79C
7FFC
7EF8
3C70
0000
0000
0780
0780
03E0
01E0
ENDCHAR
STARTCHAR 1FA2
ENCODING 8098
SWIDTH 510 0
DWIDTH 17 0
BBX 15 31 1 -6
BITMAP
1C20
1E60
1EF0
1E70
0C38
1C38
381C
1008
0000
3030
3878
7838
703C
701C
F01C
F01E
E39E
E39E
E39E
E39E
F39E
F79C
7FFC
7EF8
3C70
0000
0000
0780
0780
03E0
01E0
ENDCHAR
STARTCHAR 1FA3
ENCODING 8099
SWIDTH 510 0
DWIDTH 17 0
BBX 15 30 1 -6
BITMAP
3840
3DC0
3DE0
38F0
3870
1C38
0C10
0000
3030
3878
7838
703C
701C
F01C
F01E
E39E
E39E
E39E
E39E
F39E
F79C
7FFC
7EF8
3C70
0000
0000
0780
0780
03E0
01E0
ENDCHAR
STARTCHAR 1FA4
ENCODING 8100
SWIDTH 510 0
DWIDTH 17 0
BBX 15 31 1 -6
BITMAP
0C10
1E38
1E38
0E70
0EF0
1CE0
39C0
1040
0000
3030
3878
7838
703C
701C
F01C
F01E
E39E
E39E
E39E
E39E
F39E
F79C
7FFC
7EF8
3C70
0000
0000
0780
0780
03E0
01E0
ENDCHAR
STARTCHAR 1FA5
ENCODING 8101
SWIDTH 510 0
DWIDTH 17 0
BBX 15 30 1 -6
BITMAP
1810
3C38
3C38
3870
1CF0
0EE0
0440
0000
3030
3878
7838
703C
701C
F01C
F01E
E39E
E39E
E39E
E39E
F39E
F79C
7FFC
7EF8
3C70
0000
0000
0780
0780
03E0
01E0
ENDCHAR
STARTCHAR 1FA6
ENCODING 8102
SWIDTH 510 0
DWIDTH 17 0
BBX 15 34 1 -6
BITMAP
0780
0FE0
1FE0
1C70
1830
0300
0780
0380
0380
0700
0200
0000
3030
3878
7838
703C
701C
F01C
F01E
E39E
E39E
E39E
E39E
F39E
F79C
7FFC
7EF8
3C70
0000
0000
0780
0780
03E0
01E0
ENDCHAR
STARTCHAR 1FA7
ENCODING 8103
SWIDTH 510 0
DWIDTH 17 0
BBX 15 33 1 -6
BITMAP
0780
0FE0
1FE0
1C70
1830
0380
0380
0380
0300
0180
0080
3030
3878
7838
703C
701C
F01C
F01E
E39E
E39E
E39E
E39E
F39E
F79C
7FFC
7EF8
3C70
0000
0000
0780
0780
03E0
01E0
ENDCHAR
STARTCHAR 1FA8
ENCODING 8104
SWIDTH 510 0
DWIDTH 17 0
BBX 22 22 -5 0
BITMAP
380000
780000
787800
39FC00
31FE00
E3CE00
438E70
038F70
038F70
078F70
078770
078770
038770
038F70
038E70
038E70
038E70
018E70
01DC78
07DF3C
07DF3C
07DF18
ENDCHAR
STARTCHAR 1FA9
ENCODING 8105
SWIDTH 510 0
DWIDTH 17 0
BBX 23 21 -6 0
BITMAP
700000
F03C00
F0FE00
E0FF00
71E700
39C738
11C7B8
01C7B8
03C7B8
03C3B8
03C3B8
01C3B8
01C7B8
01C738
01C738
01C738
00C738
00EE3C
03EF9E
03EF9E
03EF8C
ENDCHAR
STARTCHAR 1FAA
ENCODING 8106
SWIDTH 510 0
DWIDTH 17 0
BBX 30 22 -13 0
BITMAP
38800000
79C00000
79C07800
39E1FC00
38F1FE00
7073CE00
E0338E70
40238F70
00038F70
00078F70
00078770
00078770
00038770
00038F70
00038E70
00038E70
00038E70
00018E70
0001DC78
0007DF3C
0007DF3C
0007DF18
ENDCHAR
STARTCHAR 1FAB
ENCODING 8107
SWIDTH 510 0
DWIDTH 17 0
BBX 29 21 -12 0
BITMAP
71000000
F380F000
F3C3F800
61C3FC00
70E79C00
38E71CE0
10471EE0
00071EE0
000F1EE0
000F0EE0
000F0EE0
00070EE0
00071EE0
00071CE0
00071CE0
00071CE0
00031CE0
0003B8F0
000FBE78
000FBE78
000FBE30
ENDCHAR
STARTCHAR 1FAC
ENCODING 8108
SWIDTH 510 0
DWIDTH 17 0
BBX 27 22 -10 0
BITMAP
70800000
78C00000
79E3C000
79CFE000
338FF000
739E7000
E71C7380
421C7B80
001C7B80
003C7B80
003C3B80
003C3B80
001C3B80
001C7B80
001C7380
001C7380
001C7380
000C7380
000EE3C0
003EF9E0
003EF9E0
003EF8C0
ENDCHAR
STARTCHAR 1FAD
ENCODING 8109
SWIDTH 510 0
DWIDTH 17 0
BBX 28 21 -11 0
BITMAP
70400000
F071E000
F0F7F000
61E7F800
71CF3800
3B8E39C0
190E3DC0
000E3DC0
001E3DC0
001E1DC0
001E1DC0
000E1DC0
000E3DC0
000E39C0
000E39C0
000E39C0
000639C0
000771E0
001F7CF0
001F7CF0
001F7C60
ENDCHAR
STARTCHAR 1FAE
ENCODING 8110
SWIDTH 510 0
DWIDTH 17 0
BBX 25 25 -8 0
BITMAP
3C000000
7F000000
FF000000
E3800000
C3800000
180F0000
3C3F8000
1C3FC000
1879C000
3871CE00
1071EE00
0071EE00
00F1EE00
00F0EE00
00F0EE00
0070EE00
0071EE00
0071CE00
0071CE00
0071CE00
0031CE00
003B8F00
00FBE780
00FBE780
00FBE300
ENDCHAR
STARTCHAR 1FAF
ENCODING 8111
SWIDTH 510 0
DWIDTH 17 0
BBX 26 24 -9 0
BITMAP
1E000000
3F800000
7F800000
71C00000
E1C78000
0C1FC000
1E1FE000
1E3CE000
0C38E700
0638F700
0238F700
0078F700
00787700
00787700
00387700
0038F700
0038E700
0038E700
0038E700
0018E700
001DC780
007DF3C0
007DF3C0
007DF180
ENDCHAR
STARTCHAR 1FB0
ENCODING 8112
SWIDTH 510 0
DWIDTH 17 0
BBX 15 22 1 0
BITMAP
3C70
1C70
1FF0
0FE0
07C0
0000
07F0
1FF8
3FF8
7C78
7878
7878
F878
F878
F078
F878
F878
7878
7C7C
3FFE
3FFE
0F8E
ENDCHAR
ENDFONT
